<?xml version="1.0" standalone="no"?>
<!DOCTYPE svg PUBLIC "-//W3C//DTD SVG 1.1//EN" "http://www.w3.org/Graphics/SVG/1.1/DTD/svg11.dtd" >
<svg>
<metadata>
Created by FontForge 20090622 at Sun Jan 10 09:27:13 2016
 By deploy user
Copyright (c) 2007 by Gennady Fridman. All rights reserved.
</metadata>
<defs>
<font id="Katherine" horiz-adv-x="429" >
  <font-face 
    font-family="Katherine"
    font-weight="400"
    font-stretch="normal"
    units-per-em="1000"
    panose-1="2 0 5 3 3 0 0 2 0 3"
    ascent="800"
    descent="-200"
    x-height="341"
    cap-height="670"
    bbox="-316 -506 1083 924"
    underline-thickness="50"
    underline-position="-50"
    unicode-range="U+0020-U+1D11E"
  />
<missing-glyph horiz-adv-x="353" 
 />
    <glyph glyph-name=".notdef" horiz-adv-x="353" 
 />
    <glyph glyph-name=".null" horiz-adv-x="0" 
 />
    <glyph glyph-name="nonmarkingreturn" horiz-adv-x="333" 
 />
    <glyph glyph-name="space" unicode=" " horiz-adv-x="353" 
 />
    <glyph glyph-name="exclam" unicode="!" horiz-adv-x="476" 
d="M581 738q-1 -12 -28 -42q-1 -1 -18 -19.5t-26 -27.5l-69 -82q-40 -50 -59 -78l-122 -178q-41 -61 -53 -76q-28 -35 -40 -34q-10 1 -18 7t-5 12q4 19 72 115l120 174l100 138l56 76l24 38q16 16 30 16q3 0 12 -3t18 -13t6 -23zM98 28q0 -17 -15.5 -34.5t-32.5 -17.5
q-18 0 -32.5 18t-10.5 36q7 37 43 37q20 0 34 -11t14 -28z" />
    <glyph glyph-name="dollar" unicode="$" horiz-adv-x="544" 
d="M592 665q0 -14 -27 -50q-18 -25 -33 -51q-13 -21 -49 -85l-106 -191q19 -31 25 -47q11 -30 11 -63q0 -49 -40 -92q-30 -33 -84 -59q-12 -7 -76 -24l-38 -56q-27 -50 -36 -54q-13 -5 -22 4t-9 27q0 14 18 42q15 24 29 38q-5 2 -15 8q-23 15 -30 17q-3 -6 -15 -21
q-17 -20 -24 -33q-14 -24 -26 -41q-16 -22 -31 -22q-12 0 -21 6.5t-9 17.5q0 8 16 28l25 33l46 75q-15 47 -15 66q0 21 12.5 33.5t31.5 12.5q1 0 28 -9q32 47 59 96l40 77l-21 52q-10 27 -10 60q0 32 67 89q16 12 38 24q30 15 60 28q16 24 25 36l23 28l30 37q19 22 33 21
q9 -4 16.5 -17.5t7.5 -21.5q0 -5 -5 -17q-7 -15 -22 -32l-20 -25q16 -12 21 -17l45 58q41 49 51 48q26 -5 26 -34zM435 544q-10 6 -32 9q-11 -13 -24 -35l-59 -102l-27 -52q2 -2 10.5 -12.5t17 -18.5t13.5 -10q31 42 49 93l-4 31q0 16 12 28l26 28q8 11 18 41zM316 522
q-18 -10 -41 -34q-21 -23 -20 -38q0 -4 2.5 -11l4.5 -13l2 -6q29 43 52 102zM358 182q0 22 -14 43q-8 -10 -23 -37l-26 -47l-44 -75q33 8 62 35q25 23 32 36q13 20 13 45zM255 173l54 101l-14.5 14.5t-14.5 14t-10 8.5l-28 -43q-18 -29 -27 -47l-34 -64q-35 -65 -40 -81
q15 -15 47 -27q19 40 35 68z" />
    <glyph glyph-name="percent" unicode="%" horiz-adv-x="693" 
d="M472 576q1 -47 -82.5 -113.5t-141.5 -62.5q-22 0 -40 15.5t-18 36.5q0 18 29 65q28 47 51 67q14 13 44 20q17 14 49 26q33 12 55 12q24 0 39 -19t15 -47zM616 238q0 -49 -69 -112q-68 -62 -121 -62q-39 0 -54 27q-10 17 -10 51q0 11 11 47q12 35 27 35q20 0 25 -4.5
t5 -19.5q0 -11 -3 -26q-7 -32 -7 -40q0 -12 16 -12q28 0 75 41t47 67q0 8 -8 8q-9 0 -28 -10q-48 -23 -52 -22q-6 1 -11 8t-2 12q11 22 45 44q34 24 59 24q23 0 39 -15t16 -41zM690 660q0 -11 -28 -29q-40 -25 -46 -33q-17 -18 -71 -86l-92 -119l-107 -137l-222 -276
q-17 -20 -61 -81q-24 -33 -33 -33q-14 0 -23 10t-9 24q0 12 39 58l39 48q38 50 138 168l100 124l153 200q85 112 111 138q56 56 84 56q8 0 15 -7q13 -13 13 -25zM414 566q-2 19 -12 20q-16 3 -33 -6q-8 -5 -31 -22q1 -10 -16 -24q-2 -2 -17 -7t-17 -7q-11 -11 -20.5 -28
t-9.5 -26q0 -8 14 -10q14 -3 42 11q44 23 81 67q19 22 19 32z" />
    <glyph glyph-name="ampersand" unicode="&#x26;" horiz-adv-x="518" 
d="M506 731q2 -10 2 -24q0 -25 -8 -46q-17 -49 -65 -108q-12 -16 -35 -41l-40 -38q-20 -18 -41 -39q1 -8 1 -30q0 -9 -0.5 -28t-0.5 -29v-9q0 -32 4 -57l10 -58q8 -42 26 -108l22 -76q14 9 29 24l28 32l54 70q8 9 15 9q11 0 18 -10t4 -19q-5 -16 -17 -31l-17 -22
q-9 -19 -18 -31q-14 -20 -39 -45q-14 -12 -27 -20q38 -31 38 -38q0 -10 -7 -17l-9 -9q-7 -6 -36 6q-26 10 -41 20q-9 -5 -67 -13q-15 -2 -32 -2q-29 0 -54 13q-24 13 -101 73q-8 10 -15 24q-25 46 -26 48q-17 33 -24 66q-3 13 -3 28q0 83 116 191q20 19 53 38q18 10 27 17
l37 25l-3 59l2 76q0 38 26 98q32 81 93 96q10 2 24 2q26 0 53 -12q35 -17 44 -55zM455 708q-4 17 -17.5 29t-26.5 13l-18 -3q-38 -8 -54 -56l-19 -57q-5 -22 -5 -40l-3 -50q0 -16 6 -40l49 51l31 33q9 9 22 27l13 19q12 19 14 24q9 15 9 37q0 10 -1 13zM268 408
q-21 -12 -46 -32q-30 -26 -41 -37l-39 -36q-23 -23 -39.5 -58t-16.5 -61q0 -23 23 -69q17 -33 39 -52q40 -41 75 -57q28 -14 54 -14l11 2l43 13q-12 35 -19 66q-21 75 -30 130q-9 54 -12 121q0 18 -0.5 38t-1 30.5t-0.5 15.5z" />
    <glyph glyph-name="parenleft" unicode="(" horiz-adv-x="244" 
d="M305 675q-55 -83 -79 -138l-48 -115q-35 -89 -53 -154q-19 -68 -39 -164q-18 -93 -16 -114q0 -12 2 -24t2 -13q-5 -32 -34 -32q-14 0 -21.5 16t-7.5 37q0 26 19 124q36 190 98 345l52 122q26 61 54 105q28 43 46 43q25 0 25 -38z" />
    <glyph glyph-name="parenright" unicode=")" horiz-adv-x="388" 
d="M353 551v-51q0 -107 -42 -217q-49 -133 -144 -246q-49 -57 -96 -102q-63 -60 -85 -60q-7 0 -15 6t-7 14q2 5 90 90q49 48 75 82q60 79 84 123q34 62 56 138q12 38 20 96q8 56 8 84q0 61 -8 117q-3 24 -2 31q4 25 29 25q37 0 37 -130z" />
    <glyph glyph-name="asterisk" unicode="*" horiz-adv-x="448" 
d="M372 459q0 -32 -20 -32q-22 0 -64 8q-20 4 -39 4q15 -39 28 -61q33 -51 33 -63q0 -11 -10.5 -21.5t-17.5 -10.5q-3 0 -10 5l-15 12q-3 3 -14 24q-15 30 -23 41q-3 -12 -7 -36q-9 -30 -34 -30q-18 0 -22.5 4.5t-4.5 19.5v10l3 17l-9 -6q-6 -3 -11 -3q-9 0 -19 10
q-5 5 -5 13q0 13 13 29l4 4l7 7l8 8l28 25q-25 0 -36 1q-15 1 -22.5 2t-16 8.5t-8.5 20.5q0 14 15 19t47 5l17 -1q-13 32 -13 47q0 11 13 18.5t24 7.5q5 0 8.5 -2t7 -7t5.5 -8.5l5.5 -10t4.5 -9.5q11 28 20 41.5t20 11.5q36 -8 36 -28l-1 -8q12 5 17 5t9 -4q14 -17 14 -28
q0 -5 -4 -10l-26 -22q41 -7 44 -7q21 -6 21 -20z" />
    <glyph glyph-name="slash" unicode="/" horiz-adv-x="520" 
d="M572 596q0 -14 -41 -61l-43 -47l-190 -224l-180 -216q-52 -64 -52 -86l4 -26q-6 -20 -32 -20q-11 0 -25.5 9t-14.5 27q0 37 82 132l180 212l79 99q46 58 113 131l40 48q42 52 54 52t19 -9t7 -21z" />
    <glyph glyph-name="zero" unicode="0" horiz-adv-x="406" 
d="M440 394q0 -68 -68 -166q-35 -49 -78 -92q18 -16 18 -28q0 -14 -41 -35q-14 -8 -78 -35q-87 -38 -151 -38q-19 0 -35 12.5t-16 29.5q0 18 31.5 72.5t83.5 125.5q24 34 72 115q2 3 9.5 23.5t12.5 25.5q29 34 67 52q50 25 103 25q29 0 49.5 -26.5t20.5 -60.5zM390 388
q2 19 -9.5 33.5t-30.5 10.5q-50 -6 -84 -25q1 -2 8 -15q3 -5 2 -12q0 -5 -5.5 -12.5t-12.5 -14.5t-8 -9l-51 -62q-30 -36 -51 -68q-31 -45 -62 -95q-27 -45 -30 -61q-1 -2 -1 -3.5t2 -3t5 -2.5t8 -1q25 0 89 23q63 22 79 41q0 3 -2.5 10.5t0.5 10.5q5 9 42 50q45 49 60 73
q52 76 52 132z" />
    <glyph glyph-name="one" unicode="1" horiz-adv-x="322" 
d="M408 466q0 -11 -21 -38q-33 -45 -68 -76q-15 -14 -49 -38l-47 -70q-23 -35 -55 -90q-4 -7 -41 -90q-25 -58 -43 -60q-12 0 -21.5 6.5t-9.5 15.5t17 46q17 34 36 62q14 22 25 49l21 48l-70 -47q-41 -28 -51 -28q-7 0 -16.5 11.5t-9.5 20.5q0 7 9 13.5t29 16t28 14.5
q56 29 155 100l70 88q44 56 51 61q17 15 31 15q12 0 21 -9t9 -21z" />
    <glyph glyph-name="two" unicode="2" horiz-adv-x="403" 
d="M414 384q0 -52 -39 -99q-33 -40 -107 -85q-34 -21 -57 -33q-38 -22 -65 -41q-45 -33 -68 -70q63 19 118 19q42 0 94 -23q15 6 24 15l14 17l22 32q10 15 18 15q20 0 20 -23q0 -26 -41 -70q-41 -42 -65 -42q-8 0 -34 18t-58 18q-9 0 -21 -2t-22 -4.5t-25.5 -7.5t-24.5 -8.5
t-27.5 -10t-25.5 -9.5q-14 0 -23.5 9t-9.5 17q0 33 31 71q24 31 74 71q53 41 112 70q60 28 97.5 66.5t37.5 73.5q0 29 -13.5 48.5t-37.5 19.5q-34 0 -56 -25q-18 -19 -30 -54q-4 -28 -4 -29q-8 -26 -24 -26q-9 0 -18 11t-9 23q0 55 52 101q48 42 93 42q43 0 73 -36
q25 -29 25 -59z" />
    <glyph glyph-name="three" unicode="3" horiz-adv-x="389" 
d="M417 407q0 -22 -35 -55q-13 -13 -41 -37l-62 -55q46 -30 46 -104q0 -61 -64 -110q-63 -48 -137 -48q-51 0 -81.5 18.5t-30.5 47.5q0 12 13 22.5t25 10.5q17 -2 29 -18q2 -2 8 -25q26 -14 37 -13q52 0 99 33q51 38 51 84q0 55 -52 77l-49 -28q-28 -20 -43 -20q-10 0 -18 9
t-8 20q0 32 88 63q4 1 23.5 4.5t23.5 5.5l61 50q38 32 52 51q-45 9 -60 9q-10 0 -36 -2t-30 -2q-16 0 -23 1q-7 4 -7 16q0 35 62 35h30q54 0 75 -4q54 -9 54 -36z" />
    <glyph glyph-name="four" unicode="4" horiz-adv-x="387" 
d="M401 570q-1 -10 -32 -58q-34 -52 -74 -107l-69 -103q-22 -34 -33 -48l43 -4h23q10 0 15 1l43 66q12 18 25 34q18 21 32 21q19 0 19 -34q0 -4 -51 -82l-59 -91q-22 -40 -29 -54q-16 -35 -23 -52q-12 -35 -18 -44q-8 -13 -18 -17l-8 -3q-1 1 -9 2.5t-13.5 4.5t-5.5 8
q2 16 20 54t28 57q12 20 39 79q-23 5 -42 5q-28 0 -51 -6q-38 -32 -60 -54q-42 -44 -63 -44q-32 0 -32 29q0 12 9 24t46 43q4 4 12.5 9l22.5 13.5t23 13.5q18 28 71 100l61 84q17 22 58 87q59 92 77 92q12 0 18.5 -7t4.5 -19z" />
    <glyph glyph-name="five" unicode="5" horiz-adv-x="465" 
d="M553 456q0 -12 -10 -16q-3 -1 -6.5 -2t-5.5 -2t-4.5 -2t-4.5 -1t-16 4t-20 4q-60 0 -78 -2q-71 0 -117 -16q-8 -16 -16 -24q-22 -12 -48 -51q9 0 24 -4.5t17 -4.5q20 0 44 -35q25 -34 25 -68q0 -74 -39 -146q-56 -102 -161 -102q-50 0 -89 30q-38 30 -38 68q0 9 9.5 18.5
t18.5 9.5q25 0 37 -21q4 -7 12 -40q21 -19 49 -19q58 0 101 55q47 61 47 149q0 21 -9 36q-12 21 -37 21q-20 0 -57 -26l-30 -31q-14 -14 -27 -14q-15 0 -26.5 10t-10.5 24q2 15 16 31.5t32 25.5l52 56q22 30 32 49q-4 17 -4 32q2 7 17 19t24 12q15 0 19 -4l115 6q56 0 87 1
q13 0 25.5 0.5t18.5 1t7 0.5q9 0 17 -10t8 -22z" />
    <glyph glyph-name="six" unicode="6" horiz-adv-x="437" 
d="M429 416q-5 -35 -23 -35q-5 0 -9.5 1.5t-7.5 6.5t-4.5 7t-4.5 10t-4 9q-6 13 -19 22.5t-27 9.5q-10 0 -35 -22q-23 -19 -48 -44q-8 -8 -22 -30l-33 -51q43 21 108 21q46 0 70.5 -24.5t24.5 -66.5q0 -95 -86 -161q-49 -40 -119 -69t-114 -29q-76 0 -76 71q0 38 40 117
q40 82 109 170l26.5 34t18.5 23l5 7q67 83 94 99q19 11 47 11q32 0 62 -33q27 -30 27 -54zM344 224q0 51 -58 51q-34 0 -82 -30q-61 -38 -102 -96t-41 -97q0 -32 27 -35q23 -5 83 24q50 23 100 56q33 22 53 56.5t20 70.5z" />
    <glyph glyph-name="seven" unicode="7" horiz-adv-x="314" 
d="M383 430q0 -14 -20 -25q-36 -19 -54 -36q-47 -43 -64 -64l-56 -70q-81 -106 -96 -167q-2 -7 3 -24t5 -18q-3 -9 -16 -18t-25 -9q-13 0 -21.5 10t-8.5 21q0 33 35 101q38 72 82 128l54 67l55 66l-52 9l-81 8l-15 -18q-5 -6 -17 -32l-10 -27q-7 -21 -17 -21q-36 0 -36 21
q0 12 4 25q5 16 21 47q19 37 27 49q15 22 24 22q122 -26 168 -26q13 0 28 4q38 9 54 9q29 0 29 -32z" />
    <glyph glyph-name="eight" unicode="8" horiz-adv-x="378" 
d="M405 436q0 -53 -72 -131l-72 -70q0 -9 -2 -38t-2 -35q0 -18 -28 -55q-18 -26 -52 -52q-30 -25 -60 -38q-41 -18 -81 -18q-16 0 -25.5 11.5t-9.5 29.5q0 15 32 50q24 26 74 71l94 89q-26 66 -26 80q0 53 24 79q10 24 22 38q51 59 121 59q24 0 41 -16q22 -19 22 -54z
M352 424q-1 12 -9 20.5t-17 8.5q-16 0 -31 -18q-6 -7 -9 -15q10 6 35 6q26 0 31 -2zM329 382q-19 9 -30 9q-10 0 -22 -5q-1 0 -15.5 -9.5t-17.5 -12.5q-14 -15 -14 -38q0 -17 14 -37q22 9 49 42q18 21 36 51zM197 160q-1 3 -1 20q-1 -2 -30 -25q-22 -17 -27 -22l-43 -37
q-30 -29 -29 -34q2 -8 11 -9q8 -2 39 16q70 39 80 91z" />
    <glyph glyph-name="nine" unicode="9" horiz-adv-x="370" 
d="M405 408q0 -30 -15 -49q-33 -33 -47 -46q-34 -71 -45 -92q-32 -63 -57 -98q-91 -130 -155 -130q-28 0 -53 16t-25 33q0 25 20 25q8 0 25 -13t32 -13q20 0 48 25q27 25 50 53q21 24 41 86l-43 -27q-34 -19 -61 -19q-22 0 -40 20q-18 19 -18 37q0 86 61 173q80 119 175 119
q44 0 75.5 -29.5t31.5 -70.5zM329 436q1 12 -10 18.5t-25 6.5q-36 0 -76 -33q-37 -29 -63 -71q-19 -33 -30.5 -66.5t-11.5 -47.5q0 -13 0.5 -18.5t4 -10.5t10.5 -5q12 -3 29 4q10 4 30 16q9 5 23 19l19 19q3 3 17 13t17 13q19 17 36 57q-8 11 -8 24q2 11 19 31q19 22 19 31z
" />
    <glyph glyph-name="colon" unicode=":" horiz-adv-x="313" 
d="M236 280q0 -33 -38 -41q-19 -4 -34.5 8.5t-15.5 32.5q0 21 16 35.5t36 10.5q36 -8 36 -46zM182 78q0 -13 -12.5 -24.5t-27.5 -11.5q-14 0 -30 13.5t-16 28.5q0 16 21 34q13 12 27 12q18 0 28 -15t10 -37z" />
    <glyph glyph-name="semicolon" unicode="&#x37e;" horiz-adv-x="323" 
d="M256 280q0 -33 -38 -41q-19 -4 -34.5 8.5t-15.5 32.5q0 21 16 35.5t36 10.5q36 -8 36 -46zM262 82q0 -15 -32 -62q-58 -87 -127 -152q-34 -34 -45 -34q-15 1 -17 13q-1 16 45 70q34 39 42 51l36 48q22 32 30 54q2 6 -1 18.5t-1 15.5q7 12 34 12q15 -2 25.5 -11.5
t10.5 -22.5z" />
    <glyph glyph-name="semicolon" unicode=";" horiz-adv-x="323" 
d="M256 280q0 -33 -38 -41q-19 -4 -34.5 8.5t-15.5 32.5q0 21 16 35.5t36 10.5q36 -8 36 -46zM262 82q0 -15 -32 -62q-58 -87 -127 -152q-34 -34 -45 -34q-15 1 -17 13q-1 16 45 70q34 39 42 51l36 48q22 32 30 54q2 6 -1 18.5t-1 15.5q7 12 34 12q15 -2 25.5 -11.5
t10.5 -22.5z" />
    <glyph glyph-name="question" unicode="?" horiz-adv-x="465" 
d="M446 546q0 -92 -64 -153q-22 -22 -71 -51q-45 -27 -65 -41q-50 -38 -76 -83l-24 -47q-17 -29 -27 -26q-19 1 -19 11q-4 28 22 75q38 70 102 116l128 86q42 42 42 105q0 53 -36 80q-28 20 -61 20q-50 0 -65 -64l-6 -32q-3 -6 -4 -16q-1 -8 -5 -13t-7.5 -6.5t-5.5 -1.5
q-20 0 -20 53q0 62 32 95.5t85 33.5q62 0 101 -33q44 -38 44 -108zM112 24q-9 -33 -41 -28q-18 2 -28.5 14t-7.5 29q5 32 38 32q15 0 27.5 -11.5t12.5 -27.5q0 -6 -1 -8z" />
    <glyph glyph-name="at" unicode="@" horiz-adv-x="704" 
d="M711 406q0 -50 -35 -137q-35 -85 -81 -155q-34 -50 -76 -79t-84 -29q-36 0 -52 22q-13 17 -20 54q-35 -39 -53 -55q-35 -31 -63 -31q-29 0 -45.5 23t-16.5 67q0 31 13 79q13 46 37 95q28 55 63 85q41 35 89 35q21 0 39.5 -16t24.5 -40l26 2q14 0 14 -20q0 -6 -10 -25
l-40 -69q-30 -49 -30 -112q0 -21 11 -33.5t31 -12.5q15 0 37 16q30 21 57 56q47 61 80 136q40 89 40 156q0 34 -40 68q-46 40 -104 40q-85 0 -180 -57q-77 -47 -132 -111l-65 -80q-41 -53 -58 -83q-35 -61 -35 -157q0 -89 60 -140q22 -19 59 -30q36 -10 59 -10q41 0 111 18
t129 48q50 24 79 42q21 12 37.5 25t26.5 22.5t14 11.5q14 9 24 9q6 0 10 -4.5t3 -9.5q0 -12 -15 -28q-23 -27 -73 -59q-23 -15 -88 -48q-134 -73 -270 -73q-78 0 -146 60q-39 35 -56 85q-14 42 -14 85q0 39 11 88q24 93 117 203l58 67q62 73 162 122q102 50 182 50
q75 0 126 -45q52 -43 52 -121zM402 260l7 32q0 15 -8.5 29t-17.5 15q-59 0 -106 -88q-17 -33 -32.5 -83.5t-15.5 -76.5q0 -50 20 -50q13 0 38 24q28 26 46 54q14 21 34 58l14 26.5l12 23.5q5 9 9 36z" />
    <glyph glyph-name="A" unicode="A" horiz-adv-x="590" 
d="M732 685q0 -11 -17 -43q-42 -79 -65 -129q-33 -71 -46 -90q-8 -15 -18 -42l-21 -54q34 0 76 6q40 0 40 -22q0 -8 -7.5 -14t-17.5 -6q-2 0 -10 1l-8 1q-1 0 -5 -1t-12 -2l-16 -2q-33 -4 -58 -10q-15 -23 -31 -60q-53 -124 -60 -143q-29 -75 -44 -96q-11 -17 -26 -17
q-5 0 -14 3q-10 3 -32 50l-20 62l-23 56q-7 -8 -25 -36q-41 -64 -55 -81q-25 -35 -61 -60q-43 -29 -79 -29q-35 0 -65 21q-29 21 -29 51q0 11 9 34t18 23l30 9q13 4 45 19q19 8 27 12q2 1 16 8.5t34.5 19.5l45.5 28l58 38q-13 22 -33 42q-26 3 -48 10l-31 9q-24 9 -24 23
q0 23 16 24q8 1 32 -4q60 -15 97 -15q18 0 58 9q5 6 18 39q25 59 45 96q26 52 62 112q74 120 143 163q42 27 75 27q25 0 40.5 -11t15.5 -29zM660 639l17 38q-8 6 -12 5q-36 -6 -68 -35q-27 -24 -55 -61q-36 -46 -63 -99l-52 -105q-23 -49 -36 -88l13 5l25 20.5t16 13.5
q55 47 95 94q6 6 29 36l29 56l36 69q18 34 26 51zM530 357l-23 -23l-30 -24q12 0 23 2l12 2q13 27 18 43zM462 216l18 49l-31 -2q-21 0 -38 -4q-15 -11 -42 -38l-43 -40q5 -14 18 -43q11 -24 15 -35q3 -6 13 -36l12 -35q8 13 32 71q2 4 9.5 21.5l13.5 31.5l9.5 23.5l8.5 22
t5 14.5zM295 219l9 20h-9h-20l10 -10zM183 46l49 69l-71 -41q-12 -7 -32 -16l-37 -17l-51 -22q-5 -3 -11 -13q0 -32 47 -32q30 0 58 22q22 16 48 50z" />
    <glyph glyph-name="B" unicode="B" horiz-adv-x="470" 
d="M530 641q0 -24 -20 -69q-19 -41 -45 -71l-32 -39q-17 -20 -27 -30q34 -5 58 -23q32 -26 32 -67q0 -56 -27.5 -119.5t-72.5 -114.5q-61 -70 -140 -110q-73 -37 -138 -37q-29 0 -58 12q-13 6 -38 22q-14 -3 -17 -2q-7 1 -13.5 8.5t-6.5 18.5q0 36 36 102q6 8 39 33l27 20
q15 19 29 43l34 57l59 100l44 81q22 37 28 46q61 89 68 115l2 8q-15 -5 -42 -22q-24 -14 -40 -28q-49 -53 -82 -116q-5 -10 -15 -35q-9 -23 -14 -28q-7 -8 -21 1t-14 19q0 8 17 44q26 52 48 87q33 49 78 81q22 17 54 35q51 31 104 43q35 8 55 6q51 0 51 -71zM483 637
q0 10 -0.5 14t-4 7t-10.5 3q-28 0 -55 -10q-6 -19 -11 -45q-13 -38 -17 -46q-7 -7 -18 -11l-42 -67q-9 -13 -23 -37q-16 -25 -21 -39l15 5l39 16q32 25 96 103q52 62 52 107zM453 342q0 18 -18 32.5t-41 14.5q-27 0 -62 -23q-58 -47 -86 -57l-26 -7l-26 -43l-24 -43l55 13
q12 2 37 5q27 4 32 4q24 0 24 -23q0 -16 -25 -20l-68 -8q-56 -13 -102 -42l-23 -43l-43 -71q5 -9 25.5 -16t43.5 -7q56 0 118 32q68 36 126 104q38 46 62 107q21 54 21 91z" />
    <glyph glyph-name="C" unicode="C" horiz-adv-x="358" 
d="M586 660q-12 -28 -14 -34l-35 -78q-26 -52 -50 -90q-28 -43 -43 -43q-14 0 -25 8.5t-11 22.5q0 9 35 74q36 64 36 77q0 47 -27 47q-60 0 -98 -32q-46 -39 -97 -106q-50 -66 -118 -190q-27 -47 -33 -61q-57 -114 -57 -188q0 -20 10.5 -34.5t30.5 -14.5q21 0 72 20
q51 21 105 51l80 48l52 33q5 3 13 -1t12 -11q5 -10 -37 -41q-36 -27 -102 -65q-68 -39 -107 -58q-57 -26 -93 -26q-32 0 -57 22q-32 29 -32 82q0 28 21 90t51 120q22 44 38 72l51 85q43 67 69 103q35 48 68 81q32 33 79 53q48 20 83 20q30 0 44 -17l19 -38q8 4 19 23
q10 18 17 18q12 0 21.5 -6.5t9.5 -15.5z" />
    <glyph glyph-name="D" unicode="D" horiz-adv-x="576" 
d="M640 478q0 -40 -18 -98q-34 -112 -134 -206q-31 -29 -87 -71q-55 -41 -124 -77q-76 -40 -116 -40t-71 14l-27 14q-3 -3 -25 -34q-13 -19 -20 -19q-12 0 -21 7t-9 18q-1 6 33 58l78 124l105 172l107 180l57 100l20 52q18 46 42 40q19 -4 19 -16t-7 -33q-6 -21 -6 -23
q8 0 28 6t22 6q69 0 111.5 -47.5t42.5 -126.5zM590 488q0 51 -30.5 84.5t-73.5 33.5q-41 0 -72 -20q-8 -9 -21 -33l-23 -39l-140 -228l-140 -232q27 -20 66 -20q22 0 82 28q58 27 104 57q51 33 98 76q62 57 97 112q53 77 53 181z" />
    <glyph glyph-name="E" unicode="E" horiz-adv-x="464" 
d="M707 598q0 -18 -7.5 -28t-19.5 -10q-15 2 -15 16q0 3 6 13q0 6 -23 10t-48 4q-10 0 -78 -9t-102 -9q-15 0 -33 6l-16 -32q-8 -17 -26.5 -50.5l-22.5 -40.5l-73 -139q19 -12 43 -12q109 23 153 23q9 0 73 2q13 0 27 0.5t21.5 1t10.5 0.5q10 0 17 -8t5 -16l-5 -14
q-6 -9 -16 -10q-4 -1 -18 2.5t-18 3.5q-43 0 -103 -7l-165 -28q-16 0 -55 13q-21 -37 -47 -71q-42 -55 -56 -79l-39 -57q-24 -35 -24 -39l5 -1q5 -1 98 34q70 26 79 29q73 24 147 46q78 23 94 23q3 0 9 -10t5 -15q-2 -13 -73 -35l-141 -45l-106 -40q-108 -41 -143 -41
q-7 0 -20.5 10.5t-13.5 18.5q0 18 38 80l46 72l45 67l45 71l80 134l65 124q-5 10 -14 24q-8 14 -5 21t14 16t17 10h16q11 17 19 24q13 12 27 10q8 -1 16 -22q10 -2 26 -2q41 0 100 7t80 7q42 0 70.5 -13.5t28.5 -39.5z" />
    <glyph glyph-name="F" unicode="F" horiz-adv-x="420" 
d="M658 574q3 -6 3 -16q0 -35 -19 -43q-7 -2 -16 1q-7 3 -12 16.5t-11 15.5q-41 13 -99 23l-113 21q-28 3 -43 10l-24 -57l-28 -65q-75 -168 -88 -188q11 0 28 5l35 8l22 6t15 4l5 1q12 3 74 12q57 10 67 10t15 -0.5t10 -5.5t5 -14q0 -24 -25 -28q-9 -1 -15 3q-8 0 -52 -9
q-40 -7 -77 -17l-102 -26l-41 -8l-42 -69l-41 -72l-36 -63q-39 -64 -52 -64q-5 0 -14 8t-10 13q0 17 34 70q29 46 34 56l116 208q15 23 28 48l27 54q14 26 21 45q6 12 23 54l34 90q21 57 42 57q8 0 21 -8q15 -9 24 -11q21 -5 52 -11l74 -15q142 -28 151 -49z" />
    <glyph glyph-name="G" unicode="G" horiz-adv-x="452" 
d="M603 299q-1 -15 -31 -15l-66 4q-32 0 -86 -6q-58 -7 -85 -13q24 -8 41 -22q24 -19 24 -45q0 -39 -52 -91q-55 -55 -119 -89q-77 -42 -145 -42q-37 3 -59.5 28.5t-22.5 70.5q0 51 47 172q47 120 114 223q73 106 164 166q61 40 135 40q38 0 71 -35t33 -85q0 -35 -19 -51
q-14 -13 -28 -11q-18 3 -20 5q-9 6 -9 27q1 5 1 12q0 5 10.5 17t10.5 19q0 26 -19.5 41.5t-48.5 15.5q-40 0 -82 -27q-44 -25 -91.5 -74.5t-80.5 -106.5l-49 -85q-12 -20 -27 -55q-25 -55 -46 -120q-19 -60 -19 -88q0 -21 12.5 -37.5t32.5 -16.5q53 0 132 48q48 28 85 62
q39 36 39 58q0 19 -20 33q-8 6 -71 25q-47 13 -63 13l-26 -4q-8 0 -13.5 8.5t-4.5 17.5q0 20 70 20l83 -2q40 9 94 17q62 9 103 9q24 0 40.5 -1t32 -4t22.5 -9.5t6 -16.5z" />
    <glyph glyph-name="H" unicode="H" horiz-adv-x="515" 
d="M716 629q0 -14 -27 -64l-26 -46q-10 -17 -22 -30l-61 -86q-47 -67 -61 -84l-90 -206l-38 -88q-20 -44 -29 -44q-23 -3 -23 20q0 11 16 52q18 45 36 83l36 80q12 27 27 67q-16 -14 -36 -29l-42 -31q-48 -34 -105 -59t-88 -25q-13 0 -32 7l-36 -64l-54 -92q-15 -27 -30 -47
q-17 -20 -25 -20q-8 -1 -16.5 9.5t-8.5 22.5q0 9 8 51q7 38 18 67q24 69 40 98q24 42 66 42q12 -3 16 -3q36 49 125 244l42 98q37 85 45 100q27 54 41 51q27 -6 23 -25q0 -12 -22 -57l-42 -90l-90 -191l-33 -67l-43 -84q7 -6 15 -6q22 0 70 22t102 60q24 17 59 48
q31 29 59 60l75 79q35 42 54 73q5 15 9 23q6 12 27 47q29 54 52 54q7 0 13 -6t6 -14zM82 112l27 49q-4 4 -9 4q-6 -1 -15.5 -12.5t-13.5 -22.5q-13 -31 -19 -50q-11 -30 -13 -45q2 3 43 77z" />
    <glyph glyph-name="I" unicode="I" horiz-adv-x="272" 
d="M446 704q0 -12 -7 -33q-3 -10 -44 -92.5t-51 -98.5q-40 -72 -56 -96q-13 -22 -58 -88q-45 -69 -64 -96q-73 -109 -89 -130q-12 -15 -45 -62q-14 -20 -22 -23q-8 -2 -17 2q-9 3 -10 8q-3 19 33 71l45 61l65 96l71 107l66 105q24 40 72 133.5t49 101.5q0 4 -3 9q-3 3 -3 7
q0 10 16 25t30 15q21 0 22 -22z" />
    <glyph glyph-name="J" unicode="J" horiz-adv-x="405" 
d="M618 586q0 -32 -10 -56q-11 -26 -28 -22q-10 3 -11 3q-5 3 -5 13q0 6 3 20q7 29 7 35q0 32 -2.5 43t-10.5 11q-33 0 -122 -207l-55 -126q-27 -57 -77 -150l-65 -114q-30 -46 -62 -80q-52 -54 -98 -54q-73 0 -110 78q-21 47 -21 65q0 9 9 17.5t21 8.5t18 -21l9 -30
q9 -28 24 -44q19 -22 48 -22q49 0 124 112q32 49 59 100l73 145l56 124q38 85 86 172q26 46 47 63q17 14 35 14q31 0 46 -32q12 -26 12 -66z" />
    <glyph glyph-name="K" unicode="K" horiz-adv-x="526" 
d="M624 174q0 -10 -32.5 -31.5t-74.5 -40.5q-55 -23 -92 -36q-53 -17 -78 -17q-24 0 -46 36q-13 24 -27 63q-4 11 -7 33q-8 51 -10 58l-4 18q-4 15 -15 37q-15 -20 -42 -64l-50 -78q-60 -88 -90 -122q-26 -31 -39 -32q-12 -2 -19.5 4t-7.5 18q0 17 44 76q5 7 74 94
q9 11 43 75q21 41 31 57l22 29l49 83l41 72l65 111q30 56 42 63q4 2 7 2q10 0 17 -8t7 -18q0 -12 -23 -52q-48 -81 -48 -82l-55 -99q72 48 138 81q73 37 122 37q19 0 31 -11t12 -27q0 -34 -25 -59q-14 -14 -38 -28q-14 -8 -23 -8q-7 0 -7 6t26 35q27 30 24 40q-2 6 -18 6
q-28 0 -75 -21q-29 -15 -53 -30l-46 -32q-24 -17 -69 -58q-21 -19 -29 -25q5 -3 8.5 -8t6.5 -12.5t4.5 -12.5l4.5 -15.5t4 -14.5q9 -28 13 -58q6 -37 9 -46l13 -41q11 -23 21 -23q36 0 121 35q40 17 76 35q42 20 52 20q3 0 9 -5t6 -9z" />
    <glyph glyph-name="L" unicode="L" horiz-adv-x="403" 
d="M434 48q0 -13 -87 -28l-96 -13l-94 -12q-42 -5 -91 -5q-33 0 -47.5 3.5t-23.5 17.5q0 9 23 43l47 66l69 101q30 45 70 113q69 116 122 247q14 37 18 54q10 30 19 30q11 0 24 -9t13 -17q0 -15 -42 -109l-49 -103q-25 -51 -59 -112t-93 -150l-83 -124q5 -1 28 -1q34 0 67 4
l75 9q49 8 125 22q36 7 43 7q12 0 17 -7t5 -27z" />
    <glyph glyph-name="M" unicode="M" horiz-adv-x="948" 
d="M1021 149q-2 -11 -41 -38q-46 -30 -78 -46q-61 -32 -122 -57q-58 -22 -84 -21q-29 0 -47 32q-18 33 -18 73q-1 3 -1 13q0 11 5 28q-64 -47 -99 -42q-57 6 -57 65q0 14 6 38l7 24q11 36 43 103l58 115l68 131q18 37 18 48q1 6 1 12q0 8 -4 8q-16 0 -42 -44
q-14 -23 -26 -48l-133 -263q-53 -100 -99 -162q-53 -70 -107.5 -101.5t-120.5 -31.5q-44 0 -74.5 15t-64.5 51q-52 59 -52 95q0 23 25 39t54 14q33 0 61 -34q25 -29 25 -49q0 -5 -7 -13t-10 -6q-7 1 -20 14q-14 14 -23 25q-11 12 -22 15q-5 1 -11 1q-23 0 -23 -16
q0 -9 13 -25q12 -15 28 -30q53 -50 103 -50q45 0 78 18q59 30 114 106q38 50 91 149l118 235q36 66 60 97q37 49 71 49q21 0 34 -16.5t13 -40.5q-1 -5 -1 -10q-3 -20 -30 -76l-53 -108l-83 -169q-31 -64 -31 -109q0 -18 6 -18q21 0 62 26q47 30 66 63q4 15 23 55l36 74
q27 51 43 78q23 40 48 75q36 52 69 82q40 36 68 36q16 0 31.5 -18t15.5 -43q0 -23 -21 -56l-27 -40q-52 -74 -117 -152q-22 -25 -67 -68l-60 -56q-18 -37 -24 -82q0 -46 3 -59.5t18 -13.5q28 0 91 26l68 31q30 14 63 33q69 41 75 42q7 1 14.5 -6.5t5.5 -15.5zM957 575l-9 9
q-16 1 -65 -60q-62 -83 -94 -142q-27 -50 -42 -88l31 32q25 27 32 36l41 49q22 27 54 76q51 73 52 88z" />
    <glyph glyph-name="N" unicode="N" horiz-adv-x="489" 
d="M876 608q-1 -3 -1.5 -6.5t-1 -5.5t-0.5 -4t-0.5 -3t-1.5 -2.5t-2 -2t-2.5 -1.5t-3.5 -2q-7 -5 -15 12t-15 15q-69 -30 -161 -105q-73 -59 -113 -105q-59 -67 -112 -134q-45 -57 -90 -123l-33 -48q-16 -24 -24 -38l-22 -46q-14 -27 -33 -27q-9 0 -15 10.5t-6 25.5
q0 13 41 125l82 220l31 88q14 39 16 53l-20 -10q-13 -9 -25 -24q-30 -35 -76 -99q-40 -58 -77 -120l-62 -101l-71 -115q-38 -62 -58 -91q-32 -45 -50 -50q-11 -3 -20 7t-9 23q0 9 4 17q3 9 12 5q8 -5 43 54l54 92l129 200q17 25 68 113l79 133l55 89q23 32 35 44
q21 22 33 22q4 0 10.5 -9.5t6.5 -15.5q0 -35 -8 -53q3 0 5 -7.5t3 -7.5q8 -2 8 -12v-10q0 -25 -28 -105q-24 -64 -33 -91q-45 -119 -55 -174q82 105 145 176q74 85 133 135q59 49 115 86q68 46 99 46q38 0 38 -32q0 -8 -1 -11zM406 572l4 34q-12 -10 -42 -67q4 2 12 8z" />
    <glyph glyph-name="O" unicode="O" horiz-adv-x="485" 
d="M595 491q0 -86 -87 -192q-18 -23 -84 -93q-42 -45 -105 -91l-95 -66q-34 -24 -80 -41q-51 -17 -93 -17q-53 0 -53 60q0 34 24 88l53 105l72 133q-3 19 -3 28q0 14 27 61q52 87 139 148q34 22 61.5 30.5t68.5 8.5q53 0 100 -41q55 -48 55 -121zM548 491q0 46 -34 81
q-33 36 -81 36q-64 0 -111 -33q-18 -14 -38 -38q9 -2 15.5 -11.5t4.5 -17.5q-2 -9 -23 -23q-13 -9 -15 -12q-54 -86 -67 -109q-54 -90 -82 -142q-27 -46 -45 -88q-23 -52 -23 -76q0 -18 13 -20q45 -7 151 57q38 24 86 60q53 41 98 89l72 81q34 39 56 82q23 46 23 84z" />
    <glyph glyph-name="P" unicode="P" horiz-adv-x="465" 
d="M586 504q0 -95 -83 -183q-44 -46 -104 -72t-116 -26q-36 0 -89 20l-39 -54l-47 -69l-58 -88q-28 -42 -39 -44q-21 -3 -21 24q0 13 36 67l36 53l79 121q-29 35 -29 51q0 5 6 11t12 6q3 0 18 -9t22 -11q5 11 18 43q29 69 42 97l38 85q21 44 44 77q46 66 118 66q54 0 95 -31
q61 -52 61 -134zM540 502q0 54 -29.5 87.5t-74.5 33.5q-23 0 -51 -19q-27 -19 -38 -37q31 -15 23 -35q-2 -7 -23 -39l-26 -41l-102 -167q29 -17 68 -17q115 0 191 88q27 31 44.5 73.5t17.5 72.5z" />
    <glyph glyph-name="Q" unicode="Q" horiz-adv-x="482" 
d="M591 590q0 -36 -19 -92q-19 -60 -49 -110q-31 -55 -76 -111q-40 -52 -80 -92l4 -74q0 -20 2 -54q6 -73 6 -80q0 -30 -6.5 -55t-16.5 -25q-22 0 -22 22l-2 70q0 14 -5 64q-4 44 -9 70q-16 -18 -38 -38l-37 -34q-52 -48 -98 -78q-61 -40 -101 -40q-33 0 -46 28
q-10 19 -10 57q0 10 24 76q23 65 51 127q0 39 3 64q6 31 20 80q26 100 103 189q68 77 140 108q55 23 120 23q57 0 95 -20q47 -26 47 -75zM543 582q0 36 -41 48q-22 7 -77 7q-31 0 -54 -6q-42 -12 -86 -45q-64 -46 -121 -151q-33 -63 -53 -150l33 45l33 47q10 16 30 44l40 59
l11 13q10 9 14 8q8 -1 14 -8.5t6 -16.5q0 -18 -24 -52l-32 -44l-36 -50l-39 -59q-33 -49 -63 -107q-42 -80 -59 -125q-5 -15 -5 -25q0 -31 22 -31q21 0 68 29q44 27 92 72q32 30 47 47q16 18 56 69q1 5 1 20q-1 13 -1 33q0 7 -0.5 21t-0.5 22q0 23 4 34q5 18 22 14
q14 -1 19 -13q0 -1 2 -33t4 -45q19 16 52 60q41 53 63 96q32 61 42 87q17 45 17 86z" />
    <glyph glyph-name="R" unicode="R" horiz-adv-x="463" 
d="M528 568q0 -72 -43 -133q-37 -53 -102 -93q-41 -26 -92 -49q-35 -16 -71 -27q16 -39 28 -65q50 -98 79 -127q22 -22 49 -22q29 0 56 8l52 20q10 1 14 -3.5t2 -14.5q-1 -12 -48 -35q-45 -21 -76 -21q-38 0 -63 15q-30 18 -63 77l-64 114l-86 -122q-38 -57 -49 -70
q-26 -32 -36 -32q-23 0 -23 32q0 16 29 92q26 69 59 134l54 100q31 51 56 82q41 66 61 95q33 47 81 93q29 27 66 45.5t62 18.5q68 0 68 -112zM484 580q0 22 -8 36t-20 12q-45 -7 -66 -24q-23 -18 -47 -47t-33 -51l-9 -31l-18 -51q-30 -84 -41 -100q17 1 56 20
q110 53 155 125q31 49 31 111zM184 324l10 34q-29 -35 -34 -60l10 -4q6 7 14 30zM119 196l27 40l-8 22q-14 -20 -28 -48t-22 -50q16 14 31 36z" />
    <glyph glyph-name="S" unicode="S" horiz-adv-x="471" 
d="M550 585q0 -69 -31 -138q-34 -85 -91 -85q-12 0 -26 16.5t-14 31.5q0 50 14 98q6 17 18 43q4 7 11 21.5t9 19.5q4 10 14 19t18 9q18 0 24 -2q-8 17 -26.5 25t-36.5 5q-63 -9 -96 -72q-25 -47 -25 -98t79 -245q23 -63 23 -91q0 -47 -20 -76q-23 -33 -86 -58
q-63 -26 -108 -26q-210 0 -210 82q0 14 12 30q28 40 85 40t93.5 -19t45.5 -48q1 -1 6 -29q18 -2 56 12q45 16 65 45q11 14 11 41q0 41 -22 98l-26 60q-21 48 -34 90q-18 59 -18 103q0 67 39 128q54 86 154 86q44 0 70 -38q23 -35 23 -78zM502 544l-15 -24q-13 -18 -19 -24
q-4 -3 -9 -3l-9 3q-12 -27 -12 -68q0 -14 10 -14q2 0 5 2.5t6 8l6 10.5t7 13l6 12q26 51 24 84zM196 32q-10 58 -102 58q-52 0 -52 -22q0 -18 32 -29q17 -6 62 -11q3 -1 15 -1z" />
    <glyph glyph-name="T" unicode="T" horiz-adv-x="453" 
d="M948 654q0 -18 -22 -18q-2 0 -13.5 4.5t-16.5 5.5q-14 2 -99 -9l-151 -18q-131 -17 -160 -17q-23 -28 -58 -81l-37 -58l-61 -99q-25 -43 -76 -139q-17 -33 -64 -112q-38 -63 -57 -90q-12 -17 -24 -27q-17 -15 -28 -18q-8 -1 -19.5 8.5t-11.5 16.5q0 12 12 51
q34 113 41 153q15 99 15 135q0 79 -8 124q-7 43 -22 69t-45 41l-35 14q-17 8 -20 24q-2 5 15 19q17 15 23 15q3 0 23.5 -6t33.5 -8q15 -2 141 -2q105 0 212 10q5 5 13 11q10 7 19 7t28 -14q11 1 130 13l92 11q155 18 172 18q58 0 58 -34zM347 480l72 113q-4 0 -111 -5
q-50 -2 -70 -2h-132q22 -28 25 -35q20 -34 25.5 -77.5t5.5 -125.5q0 -67 -18 -155q-18 -81 -22 -97l27 43l21 34l98 178z" />
    <glyph glyph-name="U" unicode="U" horiz-adv-x="435" 
d="M614 683q0 -23 -10 -47q-5 -16 -24 -49q-26 -47 -54 -88l-69 -103q-23 -34 -50 -79q-18 -29 -58 -108q-41 -79 -60 -129l-22 -59q-13 -31 -36 -31q-13 0 -13 30q0 15 17 55l22 48l31 72l26 59l-51 -48l-51 -44q-77 -62 -86 -67q-44 -29 -78 -29q-20 0 -34 14t-14 34
q0 28 12 74q14 46 33 87l49 98q36 73 49 105l48 109q27 58 38 58q12 0 19 -9.5t5 -24.5q-2 -12 -23 -58l-42 -86l-105 -218q-15 -34 -26 -66q-11 -36 -8 -47q7 -19 17 -20q7 -1 47 26q23 15 82 64q42 34 86 78q23 23 74 78q18 20 52 62q35 46 62 88l49 114q15 32 35 62
q21 30 33 30q10 0 19 -10.5t9 -24.5z" />
    <glyph glyph-name="V" unicode="V" horiz-adv-x="302" 
d="M483 636q0 -14 -9 -33q-7 -17 -24 -43q-15 -22 -22 -34q-12 -17 -23 -27q-6 -8 -31 -14l-57 -75q-33 -43 -72 -103q-36 -53 -57 -89l-76 -130q-39 -64 -53 -78q-17 -17 -29 -17t-21.5 16t-7.5 31q6 66 16 118l12 68q13 86 30 162q30 147 32 160q10 64 14 78q12 44 33 39
q16 -3 28 -21.5t12 -48.5q-1 -5 -1 -13q0 -23 -13 -27q-6 -1 -17 10l-6 -21q-1 -5 -14 -58l-32 -168l-28 -154q-9 -51 -9 -66q15 22 68 107l89 140q32 52 146 190l52 83q27 43 49 43q7 0 14 -8t7 -17z" />
    <glyph glyph-name="W" unicode="W" horiz-adv-x="601" 
d="M856 614q0 -6 -25 -19q-22 -12 -43 -35q-34 -35 -83 -95q-67 -80 -113 -141l-150 -194q-31 -40 -86 -91q-53 -47 -64 -47q-41 0 -41 28q0 49 23 113l32 92l19 64q17 55 21 75l-108 -142l-150 -194l-33 -44q-19 -22 -37 -22q-8 0 -14.5 9.5t-6.5 19.5q0 12 20 78
q16 54 25 81l51 200q3 10 34 145l18 78q5 17 13 51q7 22 16 22q9 -1 19 -10.5t9 -17.5q0 -13 -30 -145q-12 -55 -30 -129q-20 -80 -41 -156q-25 -91 -27 -104l46 56l71 91l77 101q51 68 70 96q6 8 68 98q7 10 9 17l15 35q26 48 44 48q7 0 15.5 -10t8.5 -19q0 -5 -21 -46
q-17 -31 -27 -57l-52 -142l-49 -147l-47 -147q28 12 108 106q28 32 61 76l93 120l182 228q26 26 41 37q29 22 47 27q11 3 16.5 -9t5.5 -29z" />
    <glyph glyph-name="X" unicode="X" horiz-adv-x="440" 
d="M542 546q0 -8 -15 -12q-6 -2 -10 -1t-7.5 3t-4.5 2q-13 3 -52 -33q-32 -29 -59 -62l-45 -53l-39 -49q6 -21 23 -62q5 -14 33 -71l27 -56q20 -39 23 -44l21 -25q10 -10 13 -24q1 -7 -7 -18t-16 -9q-39 8 -104 149l-31 66q-16 31 -24 53l-55 -56q-34 -37 -67 -82l-69 -97
q-72 -102 -80 -102q-7 0 -12 4q-13 8 -11 19q3 11 48 77q37 56 101 142q17 23 65 81q37 44 55 70q0 21 -7 53q-8 39 -31 122q-29 90 -29 103q0 10 9 20t23 11q10 0 23 -36q11 -29 23 -83q10 -46 19 -77q11 -43 19 -64q21 20 68 73q36 39 73 70q49 40 73 40q11 0 23.5 -14.5
t12.5 -27.5z" />
    <glyph glyph-name="Y" unicode="Y" horiz-adv-x="282" 
d="M489 602q-6 -13 -15 -13l-18 4q-12 2 -50 -36q-25 -25 -68 -73q-22 -26 -46 -64t-36 -48q8 -10 24 -27q17 -17 17 -21q0 -11 -5.5 -19t-13.5 -8q-10 0 -46 36q-16 -14 -27 -35q-12 -22 -42 -93l-32 -73l-38 -88q-40 -93 -66 -93q-7 0 -13 5t-5 12q1 10 13 39q7 14 25 53
q5 11 17 43q10 29 18 45q49 118 75 168q3 7 8 17l8.5 17t5.5 9l-69 111q-13 31 -27 80q-2 7 -6.5 26t-6.5 26.5t-7 21t-10.5 23t-13.5 18.5q-9 11 -9 17q0 8 10.5 18.5t19.5 10.5q11 0 24 -17.5t21 -44.5q8 -35 17 -70q13 -50 35 -91q29 -53 61 -88q10 10 46 66q15 24 38 49
q37 41 59 63q59 59 94 59q14 0 26 -12t8 -23z" />
    <glyph glyph-name="Z" unicode="Z" horiz-adv-x="560" 
d="M711 254q-19 -8 -33 -8q-15 0 -49 2q-80 7 -96 7q-38 0 -51 1l-68 6l-88 -56l-89 -59l-39 -26.5l-34.5 -23.5t-21.5 -15q-38 -27 -54 -41l88 11q143 18 153 20q10 1 162 26q53 8 61 8q12 0 21 -7.5t7 -16.5q-4 -17 -102 -28l-146 -24q-14 -1 -131 -21q-111 -19 -155 -19
q-17 0 -31.5 7.5t-14.5 18.5q0 17 40 51q38 32 93 65q45 27 111 72q70 48 82 60q-6 5 -41 13q-29 7 -47 7q-5 0 -32 -8t-32 -8q-20 0 -20 14t30 30q32 17 64 17q23 0 57 -8q72 -19 83 -19q40 22 96 78q73 73 73 119q0 48 -59 70q-59 23 -105 23q-66 0 -109 -4v-14
q2 -9 -12 -9q-44 0 -44 33q0 18 42.5 29t109.5 11q113 0 183 -50q47 -35 47 -90q0 -46 -71 -126q-24 -26 -65 -66q87 -10 112 -10l108 -8q23 -2 23 -23q0 -8 -6 -11z" />
    <glyph glyph-name="bracketleft" unicode="[" horiz-adv-x="320" 
d="M266 564q0 -13 -38 -30l-44 -18q-16 -6 -54 -12q-38 -4 -42 -6q0 -19 4 -52q10 -90 10 -106v-28q0 -76 -4 -104q-3 -27 -14 -72q-2 -5 -4.5 -16t-3.5 -14q-9 -32 -14 -42l56 -6q70 -8 90 -12q51 -10 48 -30q-6 -31 -42 -28q-42 20 -94 20q-20 0 -55 -4t-51 -4
q-13 1 -13 33q0 12 -1 15q0 10 4 19l19 51q12 33 19 81q8 58 8 105q0 38 -6 83l-8 61q-1 7 -6.5 34.5t-5.5 39.5q0 9 11 16.5t23 7.5q9 0 25 -0.5t23 -0.5q22 0 38 3q19 5 64 29q22 11 30 11q19 0 25 -10q3 -4 3 -14z" />
    <glyph glyph-name="bracketright" unicode="]" horiz-adv-x="362" 
d="M368 556q0 -18 -55 -156l-53 -136l-47 -128q-29 -80 -35 -98q-8 -26 -10 -29q-12 -19 -46 -19q-60 0 -81 4q-43 7 -43 28q0 32 36 32q4 0 18 -2t20 -2h16q28 0 40 4l74 202l44 118q48 128 56 156q-20 0 -47 -4q-30 -3 -33 -3q-14 0 -17 2.5t-9 16.5q-6 16 10 25t50 13
q21 0 38 1q18 1 40 1q9 0 16.5 -1.5t13 -7.5t4.5 -17z" />
    <glyph glyph-name="a" unicode="a" 
d="M493 131q-2 -6 -36 -28q-47 -31 -59 -37q-73 -41 -99 -53q-29 -13 -49 -13q-22 0 -33 12.5t-11 31.5l1 15l-44 -26q-50 -27 -58 -30q-41 -18 -67 -18q-37 0 -37 50q0 36 23 80q17 33 55 83q49 62 100 99q65 47 118 47q13 0 28 -13.5t21 -32.5q4 -19 5 -32l21 17
q21 23 31 23q7 0 13.5 -7.5t6.5 -16.5q0 -24 -18 -41l-29 -24q-22 -19 -61 -66l-43 -53q-17 -20 -17 -41q0 -10 5 -10q9 0 42 14q28 13 63 32l67 40q38 23 41 23q12 0 18 -11q3 -7 2 -14zM304 245q-1 5 -1.5 12t-1 11t-1.5 9t-2 7.5t-2.5 5t-4 4t-6.5 2.5q-28 4 -70 -26
q-42 -29 -77 -74q-41 -50 -58 -77q-31 -46 -31 -75q-1 -15 8 -15q7 0 37 14q30 13 57 30q70 41 106 86q3 4 9 19.5t8 18.5q19 28 30 48z" />
    <glyph glyph-name="b" unicode="b" horiz-adv-x="323" 
d="M535 590q0 -14 -34 -57q-28 -37 -69 -79q-34 -34 -88 -76q-64 -48 -92 -72q-26 -22 -52 -48l28 15q58 29 91 29q23 0 38.5 -14.5t15.5 -37.5q0 -34 -44 -81q-34 -36 -101 -85q-53 -38 -93 -61q-53 -29 -79 -29q-24 0 -37 17t-11 43q0 17 14 47l14 26q-7 -1 -13 -1
q-12 5 -13 20q1 5 7 15q7 9 49 42q39 33 58 45l89 110q70 83 83 97q45 50 93 98q78 79 120 72q11 -1 19 -12t7 -23zM482 566q1 3 -2 4t-5 1q-6 0 -23.5 -13t-27.5 -24q-8 -7 -41 -43q-19 -19 -22 -23q-3 -3 -41 -47l-40 -48q20 13 63 50q48 42 62 56q26 26 50 53
q26 29 27 34zM327 241q0 6 -7 11t-14 6q-16 0 -74 -32q-38 -21 -77 -55l-26 -26q-8 -10 -15.5 -16t-11.5 -7t-10.5 -1.5t-8.5 -1.5q-13 -13 -29 -56q0 -23 14 -23q10 0 36 16q34 17 42 22q7 4 56 36q43 28 82 67q43 42 43 60z" />
    <glyph glyph-name="c" unicode="c" horiz-adv-x="253" 
d="M345 322q-1 -5 -13 -31l-14 -27q0 -14 -4 -26q-14 -29 -31 -59q-19 -27 -43 -27q-7 1 -12 10t-5 19q0 6 19 40q21 37 22 45q2 12 -23 18q-40 0 -98 -53q-37 -38 -63 -82q-31 -52 -31 -86v-12q0 -29 14 -29q24 0 99 26q26 9 134 55q19 0 13 -25q-2 -8 -49 -32
q-48 -24 -90 -39q-85 -31 -120 -31q-25 0 -37.5 18t-12.5 47q0 14 1 18q8 53 43 112q30 52 73 93q31 30 69.5 49t67.5 19q24 0 37 -15l13 16q12 13 23 13q23 -6 18 -24z" />
    <glyph glyph-name="d" unicode="d" horiz-adv-x="447" 
d="M665 558q0 -19 -43 -75l-45 -58q-57 -82 -107 -132q-6 -9 -45 -62l-28 -38l-39 -60l-45 -67q-23 -33 -47 -60q-29 -32 -34 -32q-10 0 -18.5 5.5t-6.5 12.5q2 10 20 35q21 31 37 48q38 43 52 69l-54 -47q-31 -27 -66 -52q-106 -79 -140 -79q-54 0 -54 56q-1 34 32.5 93.5
t82.5 113.5q111 130 187 130q25 0 37.5 -15.5t10.5 -40.5q0 -34 -37.5 -73t-96.5 -70q-13 -7 -49 -28t-51 -28l-54 -25q-14 -39 -17 -50q0 -17 9 -19q8 0 42 20q86 53 135 96q8 6 60 55q50 46 74 70q29 29 57 60l48 74q36 54 60 85q24 33 61 73q35 38 46 38q10 1 18 -6
t8 -17zM307 307q0 7 -12 7q-50 0 -145 -113q-32 -39 -43 -57q47 20 90 48q55 34 74 51q36 31 36 64z" />
    <glyph glyph-name="e" unicode="e" horiz-adv-x="274" 
d="M344 306q-4 -31 -66 -82q-46 -39 -129 -90q-62 -37 -101 -51q-15 -20 -22 -54q0 -13 19 -13q33 0 144 58q18 9 63 40q34 24 40 24q6 1 12 -8t6 -18q1 -3 -7.5 -10.5t-27.5 -20.5q-29 -20 -72 -46q-116 -67 -172 -67q-49 0 -49 66q0 18 17 55l29 58q25 48 73 96t97 77
q56 32 105 32q20 0 32 -14t9 -32zM297 303q1 3 -1.5 4t-7.5 2q-21 0 -61 -22q-48 -26 -113 -96q-24 -27 -34 -47q34 15 69 39l43 31q40 26 70 49q33 26 35 40z" />
    <glyph glyph-name="f" unicode="f" horiz-adv-x="294" 
d="M563 594q0 -50 -91 -134q-22 -21 -98 -82l-61 -46q-32 -25 -43 -39l54 8q38 7 56 7q26 0 44.5 -9.5t15.5 -23.5q0 -7 -3 -11q-6 -10 -12 -10q-4 0 -23 4.5t-24 4.5q-73 0 -137 -22q-5 -7 -23 -53q-14 -38 -32 -75q-77 -154 -152 -203q-23 -15 -45 -25q-33 -15 -62 -15
q-23 0 -53 27t-30 45q1 10 25 14q2 1 27 -19t40 -20q34 0 76 31q30 21 55 55q11 16 44 69q25 42 40 76q28 58 34 84q-13 0 -33 -2q-45 -7 -88 -20q-18 -5 -20 -5q-24 0 -24 17q1 21 51 35l44 12q21 6 50 9q25 3 37 5l48 88q14 27 34 58q47 72 113 135q79 75 127 75
q22 2 30.5 -9.5t8.5 -35.5zM515 574q2 14 -8 14q-18 0 -53.5 -29.5t-71.5 -73.5q-58 -65 -81 -117q125 95 181 159q33 37 33 47z" />
    <glyph glyph-name="g" unicode="g" horiz-adv-x="342" 
d="M390 260q0 -14 -23 -43l-46 -53q-17 -20 -58 -56l-35 -49q32 15 42 15q13 0 13 -14l-2 -13q-1 -5 -18 -12l-21 -8q-27 -14 -29 -16q-3 -2 -13 -8t-14 -9l-33 -60q-30 -60 -49 -93q-37 -66 -81 -116q-51 -58 -81 -58q-20 0 -33.5 24.5t-13.5 58.5q0 46 42 113q17 26 43 52
q49 49 112 79l56 26l12 17q-22 -15 -62 -31q-34 -15 -48 -15q-22 0 -38 11t-16 30q0 37 44 113q45 77 84 111q52 46 101 67q40 17 77 17q25 0 47 -16.5t25 -39.5l11 -9q5 -7 5 -15zM329 276q-10 19 -36 19q-71 0 -142 -74q-35 -36 -69 -92q-35 -60 -38 -82q-2 -12 10 -12
q16 0 58 20q39 19 72 47q14 9 36 31l21 22l49 72q3 5 19 24t20 25zM123 -30q-14 -6 -30 -17q-27 -19 -36 -26q-37 -28 -52 -43q-24 -24 -41 -54q-27 -49 -27 -79q0 -36 16 -36q13 0 50 51l62 95q9 15 24 43q25 46 34 66z" />
    <glyph glyph-name="h" unicode="h" horiz-adv-x="421" 
d="M504 595q-3 -13 -34 -44l-34 -35q-19 -19 -50 -43q-32 -25 -45 -39l-106 -144q-58 -79 -89 -130q40 31 108 68q48 30 102 58q7 4 14.5 7.5l13 6t7.5 3.5q27 11 34 11q11 0 19 -11.5t5 -18.5q-1 -13 -66 -90l-85 -104q-19 -20 -26 -47l2 -6q8 0 45 15l38 15q33 13 64 28
q38 19 41 19q7 3 13.5 -4.5t6.5 -17.5q-1 -6 -40 -28q-37 -21 -73 -37q-77 -33 -116 -37q-14 -3 -24.5 12.5t-7.5 29.5q6 33 36 75q30 43 75 95l36 41q-47 -21 -116 -64q-52 -34 -74 -50q-55 -40 -103 -88q-23 -23 -34 -39q-43 -55 -61 -56q-5 -2 -10 0q-13 6 -13 18
q1 11 33 58l59 83l128 183l73 101l-15 -6q-12 0 -17 7.5t-1 17.5q2 6 20 19q61 40 76 53l51 54l41 46q12 14 39 32q26 16 39 15q12 0 18 -10t3 -22z" />
    <glyph glyph-name="i" unicode="i" horiz-adv-x="264" 
d="M306 464q2 -15 -9 -53q-10 -37 -22 -37q-18 0 -18 16v13q1 6 -5 19.5t-6 22.5q1 15 14 31t23 16q23 0 23 -28zM320 104q-2 -11 -56 -38l-57 -27q-105 -50 -149 -50q-31 0 -45 10.5t-14 39.5q0 36 40 104q17 29 48 75q21 31 58 71q35 38 42 37q24 -4 24 -28l-60 -75
q-45 -57 -67 -94q-30 -45 -36 -84q0 -10 16 -10q35 0 128 40q4 1 12 5t25 11.5l32 14.5q39 17 45 17q6 1 10 -5t4 -14z" />
    <glyph glyph-name="j" unicode="j" horiz-adv-x="245" 
d="M483 573q0 -10 -13 -32q-15 -31 -26 -33q-16 -1 -25.5 10t-9.5 29q0 12 24 30q25 19 38 16q12 -1 12 -20zM301 313q-1 -5 -64 -86q-9 -11 -59 -79l-78 -116l46 21l17.5 8l12.5 6t5 2q6 3 63 23q18 6 21 6q7 0 11.5 -7t2.5 -15q0 -4 -45 -24l-44 -20l-123 -60l-133 -167
q-32 -41 -79 -94q-82 -94 -113 -94q-24 0 -41 30t-17 67q5 44 39 86q12 14 77 77q50 47 127 90q67 37 102 45l109 156l85 111q47 59 61 59q9 0 15 -8t2 -17zM1 -45q-24 -6 -79 -39q-64 -37 -104 -77q-50 -51 -63 -68q-29 -35 -29 -55q0 -14 5.5 -29.5t13.5 -14.5q16 0 62 49
q4 4 85 98l63 75q37 45 46 61z" />
    <glyph glyph-name="k" unicode="k" horiz-adv-x="327" 
d="M449 572q0 -20 -65 -85q-7 -8 -71 -72l-26 -27q-1 -1 -40 -47l-30 -36q-17 -21 -32 -43q13 6 38 23q56 40 81 53q37 18 55 25q29 12 40 12q18 0 27 -11t6 -26q-7 -31 -40 -64q-44 -47 -64 -41q-6 1 -6 13q0 4 30 35q30 32 32 41l-3 4q-24 0 -84 -39q-51 -36 -59 -43
l-51 -41q0 -25 1 -52l3 -65q0 -18 5 -36t11 -18q15 0 66 32q18 10 50 30q29 18 33 17l7 -3q8 -7 7 -14t-31 -30q-21 -17 -56 -38q-24 -14 -50 -26q-27 -13 -39 -13q-41 0 -49 84v50v17v13q-2 12 -2 13q-21 -21 -42 -45l-48 -56l-74 -88q-19 -22 -36 -17q-17 2 -12 17
q1 17 46 71q29 34 42 54l62 82q34 43 45 71l-31 -24q-20 -14 -26 -14q-17 -3 -17 18q0 4 2 10q3 5 38 32q7 5 20 16t14 12l93 83l110 131q72 85 102 85q7 0 13 -10.5t5 -19.5z" />
    <glyph glyph-name="l" unicode="l" horiz-adv-x="312" 
d="M495 515q0 -18 -23 -50q-23 -31 -49 -51q-45 -39 -122 -88q-28 -19 -87 -49q-57 -30 -71 -39q-48 -54 -76 -125q-18 -54 -18 -79q0 -18 20 -18q26 0 84 31q18 9 65 36l96 55q50 29 54 29q7 0 12.5 -6t4.5 -13q0 -15 -115 -82q-25 -16 -97 -54q-25 -14 -63 -27t-54 -12
q-31 0 -43.5 15t-12.5 46q0 19 17 68q12 36 31 74q14 29 47 76q31 45 35 52q47 81 66 106q57 76 102 116q43 37 88 55q21 10 40 10q22 0 42 -15q27 -20 27 -61zM448 505q4 13 -5 25.5t-20 12.5q-29 3 -64 -22q-48 -34 -103 -107q-8 -10 -37 -51q-35 -51 -40 -61q18 8 65 36
q55 34 86 56q43 30 76.5 61.5t41.5 49.5z" />
    <glyph glyph-name="m" unicode="m" horiz-adv-x="469" 
d="M547 328q0 -18 -37 -69l-91 -125l-83 -122q-20 -29 -25 -30q-9 -2 -16 5t-5 15q2 17 48 86l45 66l55 78l30 43l-71 -55q-36 -28 -79 -67l-55 -52l-61 -64q-35 -33 -45 -32q-31 0 -31 25q0 20 22 32l15 4l24 33l21 30l22 31q59 91 68 113q-13 -9 -39 -25q-9 -6 -42 -32
q-73 -59 -105 -99l-34 -43l-26 -31q-41 -53 -57 -53q-8 0 -16.5 6.5t-8.5 13.5q0 2 35 46q20 25 36 47q10 14 24 37q33 54 42 67q6 11 17.5 28.5l20 30.5t11.5 20q6 11 18.5 20.5t18.5 9.5q19 0 17 -18q0 -8 -13 -30q-11 -18 -17 -30l67 48l41 28q38 24 46 24q22 0 22 -23
q-1 -3 -1 -8q-1 -5 -22 -56l-19 -41l108 82l46 37q40 29 56 29q23 0 23 -30z" />
    <glyph glyph-name="n" unicode="n" horiz-adv-x="409" 
d="M471 130q-3 -11 -58 -39q-3 -1 -55 -29q-34 -19 -94 -48q-52 -24 -65 -24q-7 -1 -14 2q-14 8 -14 21q0 3 3 18q6 21 23 53l39 76q45 80 49 98v9q-4 3 -31 -15q-13 -9 -28 -18l-52 -42q-63 -55 -104 -110q-5 -6 -11.5 -15t-10.5 -14l-7 -9l-25 -34q-25 -33 -36 -35
q-20 -5 -20 12q0 1 2 9q0 7 20 38l23 33l92 144l27 43l27 45l38 59q19 30 27 32q11 4 17 -3t4 -20q0 -7 -21 -38q-11 -16 -20 -31q-11 -18 -23 -45l-10 -20l51 39q24 17 53 29.5t42 12.5q15 2 22.5 -9.5t5.5 -25.5q-4 -21 -49 -107l-37 -76q-21 -42 -21 -46q-1 -1 -1 -4v-1
q9 0 44 16l72 34l67 34q38 20 45 20t11.5 -6t2.5 -13z" />
    <glyph glyph-name="o" unicode="o" horiz-adv-x="280" 
d="M345 132q-2 -13 -69 -53q-62 -39 -124 -66q-48 -23 -85 -35q-41 -14 -54 -12q-42 0 -37 46q0 24 18 58q15 28 38 58q16 22 50 59q15 17 53 55q1 3 1 8q3 7 31 29q31 24 54 38q48 27 73 24q47 0 47 -50q0 -30 -19 -68q-9 -18 -36 -63q-12 -19 -18 -26q-11 -14 -32 -35
l12 6q1 0 4.5 2l11 6l14.5 8q49 26 51 25q16 -3 16 -14zM301 277q0 11 -3 15q-6 10 -19 10q-21 0 -52 -22q-20 -13 -37 -32q13 -4 10 -15q0 -7 -21.5 -30t-48.5 -44q-69 -56 -75 -92q-2 -12 8 -22q7 -11 13 -15q30 7 83 52q36 30 60 58q75 79 82 137zM35 11l-6 9l-4 12
q-7 -7 -8 -15q1 -9 6 -11q4 0 12 5z" />
    <glyph glyph-name="p" unicode="p" horiz-adv-x="389" 
d="M444 288q-5 -38 -25 -79q-17 -35 -48 -72q-37 -47 -88 -91q-52 -44 -74 -44q-39 0 -57 19q-11 13 -11 25q1 8 8.5 15t14.5 7q1 0 7 -5t16.5 -9.5t20.5 -4.5q20 0 66 43q43 40 69 76q25 35 40 65q17 34 17 43q0 16 -19 17q-23 0 -60 -19q-32 -16 -60 -37q-57 -59 -71 -80
q-35 -47 -78 -112q-59 -92 -76 -115l-93 -126q-51 -64 -56 -69q-18 -19 -27 -18q-21 0 -21 25q-1 32 27 85q19 37 50 85q8 14 58 83q26 38 83 102q61 69 85 83l76 87q30 34 53 55q31 27 50 27q11 0 11 -25q36 13 76 13q15 0 26 -10.5t11 -29.5q-1 -4 -1 -9zM39 13
q-14 -14 -28 -31q-39 -45 -78 -124q8 8 28 36l22 29q51 74 56 90z" />
    <glyph glyph-name="q" unicode="q" horiz-adv-x="324" 
d="M404 132q0 -7 -32 -21q-49 -19 -62 -23l-69 -26q-6 -15 -9 -29q-6 -19 -15 -38q-19 -33 -54 -63l-50 -49q-46 -43 -75 -86l-74 -113l-24 -39q-23 -34 -38 -35q-9 0 -15.5 6t-5.5 14q0 4 18 36l68 111q24 39 87 127l67 97l35 49l-55 -42q-45 -30 -82 -30q-25 0 -25 37
q0 29 35 90q17 29 31 46l24 30l29 50q28 39 43 50q5 5 21 9q9 9 58 44q47 32 77 32q52 0 52 -41q-1 -5 -1 -10q-4 -36 -34 -86l-38 -50q6 -10 4 -18q0 -5 -7 -13l-16 -19l-13 -16q14 3 55 17q19 7 41 11q25 6 31 5q18 -2 18 -14zM321 311q0 15 -12 15q-23 0 -57 -24
q-28 -20 -61 -52q-45 -51 -63 -88l-2 -28q0 -30 22 -30q11 0 24 10l40 38l29 31q7 7 29 35q29 36 31 39q20 29 20 54zM187 17l-18 -23l-11 -18l13 15q16 16 16 26zM84 40l37 30q-16 6 -25 27q-4 12 -5 20l-29 -45q-21 -32 -21 -45l2 -7q7 -1 41 20z" />
    <glyph glyph-name="r" unicode="r" horiz-adv-x="275" 
d="M335 314q-1 -5 -25 -23l-27 -17q-18 -14 -49 -42q-32 -29 -117 -124q-57 -66 -58 -90l4 -6q15 0 65 24q9 4 55 28l81 42q46 23 50 23q13 0 13 -24q0 -4 -44 -30l-82 -45q-65 -32 -77 -39q-41 -20 -53 -21q-18 -2 -21 -2q-43 0 -39 40q0 19 22 56.5t59 78.5q22 25 46 49
l40 39.5l19 18.5q-37 -11 -50 -11q-27 0 -46 28q-6 -8 -26 -25q-17 -14 -20 -14q-10 0 -14 3.5t-3 11.5q-1 8 22 31l31 30q3 3 11.5 12.5t13 14l11.5 11t11.5 9.5t7.5 3q6 1 11 -5t5 -13q-2 -9 -12 -31q-6 -12 -6 -14q-2 -14 5 -14q9 0 36 9l30 10q33 13 66 31q29 14 41 12
q21 0 13 -25z" />
    <glyph glyph-name="s" unicode="s" horiz-adv-x="284" 
d="M333 350q-5 -24 -39 -55q-34 -29 -50 -41l-4 -22q0 -21 9 -71q13 -61 12 -83q0 -42 -89 -76q-27 -10 -68 -18q-40 -10 -57 -10h-24q-22 3 -19 21q5 20 33 20h28q15 0 61.5 13.5t60.5 21.5q30 16 31 34q0 9 -6 33q-1 6 -2.5 14t-3 13.5t-1.5 8.5q-7 37 -7 53
q-15 -14 -33 -24l-38 -23q-59 -34 -79 -39q-6 -1 -12.5 6t-4.5 13q3 7 24 21q75 48 76 49l40 29q17 15 26 26q1 12 3 17q6 13 7 15q13 34 43 66q30 31 58 31t28 -25q0 -8 -3 -18zM291 347l-1 4q-3 0 -8 -5q-22 -22 -27 -42l21 22q2 3 6 8.5t6 9.5z" />
    <glyph glyph-name="t" unicode="t" horiz-adv-x="293" 
d="M433 590q0 -10 -20 -52q-18 -38 -44 -75l-18 -24l-33 -37l-47 -48h46q58 0 64 -16q1 -3 0 -6q-8 -21 -23 -21q-6 0 -29 2t-31 2l-82 -6l-27.5 -36.5l-20.5 -26.5t-7 -10q-35 -48 -54 -80q-21 -33 -40 -78q-18 -40 -18 -62q0 -7 12 -7q23 0 135 43q23 9 106 51
q31 16 36 16q16 0 16 -24q-1 -7 -53 -35q-41 -22 -102 -50q-115 -48 -142 -48q-28 0 -45 10.5t-14 31.5q5 42 32 97q25 53 64 111l64 90q-28 0 -62 -6q-29 -4 -96 -17q-9 -2 -15 6.5t-3 16.5q4 16 55 24l71 11q47 8 85 11l41 72q26 45 53 84q34 48 72 82q34 29 48 29
q9 2 17.5 -5.5t8.5 -19.5zM372 542q-18 -12 -46 -54l-29 -41q-20 -30 -25 -43q12 10 36 38q18 21 32 42q27 38 32 58z" />
    <glyph glyph-name="u" unicode="u" horiz-adv-x="418" 
d="M489 344q0 -20 -26 -51l-33 -36l-38 -37l-42 -38l-80 -92q-34 -43 -39 -76q0 -9 2 -11q24 0 108 45l74 42q41 24 45 24q20 0 18 -18q0 -9 -38 -35q-42 -26 -71 -41q-68 -35 -89 -44q-47 -22 -67 -22q-17 -2 -27.5 6t-9.5 23q0 18 11 48l14 36q-59 -40 -89 -57
q-61 -37 -83 -37q-20 0 -29 7.5t-7 26.5q5 31 35 89q57 112 136 198q41 44 53 44q22 0 17 -20q-2 -9 -41 -50q-37 -44 -75 -102q-31 -49 -49 -84q-22 -43 -24 -58l1 -4q23 -5 148 94l62 48q45 36 68 59l75 88q19 21 41 41q20 18 30 18q19 0 19 -24z" />
    <glyph glyph-name="v" unicode="v" horiz-adv-x="323" 
d="M441 339q1 -10 -5 -20.5t-14 -10.5q-2 0 -8 2q-10 5 -12 5q-16 0 -86 -66l-114 -105q-91 -87 -95 -92q-27 -26 -34 -37l-18 -21q-11 -9 -22 -9q-23 -4 -23 35q0 2 2 32q11 83 49 171l16 36q15 31 34 58q2 2 12.5 15.5t15.5 21.5q17 20 30 19q17 0 17 -27q-2 -4 -24 -33
q-14 -16 -32 -51q-7 -14 -19 -42q-16 -37 -29 -76l-14 -56l-1 -14l114 110l65 60q70 64 126 104q31 22 43 22q10 0 18 -9t8 -22z" />
    <glyph glyph-name="w" unicode="w" horiz-adv-x="535" 
d="M675 324q1 -4 -15.5 -17.5t-50.5 -37.5l-84 -58l-83 -58q-55 -38 -85 -61l-100 -78q-43 -33 -56 -33q-26 0 -26 24q5 48 23 85l29 53l-86 -71q-79 -60 -87 -65q-23 -14 -34 -14q-12 0 -19.5 9.5t-7.5 21.5q0 41 51 134q15 28 46 66l32 39q2 2 19.5 23l26.5 32
q26 29 35 29q9 -2 17 -13q5 -8 5 -12q-2 -8 -8 -14l-32 -34l-78 -100q-19 -28 -44 -76q-18 -38 -18 -46q5 -2 32 21l53 43q61 47 88 71l25 21.5t28 25.5l38 30l20 17l27 26l15 15.5l14.5 15.5l12.5 13t11.5 11t9.5 7.5t8.5 5t5.5 0.5q11 0 16 -4t5 -10v-14q0 -17 -43 -54
l-40 -33l-46 -51q-42 -48 -73 -109l-24 -53q26 17 58 41l70 54l77 56l77 52l97 68q41 28 49 31q9 2 14 -5t5 -20z" />
    <glyph glyph-name="x" unicode="x" horiz-adv-x="288" 
d="M377 288q0 -9 -15 -18q-6 -2 -9.5 -2t-7.5 1.5t-5 1.5q-8 0 -34.5 -18t-48.5 -40l-85 -84q5 -26 29 -55l24 -23q11 -9 23.5 -15t16.5 -8.5t2 -7.5q0 -11 -7.5 -18.5t-14.5 -5.5q-29 2 -71 39q-27 26 -40 55l-88 -87l-66 -69q-34 -34 -41 -34q-11 -2 -18 8q-4 4 -4 11
q0 8 56 67q41 43 54 58l49 55l36 43q-5 26 -11 78q0 43 2 52q-7 -6 -12 -4q-9 1 -14 6t-3 12q8 36 33 67q22 28 35 28q10 0 16.5 -6.5t4.5 -18.5q0 -2 -4.5 -13t-8.5 -25t-4 -26q-1 -4 -1 -21q0 -60 10 -93q66 56 81 70q22 21 60 45t54 23q27 0 27 -28z" />
    <glyph glyph-name="y" unicode="y" horiz-adv-x="345" 
d="M411 337q-1 -8 -23 -34l-45 -52l-64 -67l-35 -41q-22 -26 -37 -50q-13 -17 -31 -48l-22 -41q15 7 80 42l53 29q99 49 107 51q7 1 12.5 -6t3.5 -15q0 -9 -71 -48q-17 -10 -106 -57t-125 -70l-34 -55l-20 -33l-40 -72l-55 -94l-72 -120q-42 -62 -76 -62q-19 0 -36 29
q-18 28 -18 62q1 5 1 12q0 23 16 71q17 52 43.5 91.5t78.5 81.5l55 43q16 13 58 38l60 34l21 27l18 26q-38 -27 -57 -27q-21 0 -34.5 15.5t-13.5 38.5q0 15 18 65q17 44 42 95q27 56 57 99q32 45 39 45q14 0 21 -5t4 -16l-53 -93q-41 -71 -67 -138q-13 -33 -13 -48
q-2 -12 9 -14q17 0 93 85q65 74 86 95q13 22 33 47q6 9 35 43q57 72 83 66q11 -1 17 -9.5t4 -15.5zM-29 -222l53 101q-10 -3 -30 -16q-4 -2 -35 -25q-34 -25 -64 -55q-34 -34 -49 -59q-31 -58 -43 -120q-1 -7 -1 -17q0 -47 16 -47q13 0 61 81l48 80q7 11 44 77z" />
    <glyph glyph-name="z" unicode="z" horiz-adv-x="386" 
d="M456 162q0 -5 -12 -10.5t-26 -5.5l-80 2q-24 0 -56 -3q-67 -7 -78 -7q-59 -34 -71 -42q-33 -22 -59 -41q-29 -23 -34 -35q0 -8 28 -8q13 0 70 12q53 11 105 26q57 18 91 26q44 12 55 12q22 0 19 -20q-1 -8 -153 -59q-52 -17 -90 -25q-65 -16 -111 -16q-28 0 -50.5 15
t-19.5 33q3 17 26 40l27 24q8 7 23 16q7 4 21 14l-32 -4q-18 0 -18 16v3v3t0.5 3.5t2.5 4t5 3.5t7.5 4.5t11.5 4.5q16 5 63 12.5t74 15.5q14 7 42 25q18 11 69 52l47 40q13 12 15 17q1 7 -8 10t-27 3q-19 0 -74 -5q-70 -5 -158 -26q-27 -7 -46 -11q-13 -2 -20.5 5t-4.5 15
q6 31 144 51q91 14 165 14q37 0 61 -13t20 -37q-1 -31 -81 -91q-36 -30 -52 -41q10 0 73 3l81 -2q18 0 15 -23z" />
    <glyph glyph-name="braceleft" unicode="{" horiz-adv-x="302" 
d="M316 -29q-2 -14 -30 -23q-15 -4 -69 -15q-50 -10 -106 -10q-30 0 -61 19q-32 18 -32 40q0 13 26 91q17 47 23 75q7 30 12 77q-18 -8 -42 -8q-18 -2 -32 7.5t-11 24.5q4 25 63 40l34 4q16 31 16 73q0 20 -5 62q-4 33 -4 42q0 70 22 105q28 51 80 51q19 0 45 -19
q27 -19 27 -37q0 -14 -23 -19q-5 -1 -15 7q-22 22 -36 22q-21 0 -36 -20q-17 -29 -17 -66q0 -10 2 -40q6 -69 6 -88q0 -64 -23 -102v-24v-18q-2 -18 -2 -20q0 -14 -6 -34q-4 -18 -9 -30l-24 -79q-14 -47 -14 -52q0 -20 6 -26q10 -10 43 -10q55 0 126 13q52 9 57 9q4 0 7 -8
t2 -14z" />
    <glyph glyph-name="braceright" unicode="}" horiz-adv-x="304" 
d="M297 333q1 -13 -14 -30l-26 -22q-3 -2 -16 -11.5t-19 -14.5l7 -31q1 -2 5.5 -12l9.5 -22t7 -22q16 -63 16 -90q0 -38 -21 -52q-14 -10 -50 -16q-17 -3 -42.5 -6.5t-44 -6.5t-32.5 -7l-18 -12q-13 0 -21 7.5t-5 20.5q4 18 34 28q13 4 54 12l46 6q33 6 44 16q8 6 8 28
q0 12 -3 23q-7 18 -8 25q-2 12 -13 38q-17 45 -17 73q-12 7 -23 17q-15 15 -15 42q0 10 2 21t8 26l9 22t12.5 27t11.5 23q28 62 28 89q0 28 -10.5 41t-35.5 13q-15 0 -32 -11q-10 -6 -28 -26q-11 -22 -17 -30t-14 -7q-18 2 -18 16q0 12 6 25q0 1 2.5 5.5l5.5 10t7.5 12
t12.5 14.5t18 14q33 21 64 21q39 0 63 -28q20 -23 20 -50q0 -64 -36 -138q-3 -7 -10 -21.5t-11.5 -25t-6.5 -17.5v-18q24 14 42 21q27 12 40 12q24 0 24 -22z" />
    <glyph glyph-name="sterling" unicode="&#xa3;" horiz-adv-x="524" 
d="M532 604q-3 -18 -16 -28q-4 -4 -12 -4t-24 12t-28 12q-26 0 -52 -24q-14 -12 -50 -74l-28 -49l-47 -89q133 0 133 -24q0 -27 -20 -32q-16 -2 -44 -2h-11q-51 0 -78 1h-12q-27 -48 -67 -108l-102 -154q19 -2 71 23q63 29 98 35q22 2 26 2q19 0 143 -19q27 0 22 -32
q-1 -6 -14 -11t-28 -3q-11 0 -59 8t-70 8q-16 0 -22 -1q-11 -2 -96 -43q-37 -18 -79 -18q-33 0 -47.5 3.5t-23.5 17.5q0 9 23 43l47 66q89 131 121 184h-32q-5 0 -56 -3q-32 -6 -33 32q0 27 57 27h26l72 1q26 42 48 87l50 101q14 28 49 60q43 39 73 39t61 -16
q17 -8 24.5 -14.5t6.5 -13.5z" />
    <glyph glyph-name="section" unicode="&#xa7;" horiz-adv-x="465" 
d="M448 537q-18 -40 -35 -40q-7 0 -13 9q-4 1 -0.5 17.5t3.5 17.5q0 7 6 27.5t4 27.5q0 46 -34 62q-25 9 -44 9q-26 0 -49 -14q-22 -13 -37.5 -45t-15.5 -65q0 -48 46 -114q36 -51 43 -66q38 -69 46 -145q0 -53 -14 -81q-3 -4 -9 -4q-7 0 -13 3q-11 2 -13 28q-2 34 -2 48v11
q-7 55 -34 108q-75 114 -85 140q-14 39 -14 76q0 43 21 90q40 84 112 84q50 1 99 -37t46 -89q0 -28 -14 -58zM338 63q14 -39 14 -76q0 -43 -21 -90q-40 -84 -112 -84q-31 0 -66 16.5t-55 42.5q-24 30 -24 67q0 28 14 58q18 40 35 40q7 0 13 -9q4 -1 0.5 -17.5t-3.5 -17.5
q0 -7 -6 -27.5t-4 -27.5q0 -46 34 -62q25 -9 44 -9q26 0 46 12q25 15 40.5 47t15.5 65q0 48 -46 114q-36 51 -43 66q-37 67 -44 148q0 53 12 78q3 4 9 4q7 0 13 -3q10 -2 12.5 -20t2.5 -67q6 -53 34 -108q75 -114 85 -140z" />
    <glyph glyph-name="copyright" unicode="&#xa9;" horiz-adv-x="603" 
d="M576 426q0 -75 -58 -157q-50 -69 -141 -144q-81 -66 -193 -103q-96 -32 -166 -32q-15 0 -27.5 15t-10.5 33q0 22 21 60t53 70q13 52 31 105q27 77 59 139q90 171 170 212l44 22q36 16 76 16q82 0 117 -78q25 -56 25 -158zM531 447q0 71 -18 111q-25 55 -82 55
q-25 0 -63 -18t-54 -45q5 -14 4 -24q0 -17 -62 -103q-37 -51 -52 -75l-49 -83l-39 -71q-3 -15 7 -34q11 -20 11 -22q2 -6 -7.5 -13.5t-19.5 -7.5q-5 0 -18 3.5t-15 3.5l-24 -40q-11 -20 -6 -28t12 -8q37 0 128 32q113 40 179 97q75 65 119 130q49 73 49 140zM444 298
q0 -4 -22 -17q-6 -4 -42 -23q-69 -34 -121 -34q-25 0 -38.5 12.5t-13.5 33.5q0 18 22 61q24 46 47 69l52 51q3 4 27 14q25 13 43 15q46 0 46 -38q0 -44 -31 -71q-31 -26 -63 -26q-28 0 -45 13l-21 -22q-5 -6 -13 -19q-12 -25 -13 -41l4 -5q21 0 48 10q54 18 75 27
q37 17 40 17q9 2 14 -4.5t5 -22.5zM393 416q-6 3 -18 -5.5t-19 -18.5l3 -2q6 0 21 11q15 12 13 15z" />
    <glyph glyph-name="guillemotleft" unicode="&#xab;" horiz-adv-x="670" 
d="M611 294q0 -11 -33 -29l-58 -32t-44 -24q-23 -14 -31 -21q8 -4 34 -10l66 -14q26 -8 26 -21t-12.5 -23.5t-27.5 -10.5l-116 24l-59 10q-31 9 -31 29q0 12 4 15q9 4 27 14l110 58q7 3 50 30q53 32 64 32q31 0 31 -27zM379 310q0 -10 -24 -31q-16 -14 -94 -68l-39 -27
q-32 -21 -66 -36l68 -15q9 -1 20.5 -2.5t18 -2.5t14.5 -2t12 -3t8 -4.5t5.5 -6t1.5 -8.5q0 -37 -34 -37q-28 0 -70 14l-122 20q-16 5 -28.5 15t-12.5 16q0 11 86 58q50 26 82 47l87 65q47 37 62 37q9 0 17 -9t8 -20z" />
    <glyph glyph-name="registered" unicode="&#xae;" horiz-adv-x="603" 
d="M576 426q0 -75 -58 -157q-50 -69 -141 -144q-81 -66 -193 -103q-96 -32 -166 -32q-15 0 -27.5 15t-10.5 33q0 22 21 60t53 70q13 52 31 105q27 77 59 139q90 171 170 212l44 22q36 16 76 16q82 0 117 -78q25 -56 25 -158zM531 447q0 71 -18 111q-25 55 -82 55
q-25 0 -63 -18t-54 -45q5 -14 4 -24q0 -17 -62 -103q-37 -51 -52 -75l-49 -83l-39 -71q-3 -15 7 -34q11 -20 11 -22q2 -6 -7.5 -13.5t-19.5 -7.5q-5 0 -18 3.5t-15 3.5l-24 -40q-11 -20 -6 -28t12 -8q37 0 128 32q113 40 179 97q75 65 119 130q49 73 49 140zM464 438
q-1 -6 -37 -30q-22 -17 -30 -25q-20 -18 -38 -38l-46 -48q-24 -25 -24 -36l2 -4q7 0 35 16q26 15 29 18l40 21q42 21 46 21q17 0 17 -23q0 -5 -28 -23q-30 -20 -54 -32q-73 -39 -92 -41q-42 0 -42 35q0 32 55 91q15 17 43 45h-6q-11 0 -27 12q-23 -20 -29 -20q-8 0 -13.5 6
t-5.5 13q-2 10 17 26l19 18q27 34 39 34q7 2 14 -4.5t7 -14.5q-1 -8 -15 -26l2 -3q7 0 14 3l20 9l41 18q21 10 30 9q18 0 18 -18q0 -7 -1 -9z" />
    <glyph glyph-name="guillemotright" unicode="&#xbb;" horiz-adv-x="756" 
d="M687 284q0 -24 -37 -48l-77 -45q-165 -110 -181 -110q-12 0 -18 9t-3 22q2 7 44 33l141 91q29 19 47 36q-20 14 -37 22q-19 9 -77 33q-114 47 -114 73q0 7 13 18t24 11q13 0 54 -25q27 -17 58 -33q104 -49 131 -63q32 -17 32 -24zM466 284q-10 -22 -23 -35
q-38 -39 -117 -62q-33 -8 -88 -18q-56 -8 -96 -8q-14 0 -23.5 11t-9.5 26q0 21 51 21l54 -2q47 0 83 10q49 13 86 43q-17 10 -52 26q-5 2 -45 17q-24 7 -68 22q-21 7 -21 29q0 20 29 25q14 2 46 -11q5 -1 76 -33q10 -3 29 -15q24 -12 31 -13q3 0 11 1t12.5 1.5t8.5 -0.5
q11 -6 18.5 -16.5t7.5 -18.5z" />
    <glyph glyph-name="onequarter" unicode="&#xbc;" horiz-adv-x="516" 
d="M334 603q0 -12 -37 -57q-24 -27 -60 -54l-33 -46q-37 -56 -40 -62q-44 -96 -52 -105q-5 -5 -9 -5q-10 0 -16 3q-13 6 -13 18q0 11 18 46q7 15 20 33q13 21 24 50q-65 -44 -72 -44q-8 0 -16 10.5t-8 18.5q0 11 42 32q5 3 7 4q49 25 108 70l19 24l29 37q26 30 31 35
q16 17 29 19q12 2 20.5 -6.5t8.5 -20.5zM469 376q-2 -8 -23 -41q-24 -38 -52 -77l-65 -98l19 -1h24l28 43q13 21 19 27q13 15 26 15q8 0 13.5 -9t5.5 -21l-14 -23l-33.5 -52t-30.5 -49q-7 -13 -20.5 -40.5t-16.5 -32.5q-12 -31 -13 -34q-2 -5 -6 -8t-9 -5.5t-6 -2.5
q-26 13 -27 18q0 12 13 39q6 14 22 41l13 25l10 23l-20 2l-33 -3l-41 -37q-30 -33 -48 -33q-29 0 -29 27q0 12 13 25q12 12 28 26q11 9 40 25l92 128q9 12 42 63q42 65 57 65q28 0 22 -25zM446 487q0 -10 -29 -45l-30 -34l-133 -157q-22 -29 -48 -57l-78 -94
q-34 -42 -36 -57q0 -5 1.5 -11.5t1.5 -8.5q-6 -18 -29 -18q-10 0 -21.5 7.5t-11.5 23.5q0 27 58 97l126 148l70 87l65 74l30 34q32 38 40 38q10 0 17 -8t7 -19z" />
    <glyph glyph-name="onehalf" unicode="&#xbd;" horiz-adv-x="528" 
d="M327 586q0 -11 -37 -58q-21 -24 -61 -53q-21 -29 -33 -49q-10 -15 -38 -62l-31 -65q-19 -41 -32 -43q-11 0 -19.5 6t-8.5 15t12 34t26 45q5 8 15 29l9 19l-44 -28q-23 -14 -28 -14q-8 0 -16 10.5t-8 17.5q0 11 42 32q5 3 7 4q52 27 107 70l49 61q22 27 31 36q16 17 29 19
q11 0 20 -8t9 -18zM436 477q0 -10 -29 -45l-30 -34l-133 -157q-22 -29 -48 -57l-78 -94q-34 -42 -36 -57q0 -5 1.5 -11.5t1.5 -8.5q-6 -18 -29 -18q-10 0 -21.5 7.5t-11.5 23.5q0 27 58 97l126 148l70 87l65 74l30 34q32 38 40 38q10 0 17 -8t7 -19zM485 253
q0 -71 -105 -134q-72 -41 -86 -52q-22 -17 -34 -32q37 8 67 8q27 0 67 -16q9 6 20 20q26 35 33 35q20 0 20 -22q0 -20 -30 -52t-49 -32q-2 0 -25 12.5t-40 12.5q-29 0 -103 -30q-12 0 -20.5 8.5t-8.5 16.5q0 24 22 52q15 20 54 52q36 28 80 49q42 19 66.5 44t24.5 49
q0 17 -8 29.5t-22 12.5q-39 0 -54 -52l-3 -19q-8 -23 -23 -23q-7 0 -16 10.5t-9 19.5q0 42 37 73q38 33 71 33t55 -28q19 -22 19 -45z" />
    <glyph glyph-name="threequarters" unicode="&#xbe;" horiz-adv-x="540" 
d="M315 583q0 -14 -14 -30l-37 -33l-42 -40q28 -22 28 -73q0 -45 -46 -81q-46 -35 -100 -35q-38 0 -61.5 14.5t-23.5 37.5q0 10 11.5 19.5t21.5 9.5q18 -2 25 -15l6 -17q13 -8 20 -7q36 0 67 22q33 23 33 54q0 33 -31 46l-31 -17q-23 -15 -33 -15t-17 8t-7 18q0 14 26 31
q14 9 39 19q4 2 11 3.5t13.5 2.5t7.5 1q26 19 37 29q19 16 33 32q-15 4 -30 4q-8 0 -47 -3q-26 0 -26 18q0 20 15 25.5t55 5.5q29 0 56 -5q41 -9 41 -29zM476 477q0 -10 -29 -45l-30 -34l-133 -157q-22 -29 -48 -57l-78 -94q-34 -42 -36 -57q0 -5 1.5 -11.5t1.5 -8.5
q-6 -18 -29 -18q-10 0 -21.5 7.5t-11.5 23.5q0 27 58 97l126 148l70 87l65 74l30 34q32 38 40 38q10 0 17 -8t7 -19zM505 343q-2 -14 -75 -117l-65 -98l19 -2q20 0 23 1l28 43q11 16 20 26q15 16 25 16q9 0 14 -9t5 -21q0 -4 -24 -41l-54 -83q-22 -41 -35 -73
q-11 -27 -14 -32q-7 -13 -24 -16q-22 7 -23 11q-1 2 -1 4q0 17 34 81l24 48l-21 2q-16 0 -33 -5l-21 -16q-6 -5 -20 -20q-30 -32 -48 -32q-12 0 -20 7t-8 19t13 26q9 11 27 26q6 5 41 24q13 22 49 71l42 58l10.5 14.5l16 22.5t16.5 25q44 65 57 65q10 0 17 -7t5 -18z" />
    <glyph glyph-name="germandbls" unicode="&#xdf;" horiz-adv-x="522" 
d="M532 542l-1 -9q0 -17 -15 -44q-9 -19 -38 -66l-28 -39l-24 -28q-29 -36 -52 -56q31 -9 49 -27q28 -25 28 -79q0 -37 -29.5 -82t-73.5 -82q-33 -27 -67 -37q-31 -12 -65 -12q-30 0 -58 16t-28 33q1 6 4 16q6 9 16 10q12 0 31 -16q20 -14 40 -14q32 0 69 25l41 27
q23 13 49 56q25 37 25 60t-13 40q-18 23 -46 23q-18 0 -37 -13l-19 -19q-11 -8 -25 -8q-1 1 -3 1q-10 4 -14 7q-8 11 -8 23q0 17 13 33.5t25 19.5q20 5 35 5q42 31 77 73l33 40l26 40l24 38q12 26 12 32l-5 4l-7 2q-6 0 -36 -11l-40 -17l-20.5 -8.5t-19 -9.5t-11.5 -6
l-40 -26l-28 -17q-20 -14 -30 -23q-29 -23 -41 -37q-53 -61 -81 -180q-62 -248 -87 -324q-66 -205 -178 -205q-33 0 -71 35q-39 34 -63 78l-21 39q-17 36 -17 50l2 10q2 5 3 7t3.5 4t6.5 2l7 -4q7 -4 12 -13l20 -34l25 -44q16 -34 44 -57q26 -26 56 -26q56 0 98 92
q9 21 20 53l18 48q7 16 20 70l34 138l25 99q20 71 57 146q13 27 58 69q35 30 73 56q49 33 113 62l58 22q30 11 50 11q40 0 40 -42z" />
    <glyph glyph-name="agrave" unicode="&#xe0;" 
d="M493 131q-2 -6 -36 -28q-47 -31 -59 -37q-73 -41 -99 -53q-29 -13 -49 -13q-22 0 -33 12.5t-11 31.5l1 15l-44 -26q-50 -27 -58 -30q-41 -18 -67 -18q-37 0 -37 50q0 36 23 80q17 33 55 83q49 62 100 99q65 47 118 47q13 0 28 -13.5t21 -32.5q4 -19 5 -32l21 17
q21 23 31 23q7 0 13.5 -7.5t6.5 -16.5q0 -24 -18 -41l-29 -24q-22 -19 -61 -66l-43 -53q-17 -20 -17 -41q0 -10 5 -10q9 0 42 14q28 13 63 32l67 40q38 23 41 23q12 0 18 -11q3 -7 2 -14zM304 245q-1 5 -1.5 12t-1 11t-1.5 9t-2 7.5t-2.5 5t-4 4t-6.5 2.5q-28 4 -70 -26
q-42 -29 -77 -74q-41 -50 -58 -77q-31 -46 -31 -75q-1 -15 8 -15q7 0 37 14q30 13 57 30q70 41 106 86q3 4 9 19.5t8 18.5q19 28 30 48zM287 424q-11 -11 -25 -11q-6 0 -10 3q-10 6 -61 64q-29 33 -50 54q-2 2 -24.5 22.5t-27.5 27.5q-3 4 -3 9q0 13 13 23q7 7 15 7
q10 0 22 -9t39 -38l62 -64q53 -59 53 -80q0 -5 -3 -8z" />
    <glyph glyph-name="aacute" unicode="&#xe1;" 
d="M493 131q-2 -6 -36 -28q-47 -31 -59 -37q-73 -41 -99 -53q-29 -13 -49 -13q-22 0 -33 12.5t-11 31.5l1 15l-44 -26q-50 -27 -58 -30q-41 -18 -67 -18q-37 0 -37 50q0 36 23 80q17 33 55 83q49 62 100 99q65 47 118 47q13 0 28 -13.5t21 -32.5q4 -19 5 -32l21 17
q21 23 31 23q7 0 13.5 -7.5t6.5 -16.5q0 -24 -18 -41l-29 -24q-22 -19 -61 -66l-43 -53q-17 -20 -17 -41q0 -10 5 -10q9 0 42 14q28 13 63 32l67 40q38 23 41 23q12 0 18 -11q3 -7 2 -14zM304 245q-1 5 -1.5 12t-1 11t-1.5 9t-2 7.5t-2.5 5t-4 4t-6.5 2.5q-28 4 -70 -26
q-42 -29 -77 -74q-41 -50 -58 -77q-31 -46 -31 -75q-1 -15 8 -15q7 0 37 14q30 13 57 30q70 41 106 86q3 4 9 19.5t8 18.5q19 28 30 48zM510 658q-2 -13 -53 -56q-29 -24 -47 -46q-25 -27 -42 -56q-18 -30 -38 -60l-2 -3l-3.5 -10t-5.5 -14q-6 -15 -17 -13q-19 3 -22 24
q-5 24 24 71q21 37 62 87q28 34 65 68t49 34t21 -7.5t9 -18.5z" />
    <glyph glyph-name="acircumflex" unicode="&#xe2;" 
d="M493 131q-2 -6 -36 -28q-47 -31 -59 -37q-73 -41 -99 -53q-29 -13 -49 -13q-22 0 -33 12.5t-11 31.5l1 15l-44 -26q-50 -27 -58 -30q-41 -18 -67 -18q-37 0 -37 50q0 36 23 80q17 33 55 83q49 62 100 99q65 47 118 47q13 0 28 -13.5t21 -32.5q4 -19 5 -32l21 17
q21 23 31 23q7 0 13.5 -7.5t6.5 -16.5q0 -24 -18 -41l-29 -24q-22 -19 -61 -66l-43 -53q-17 -20 -17 -41q0 -10 5 -10q9 0 42 14q28 13 63 32l67 40q38 23 41 23q12 0 18 -11q3 -7 2 -14zM304 245q-1 5 -1.5 12t-1 11t-1.5 9t-2 7.5t-2.5 5t-4 4t-6.5 2.5q-28 4 -70 -26
q-42 -29 -77 -74q-41 -50 -58 -77q-31 -46 -31 -75q-1 -15 8 -15q7 0 37 14q30 13 57 30q70 41 106 86q3 4 9 19.5t8 18.5q19 28 30 48zM368 435q1 -14 -9.5 -21t-22.5 -5q-16 3 -27 35q-15 47 -28 69l-10 -21l-19 -44l-12 -30q-11 -23 -25 -21q-12 2 -20.5 16.5t-6.5 28.5
q0 3 16 41q13 31 29 73l20 52q14 29 33 26q10 -1 14 -7l9 -29q25 -64 29 -73q30 -72 30 -90z" />
    <glyph glyph-name="atilde" unicode="&#xe3;" 
d="M493 131q-2 -6 -36 -28q-47 -31 -59 -37q-73 -41 -99 -53q-29 -13 -49 -13q-22 0 -33 12.5t-11 31.5l1 15l-44 -26q-50 -27 -58 -30q-41 -18 -67 -18q-37 0 -37 50q0 36 23 80q17 33 55 83q49 62 100 99q65 47 118 47q13 0 28 -13.5t21 -32.5q4 -19 5 -32l21 17
q21 23 31 23q7 0 13.5 -7.5t6.5 -16.5q0 -24 -18 -41l-29 -24q-22 -19 -61 -66l-43 -53q-17 -20 -17 -41q0 -10 5 -10q9 0 42 14q28 13 63 32l67 40q38 23 41 23q12 0 18 -11q3 -7 2 -14zM304 245q-1 5 -1.5 12t-1 11t-1.5 9t-2 7.5t-2.5 5t-4 4t-6.5 2.5q-28 4 -70 -26
q-42 -29 -77 -74q-41 -50 -58 -77q-31 -46 -31 -75q-1 -15 8 -15q7 0 37 14q30 13 57 30q70 41 106 86q3 4 9 19.5t8 18.5q19 28 30 48zM504 468q-4 -18 -43 -40q-38 -20 -73 -20q-9 0 -35 26q-17 17 -27 25q-37 28 -40 31q-13 10 -21 10q-20 0 -40 -11q-16 -9 -37 -27
q-35 -29 -50 -64q-1 -2 -2 -6t-2 -6l-2.5 -5t-3 -5t-3.5 -4t-4 -3t-5 -1q-26 0 -26 36q0 11 22 42q22 30 50 54q68 54 114 54q20 0 45 -21q9 -9 29 -25q9 -6 31 -30q17 -20 21 -18q30 3 84 26q24 0 18 -18z" />
    <glyph glyph-name="adieresis" unicode="&#xe4;" 
d="M493 131q-2 -6 -36 -28q-47 -31 -59 -37q-73 -41 -99 -53q-29 -13 -49 -13q-22 0 -33 12.5t-11 31.5l1 15l-44 -26q-50 -27 -58 -30q-41 -18 -67 -18q-37 0 -37 50q0 36 23 80q17 33 55 83q49 62 100 99q65 47 118 47q13 0 28 -13.5t21 -32.5q4 -19 5 -32l21 17
q21 23 31 23q7 0 13.5 -7.5t6.5 -16.5q0 -24 -18 -41l-29 -24q-22 -19 -61 -66l-43 -53q-17 -20 -17 -41q0 -10 5 -10q9 0 42 14q28 13 63 32l67 40q38 23 41 23q12 0 18 -11q3 -7 2 -14zM304 245q-1 5 -1.5 12t-1 11t-1.5 9t-2 7.5t-2.5 5t-4 4t-6.5 2.5q-28 4 -70 -26
q-42 -29 -77 -74q-41 -50 -58 -77q-31 -46 -31 -75q-1 -15 8 -15q7 0 37 14q30 13 57 30q70 41 106 86q3 4 9 19.5t8 18.5q19 28 30 48zM428 483q2 -18 -10 -33t-30 -15q-36 0 -41 30q-2 17 13 36t33 16q31 -3 35 -34zM208 465q2 -18 -9 -31t-29 -13t-29 11t-11 28
q0 15 10.5 25.5t25.5 10.5q14 2 27 -7t15 -24z" />
    <glyph glyph-name="aring" unicode="&#xe5;" 
d="M493 131q-2 -6 -36 -28q-47 -31 -59 -37q-73 -41 -99 -53q-29 -13 -49 -13q-22 0 -33 12.5t-11 31.5l1 15l-44 -26q-50 -27 -58 -30q-41 -18 -67 -18q-37 0 -37 50q0 36 23 80q17 33 55 83q49 62 100 99q65 47 118 47q13 0 28 -13.5t21 -32.5q4 -19 5 -32l21 17
q21 23 31 23q7 0 13.5 -7.5t6.5 -16.5q0 -24 -18 -41l-29 -24q-22 -19 -61 -66l-43 -53q-17 -20 -17 -41q0 -10 5 -10q9 0 42 14q28 13 63 32l67 40q38 23 41 23q12 0 18 -11q3 -7 2 -14zM304 245q-1 5 -1.5 12t-1 11t-1.5 9t-2 7.5t-2.5 5t-4 4t-6.5 2.5q-28 4 -70 -26
q-42 -29 -77 -74q-41 -50 -58 -77q-31 -46 -31 -75q-1 -15 8 -15q7 0 37 14q30 13 57 30q70 41 106 86q3 4 9 19.5t8 18.5q19 28 30 48zM463 553q0 -42 -58 -94q-56 -52 -102 -52q-34 0 -48 23q-10 16 -10 46q0 10 11 41q12 31 26 31q20 0 25 -5t5 -22q1 -6 -4 -28
q-4 -17 -4 -24l7 -4q21 0 56 31q36 32 36 51q-8 0 -34 -13q-26 -14 -32 -12t-10 6q-9 10 -4 19q9 18 38 38t51 20t36.5 -13.5t14.5 -38.5z" />
    <glyph glyph-name="ae" unicode="&#xe6;" horiz-adv-x="604" 
d="M584 286q-4 -31 -66 -82q-46 -39 -129 -90q-86 -50 -109 -58q-3 -5 -14 -47q0 -13 19 -13q33 0 144 58q18 9 63 40q34 24 40 24q6 1 12 -8t6 -18q1 -3 -7.5 -10.5t-27.5 -20.5q-29 -20 -72 -46q-116 -67 -172 -67q-49 0 -49 66q0 18 18 56q-18 -11 -46 -24
q-29 -13 -31 -13q-90 -48 -125 -48q-37 0 -37 50q0 36 23 80q17 33 55 83q49 62 100 99q65 47 118 47q21 1 39.5 -27.5t14.5 -50.5v-22q-1 -6 -1 -13q48 48 93 73q49 28 100 28q20 0 32 -14t9 -32zM537 283q1 3 -1.5 4t-7.5 2q-21 0 -61 -22q-48 -26 -113 -96
q-24 -27 -34 -47q34 15 69 39l43 31q40 26 70 49q33 26 35 40zM304 245q-1 5 -1.5 12t-1 11t-1.5 9t-2 7.5t-2.5 5t-4 4t-6.5 2.5q-28 4 -70 -26q-42 -29 -77 -74q-41 -50 -58 -77q-31 -46 -31 -75q-1 -15 8 -15q7 0 37 14q30 13 57 30q70 41 106 86q3 4 9 19.5t8 18.5
q19 28 30 48z" />
    <glyph glyph-name="ccedilla" unicode="&#xe7;" horiz-adv-x="253" 
d="M104 -35l-2 22l-47 -11h-5q-24 0 -37 18t-13 47l1 18q6 51 43 112q30 54 73 93q29 28 69 48q42 20 68 20q24 0 37 -15l13 16q11 11 23 13q9 -1 14.5 -8t3.5 -16q-1 -7 -13 -31l-14 -27q0 -14 -4 -26q-9 -22 -31 -59q-19 -27 -43 -27q-6 0 -11.5 10t-5.5 19q0 7 19 39
t22 46q0 6 -4 9.5t-19 8.5q-39 0 -98 -53q-38 -38 -63 -82q-31 -52 -31 -86v-12q0 -16 2.5 -21.5t11.5 -7.5l30 5q20 3 51 13q3 1 81 32l71 31q9 0 11 -4.5t2 -20.5q0 -7 -49 -32q-48 -24 -90 -39q0 -1 -7 -14.5t-7 -18.5q0 -15 28 -58t28 -74q0 -37 -34 -62
q-30 -23 -76 -27q-3 -1 -15 -1q-30 0 -54.5 8.5t-24.5 19.5q0 21 11 21l36 -2q29 -3 40 -3q29 0 52 14.5t23 37.5q0 17 -33 59t-33 58z" />
    <glyph glyph-name="egrave" unicode="&#xe8;" horiz-adv-x="274" 
d="M344 306q-4 -31 -66 -82q-46 -39 -129 -90q-62 -37 -101 -51q-15 -20 -22 -54q0 -13 19 -13q33 0 144 58q18 9 63 40q34 24 40 24q6 1 12 -8t6 -18q1 -3 -7.5 -10.5t-27.5 -20.5q-29 -20 -72 -46q-116 -67 -172 -67q-49 0 -49 66q0 18 17 55l29 58q25 48 73 96t97 77
q56 32 105 32q20 0 32 -14t9 -32zM297 303q1 3 -1.5 4t-7.5 2q-21 0 -61 -22q-48 -26 -113 -96q-24 -27 -34 -47q34 15 69 39l43 31q40 26 70 49q33 26 35 40zM343 428q-11 -11 -25 -11q-6 0 -10 3q-10 6 -61 64q-29 33 -50 54q-2 2 -24.5 22.5t-27.5 27.5q-3 4 -3 9
q0 13 13 23q7 7 15 7q10 0 22 -9t39 -38l62 -64q53 -59 53 -80q0 -5 -3 -8z" />
    <glyph glyph-name="eacute" unicode="&#xe9;" horiz-adv-x="274" 
d="M344 306q-4 -31 -66 -82q-46 -39 -129 -90q-62 -37 -101 -51q-15 -20 -22 -54q0 -13 19 -13q33 0 144 58q18 9 63 40q34 24 40 24q6 1 12 -8t6 -18q1 -3 -7.5 -10.5t-27.5 -20.5q-29 -20 -72 -46q-116 -67 -172 -67q-49 0 -49 66q0 18 17 55l29 58q25 48 73 96t97 77
q56 32 105 32q20 0 32 -14t9 -32zM297 303q1 3 -1.5 4t-7.5 2q-21 0 -61 -22q-48 -26 -113 -96q-24 -27 -34 -47q34 15 69 39l43 31q40 26 70 49q33 26 35 40zM506 666q-2 -13 -53 -56q-29 -24 -47 -46q-25 -27 -42 -56q-18 -30 -38 -60l-2 -3l-3.5 -10t-5.5 -14
q-6 -15 -17 -13q-19 3 -22 24q-5 24 24 71q21 37 62 87q28 34 65 68t49 34t21 -7.5t9 -18.5z" />
    <glyph glyph-name="ecircumflex" unicode="&#xea;" horiz-adv-x="274" 
d="M344 306q-4 -31 -66 -82q-46 -39 -129 -90q-62 -37 -101 -51q-15 -20 -22 -54q0 -13 19 -13q33 0 144 58q18 9 63 40q34 24 40 24q6 1 12 -8t6 -18q1 -3 -7.5 -10.5t-27.5 -20.5q-29 -20 -72 -46q-116 -67 -172 -67q-49 0 -49 66q0 18 17 55l29 58q25 48 73 96t97 77
q56 32 105 32q20 0 32 -14t9 -32zM297 303q1 3 -1.5 4t-7.5 2q-21 0 -61 -22q-48 -26 -113 -96q-24 -27 -34 -47q34 15 69 39l43 31q40 26 70 49q33 26 35 40zM368 431q1 -14 -9.5 -21t-22.5 -5q-16 3 -27 35q-15 47 -28 69l-10 -21l-19 -44l-12 -30q-11 -23 -25 -21
q-12 2 -20.5 16.5t-6.5 28.5q0 3 16 41q13 31 29 73l20 52q14 29 33 26q10 -1 14 -7l9 -29q25 -64 29 -73q30 -72 30 -90z" />
    <glyph glyph-name="edieresis" unicode="&#xeb;" horiz-adv-x="274" 
d="M344 306q-4 -31 -66 -82q-46 -39 -129 -90q-62 -37 -101 -51q-15 -20 -22 -54q0 -13 19 -13q33 0 144 58q18 9 63 40q34 24 40 24q6 1 12 -8t6 -18q1 -3 -7.5 -10.5t-27.5 -20.5q-29 -20 -72 -46q-116 -67 -172 -67q-49 0 -49 66q0 18 17 55l29 58q25 48 73 96t97 77
q56 32 105 32q20 0 32 -14t9 -32zM297 303q1 3 -1.5 4t-7.5 2q-21 0 -61 -22q-48 -26 -113 -96q-24 -27 -34 -47q34 15 69 39l43 31q40 26 70 49q33 26 35 40zM404 491q2 -18 -10 -33t-30 -15q-36 0 -41 30q-2 17 13 36t33 16q31 -3 35 -34zM184 473q2 -18 -9 -31t-29 -13
t-29 11t-11 28q0 15 10.5 25.5t25.5 10.5q14 2 27 -7t15 -24z" />
    <glyph glyph-name="igrave" unicode="&#xec;" horiz-adv-x="264" 
d="M320 104q-2 -11 -56 -38l-57 -27q-105 -50 -149 -50q-31 0 -45 10.5t-14 39.5q0 36 40 104q17 29 48 75q21 31 58 71q35 38 42 37q24 -4 24 -28l-60 -75q-45 -57 -67 -94q-30 -45 -36 -84q0 -10 16 -10q35 0 128 40q4 1 12 5t25 11.5l32 14.5q39 17 45 17q6 1 10 -5
t4 -14zM287 424q-11 -11 -25 -11q-6 0 -10 3q-10 6 -61 64q-29 33 -50 54q-2 2 -24.5 22.5t-27.5 27.5q-3 4 -3 9q0 13 13 23q7 7 15 7q10 0 22 -9t39 -38l62 -64q53 -59 53 -80q0 -5 -3 -8z" />
    <glyph glyph-name="iacute" unicode="&#xed;" horiz-adv-x="264" 
d="M320 104q-2 -11 -56 -38l-57 -27q-105 -50 -149 -50q-31 0 -45 10.5t-14 39.5q0 36 40 104q17 29 48 75q21 31 58 71q35 38 42 37q24 -4 24 -28l-60 -75q-45 -57 -67 -94q-30 -45 -36 -84q0 -10 16 -10q35 0 128 40q4 1 12 5t25 11.5l32 14.5q39 17 45 17q6 1 10 -5
t4 -14zM422 650q-2 -13 -53 -56q-29 -24 -47 -46q-25 -27 -42 -56q-18 -30 -38 -60l-2 -3l-3.5 -10t-5.5 -14q-6 -15 -17 -13q-19 3 -22 24q-5 24 24 71q21 37 62 87q28 34 65 68t49 34t21 -7.5t9 -18.5z" />
    <glyph glyph-name="icircumflex" unicode="&#xee;" horiz-adv-x="264" 
d="M320 104q-2 -11 -56 -38l-57 -27q-105 -50 -149 -50q-31 0 -45 10.5t-14 39.5q0 36 40 104q17 29 48 75q21 31 58 71q35 38 42 37q24 -4 24 -28l-60 -75q-45 -57 -67 -94q-30 -45 -36 -84q0 -10 16 -10q35 0 128 40q4 1 12 5t25 11.5l32 14.5q39 17 45 17q6 1 10 -5
t4 -14zM284 411q1 -14 -9.5 -21t-22.5 -5q-16 3 -27 35q-15 47 -28 69l-10 -21l-19 -44l-12 -30q-11 -23 -25 -21q-12 2 -20.5 16.5t-6.5 28.5q0 3 16 41q13 31 29 73l20 52q14 29 33 26q10 -1 14 -7l9 -29q25 -64 29 -73q30 -72 30 -90z" />
    <glyph glyph-name="idieresis" unicode="&#xef;" horiz-adv-x="264" 
d="M320 104q-2 -11 -56 -38l-57 -27q-105 -50 -149 -50q-31 0 -45 10.5t-14 39.5q0 36 40 104q17 29 48 75q21 31 58 71q35 38 42 37q24 -4 24 -28l-60 -75q-45 -57 -67 -94q-30 -45 -36 -84q0 -10 16 -10q35 0 128 40q4 1 12 5t25 11.5l32 14.5q39 17 45 17q6 1 10 -5
t4 -14zM388 479q2 -18 -10 -33t-30 -15q-37 0 -41 30q-2 17 13 36t33 16q31 -3 35 -34zM168 461q2 -18 -9 -31t-29 -13t-29 11t-11 28q0 15 10.5 25.5t25.5 10.5q14 2 27 -7t15 -24z" />
    <glyph glyph-name="eth" unicode="&#xf0;" horiz-adv-x="447" 
d="M676 434q0 -27 -20 -32q-2 -1 -12 -1q-3 0 -8 0.5t-15 1t-18 0.5t-17.5 0.5t-14.5 1t-8 0.5q-47 -66 -93 -112q-6 -9 -45 -62l-28 -38l-39 -60l-45 -67q-23 -33 -47 -60q-29 -32 -34 -32q-10 0 -18.5 5.5t-6.5 12.5q2 10 20 35q21 31 37 48q38 43 52 69l-54 -47
q-31 -27 -66 -52q-106 -79 -140 -79q-54 0 -54 56q-1 34 32.5 93.5t82.5 113.5q111 130 187 130q25 0 37.5 -15.5t10.5 -40.5q0 -34 -37.5 -73t-96.5 -70q-13 -7 -49 -28t-51 -28l-54 -25q-14 -39 -17 -50q0 -17 9 -19q8 0 42 20q86 53 135 96q8 6 60 55q50 46 74 70
q29 29 57 60l64 97q-3 0 -51 -3q-15 -3 -23 5t-9 27q0 27 57 27h26h39l5 6q24 33 61 73q35 38 46 38q10 1 18 -6t8 -17q0 -12 -19 -40q-11 -16 -43 -58q31 0 52 -7.5t21 -18.5zM307 307q0 7 -12 7q-50 0 -145 -113q-32 -39 -43 -57q47 20 90 48q55 34 74 51q36 31 36 64z
" />
    <glyph glyph-name="ntilde" unicode="&#xf1;" horiz-adv-x="409" 
d="M471 130q-3 -11 -58 -39q-3 -1 -55 -29q-34 -19 -94 -48q-52 -24 -65 -24q-7 -1 -14 2q-14 8 -14 21q0 3 3 18q6 21 23 53l39 76q45 80 49 98v9q-4 3 -31 -15q-13 -9 -28 -18l-52 -42q-63 -55 -104 -110q-5 -6 -11.5 -15t-10.5 -14l-7 -9l-25 -34q-25 -33 -36 -35
q-20 -5 -20 12q0 1 2 9q0 7 20 38l23 33l92 144l27 43l27 45l38 59q19 30 27 32q11 4 17 -3t4 -20q0 -7 -21 -38q-11 -16 -20 -31q-11 -18 -23 -45l-10 -20l51 39q24 17 53 29.5t42 12.5q15 2 22.5 -9.5t5.5 -25.5q-4 -21 -49 -107l-37 -76q-21 -42 -21 -46q-1 -1 -1 -4v-1
q9 0 44 16l72 34l67 34q38 20 45 20t11.5 -6t2.5 -13zM524 512q-4 -18 -43 -40q-38 -20 -73 -20q-9 0 -35 26q-17 17 -27 25q-37 28 -40 31q-13 10 -21 10q-20 0 -40 -11q-16 -9 -37 -27q-35 -29 -50 -64q-1 -2 -2 -6t-2 -6l-2.5 -5t-3 -5t-3.5 -4t-4 -3t-5 -1q-26 0 -26 36
q0 11 22 42q22 30 50 54q68 54 114 54q20 0 45 -21q9 -9 29 -25q9 -6 31 -30q17 -20 21 -18q30 3 84 26q24 0 18 -18z" />
    <glyph glyph-name="ograve" unicode="&#xf2;" horiz-adv-x="280" 
d="M345 132q-2 -13 -69 -53q-62 -39 -124 -66q-48 -23 -85 -35q-41 -14 -54 -12q-42 0 -37 46q0 24 18 58q15 28 38 58q16 22 50 59q15 17 53 55q1 3 1 8q3 7 31 29q31 24 54 38q48 27 73 24q47 0 47 -50q0 -30 -19 -68q-9 -18 -36 -63q-12 -19 -18 -26q-11 -14 -32 -35
l12 6q1 0 4.5 2l11 6l14.5 8q49 26 51 25q16 -3 16 -14zM301 277q0 11 -3 15q-6 10 -19 10q-21 0 -52 -22q-20 -13 -37 -32q13 -4 10 -15q0 -7 -21.5 -30t-48.5 -44q-69 -56 -75 -92q-2 -12 8 -22q7 -11 13 -15q30 7 83 52q36 30 60 58q75 79 82 137zM35 11l-6 9l-4 12
q-7 -7 -8 -15q1 -9 6 -11q4 0 12 5zM355 416q-11 -11 -25 -11q-6 0 -10 3q-10 6 -61 64q-29 33 -50 54q-2 2 -24.5 22.5t-27.5 27.5q-3 4 -3 9q0 13 13 23q7 7 15 7q10 0 22 -9t39 -38l62 -64q53 -59 53 -80q0 -5 -3 -8z" />
    <glyph glyph-name="oacute" unicode="&#xf3;" horiz-adv-x="280" 
d="M345 132q-2 -13 -69 -53q-62 -39 -124 -66q-48 -23 -85 -35q-41 -14 -54 -12q-42 0 -37 46q0 24 18 58q15 28 38 58q16 22 50 59q15 17 53 55q1 3 1 8q3 7 31 29q31 24 54 38q48 27 73 24q47 0 47 -50q0 -30 -19 -68q-9 -18 -36 -63q-12 -19 -18 -26q-11 -14 -32 -35
l12 6q1 0 4.5 2l11 6l14.5 8q49 26 51 25q16 -3 16 -14zM301 277q0 11 -3 15q-6 10 -19 10q-21 0 -52 -22q-20 -13 -37 -32q13 -4 10 -15q0 -7 -21.5 -30t-48.5 -44q-69 -56 -75 -92q-2 -12 8 -22q7 -11 13 -15q30 7 83 52q36 30 60 58q75 79 82 137zM35 11l-6 9l-4 12
q-7 -7 -8 -15q1 -9 6 -11q4 0 12 5zM526 650q-2 -13 -53 -56q-29 -24 -47 -46q-25 -27 -42 -56q-18 -30 -38 -60l-2 -3l-3.5 -10t-5.5 -14q-6 -15 -17 -13q-19 3 -22 24q-5 24 24 71q21 37 62 87q28 34 65 68t49 34t21 -7.5t9 -18.5z" />
    <glyph glyph-name="ocircumflex" unicode="&#xf4;" horiz-adv-x="280" 
d="M345 132q-2 -13 -69 -53q-62 -39 -124 -66q-48 -23 -85 -35q-41 -14 -54 -12q-42 0 -37 46q0 24 18 58q15 28 38 58q16 22 50 59q15 17 53 55q1 3 1 8q3 7 31 29q31 24 54 38q48 27 73 24q47 0 47 -50q0 -30 -19 -68q-9 -18 -36 -63q-12 -19 -18 -26q-11 -14 -32 -35
l12 6q1 0 4.5 2l11 6l14.5 8q49 26 51 25q16 -3 16 -14zM301 277q0 11 -3 15q-6 10 -19 10q-21 0 -52 -22q-20 -13 -37 -32q13 -4 10 -15q0 -7 -21.5 -30t-48.5 -44q-69 -56 -75 -92q-2 -12 8 -22q7 -11 13 -15q30 7 83 52q36 30 60 58q75 79 82 137zM35 11l-6 9l-4 12
q-7 -7 -8 -15q1 -9 6 -11q4 0 12 5zM380 431q1 -14 -9.5 -21t-22.5 -5q-16 3 -27 35q-15 47 -28 69l-10 -21l-19 -44l-12 -30q-11 -23 -25 -21q-12 2 -20.5 16.5t-6.5 28.5q0 3 16 41q13 31 29 73l20 52q14 29 33 26q10 -1 14 -7l9 -29q25 -64 29 -73q30 -72 30 -90z" />
    <glyph glyph-name="otilde" unicode="&#xf5;" horiz-adv-x="280" 
d="M345 132q-2 -13 -69 -53q-62 -39 -124 -66q-48 -23 -85 -35q-41 -14 -54 -12q-42 0 -37 46q0 24 18 58q15 28 38 58q16 22 50 59q15 17 53 55q1 3 1 8q3 7 31 29q31 24 54 38q48 27 73 24q47 0 47 -50q0 -30 -19 -68q-9 -18 -36 -63q-12 -19 -18 -26q-11 -14 -32 -35
l12 6q1 0 4.5 2l11 6l14.5 8q49 26 51 25q16 -3 16 -14zM301 277q0 11 -3 15q-6 10 -19 10q-21 0 -52 -22q-20 -13 -37 -32q13 -4 10 -15q0 -7 -21.5 -30t-48.5 -44q-69 -56 -75 -92q-2 -12 8 -22q7 -11 13 -15q30 7 83 52q36 30 60 58q75 79 82 137zM35 11l-6 9l-4 12
q-7 -7 -8 -15q1 -9 6 -11q4 0 12 5zM520 464q-4 -18 -43 -40q-38 -20 -73 -20q-9 0 -35 26q-17 17 -27 25q-37 28 -40 31q-13 10 -21 10q-20 0 -40 -11q-16 -9 -37 -27q-35 -29 -50 -64q-1 -2 -2 -6t-2 -6l-2.5 -5t-3 -5t-3.5 -4t-4 -3t-5 -1q-26 0 -26 36q0 11 22 42
q22 30 50 54q68 54 114 54q20 0 45 -21q9 -9 29 -25q9 -6 31 -30q17 -20 21 -18q30 3 84 26q24 0 18 -18z" />
    <glyph glyph-name="odieresis" unicode="&#xf6;" horiz-adv-x="280" 
d="M345 132q-2 -13 -69 -53q-62 -39 -124 -66q-48 -23 -85 -35q-41 -14 -54 -12q-42 0 -37 46q0 24 18 58q15 28 38 58q16 22 50 59q15 17 53 55q1 3 1 8q3 7 31 29q31 24 54 38q48 27 73 24q47 0 47 -50q0 -30 -19 -68q-9 -18 -36 -63q-12 -19 -18 -26q-11 -14 -32 -35
l12 6q1 0 4.5 2l11 6l14.5 8q49 26 51 25q16 -3 16 -14zM301 277q0 11 -3 15q-6 10 -19 10q-21 0 -52 -22q-20 -13 -37 -32q13 -4 10 -15q0 -7 -21.5 -30t-48.5 -44q-69 -56 -75 -92q-2 -12 8 -22q7 -11 13 -15q30 7 83 52q36 30 60 58q75 79 82 137zM35 11l-6 9l-4 12
q-7 -7 -8 -15q1 -9 6 -11q4 0 12 5zM456 487q2 -18 -10 -33t-30 -15q-36 0 -41 30q-2 17 13 36t33 16q31 -3 35 -34zM236 469q2 -18 -9 -31t-29 -13t-29 11t-11 28q0 15 10.5 25.5t25.5 10.5q14 2 27 -7t15 -24z" />
    <glyph glyph-name="oslash" unicode="&#xf8;" horiz-adv-x="340" 
d="M312 284q0 -19 -12 -77q-10 -54 -33 -93q-30 -50 -78 -72q-17 -8 -34 -15q-23 -10 -52 -20l-10 -32q-11 -41 -11 -60q0 -9 2 -17.5t3.5 -13t1.5 -6.5q2 -11 -6 -19t-20 -8q-16 -4 -24.5 6.5t-8.5 27.5q0 41 24 105l4 11q-42 9 -42 78q0 53 31 115q24 50 67 99
q21 26 52 48l31 89l24 76q8 23 15 26q19 4 29 -14q4 -8 -7 -42l-11.5 -34t-10.5 -30l-15 -43l23 4q31 0 49.5 -26t18.5 -63zM260 308q0 12 -25 16q-11 0 -31 -9l-36 -121l-47 -135q1 0 4 1.5t7.5 3t9.5 2.5q23 7 36 16q21 16 42 54t32 82q0 2 8 90zM124 204l18 58
q-30 -37 -55 -89q-24 -51 -24 -84q0 -32 10 -40z" />
    <glyph glyph-name="ugrave" unicode="&#xf9;" horiz-adv-x="418" 
d="M489 344q0 -20 -26 -51l-33 -36l-38 -37l-42 -38l-80 -92q-34 -43 -39 -76q0 -9 2 -11q24 0 108 45l74 42q41 24 45 24q20 0 18 -18q0 -9 -38 -35q-42 -26 -71 -41q-68 -35 -89 -44q-47 -22 -67 -22q-17 -2 -27.5 6t-9.5 23q0 18 11 48l14 36q-59 -40 -89 -57
q-61 -37 -83 -37q-20 0 -29 7.5t-7 26.5q5 31 35 89q57 112 136 198q41 44 53 44q22 0 17 -20q-2 -9 -41 -50q-37 -44 -75 -102q-31 -49 -49 -84q-22 -43 -24 -58l1 -4q23 -5 148 94l62 48q45 36 68 59l75 88q19 21 41 41q20 18 30 18q19 0 19 -24zM379 472q-11 -11 -25 -11
q-6 0 -10 3q-10 6 -61 64q-29 33 -50 54q-2 2 -24.5 22.5t-27.5 27.5q-3 4 -3 9q0 13 13 23q7 7 15 7q10 0 22 -9t39 -38l62 -64q53 -59 53 -80q0 -5 -3 -8z" />
    <glyph glyph-name="uacute" unicode="&#xfa;" horiz-adv-x="418" 
d="M489 344q0 -20 -26 -51l-33 -36l-38 -37l-42 -38l-80 -92q-34 -43 -39 -76q0 -9 2 -11q24 0 108 45l74 42q41 24 45 24q20 0 18 -18q0 -9 -38 -35q-42 -26 -71 -41q-68 -35 -89 -44q-47 -22 -67 -22q-17 -2 -27.5 6t-9.5 23q0 18 11 48l14 36q-59 -40 -89 -57
q-61 -37 -83 -37q-20 0 -29 7.5t-7 26.5q5 31 35 89q57 112 136 198q41 44 53 44q22 0 17 -20q-2 -9 -41 -50q-37 -44 -75 -102q-31 -49 -49 -84q-22 -43 -24 -58l1 -4q23 -5 148 94l62 48q45 36 68 59l75 88q19 21 41 41q20 18 30 18q19 0 19 -24zM554 686q-2 -13 -53 -56
q-29 -24 -47 -46q-25 -27 -42 -56q-18 -30 -38 -60l-2 -3l-3.5 -10t-5.5 -14q-6 -15 -17 -13q-19 3 -22 24q-5 24 24 71q21 37 62 87q28 34 65 68t49 34t21 -7.5t9 -18.5z" />
    <glyph glyph-name="ucircumflex" unicode="&#xfb;" horiz-adv-x="418" 
d="M489 344q0 -20 -26 -51l-33 -36l-38 -37l-42 -38l-80 -92q-34 -43 -39 -76q0 -9 2 -11q24 0 108 45l74 42q41 24 45 24q20 0 18 -18q0 -9 -38 -35q-42 -26 -71 -41q-68 -35 -89 -44q-47 -22 -67 -22q-17 -2 -27.5 6t-9.5 23q0 18 11 48l14 36q-59 -40 -89 -57
q-61 -37 -83 -37q-20 0 -29 7.5t-7 26.5q5 31 35 89q57 112 136 198q41 44 53 44q22 0 17 -20q-2 -9 -41 -50q-37 -44 -75 -102q-31 -49 -49 -84q-22 -43 -24 -58l1 -4q23 -5 148 94l62 48q45 36 68 59l75 88q19 21 41 41q20 18 30 18q19 0 19 -24zM440 471q1 -14 -9.5 -21
t-22.5 -5q-16 3 -27 35q-15 47 -28 69l-10 -21l-19 -44l-12 -30q-11 -23 -25 -21q-12 2 -20.5 16.5t-6.5 28.5q0 3 16 41q13 31 29 73l20 52q14 29 33 26q10 -1 14 -7l9 -29q25 -64 29 -73q30 -72 30 -90z" />
    <glyph glyph-name="udieresis" unicode="&#xfc;" horiz-adv-x="418" 
d="M489 344q0 -20 -26 -51l-33 -36l-38 -37l-42 -38l-80 -92q-34 -43 -39 -76q0 -9 2 -11q24 0 108 45l74 42q41 24 45 24q20 0 18 -18q0 -9 -38 -35q-42 -26 -71 -41q-68 -35 -89 -44q-47 -22 -67 -22q-17 -2 -27.5 6t-9.5 23q0 18 11 48l14 36q-59 -40 -89 -57
q-61 -37 -83 -37q-20 0 -29 7.5t-7 26.5q5 31 35 89q57 112 136 198q41 44 53 44q22 0 17 -20q-2 -9 -41 -50q-37 -44 -75 -102q-31 -49 -49 -84q-22 -43 -24 -58l1 -4q23 -5 148 94l62 48q45 36 68 59l75 88q19 21 41 41q20 18 30 18q19 0 19 -24zM536 543q2 -18 -10 -33
t-30 -15q-36 0 -41 30q-2 17 13 36t33 16q31 -3 35 -34zM316 525q2 -18 -9 -31t-29 -13t-29 11t-11 28q0 15 10.5 25.5t25.5 10.5q14 2 27 -7t15 -24z" />
    <glyph glyph-name="yacute" unicode="&#xfd;" horiz-adv-x="345" 
d="M411 337q-1 -8 -23 -34l-45 -52l-64 -67l-35 -41q-22 -26 -37 -50q-13 -17 -31 -48l-22 -41q15 7 80 42l53 29q99 49 107 51q7 1 12.5 -6t3.5 -15q0 -9 -71 -48q-17 -10 -106 -57t-125 -70l-34 -55l-20 -33l-40 -72l-55 -94l-72 -120q-42 -62 -76 -62q-19 0 -36 29
q-18 28 -18 62q1 5 1 12q0 23 16 71q17 52 43.5 91.5t78.5 81.5l55 43q16 13 58 38l60 34l21 27l18 26q-38 -27 -57 -27q-21 0 -34.5 15.5t-13.5 38.5q0 15 18 65q17 44 42 95q27 56 57 99q32 45 39 45q14 0 21 -5t4 -16l-53 -93q-41 -71 -67 -138q-13 -33 -13 -48
q-2 -12 9 -14q17 0 93 85q65 74 86 95q13 22 33 47q6 9 35 43q57 72 83 66q11 -1 17 -9.5t4 -15.5zM-29 -222l53 101q-10 -3 -30 -16q-4 -2 -35 -25q-34 -25 -64 -55q-34 -34 -49 -59q-31 -58 -43 -120q-1 -7 -1 -17q0 -47 16 -47q13 0 61 81l48 80q7 11 44 77zM494 686
q-2 -13 -53 -56q-29 -24 -47 -46q-25 -27 -42 -56q-18 -30 -38 -60l-2 -3l-3.5 -10t-5.5 -14q-6 -15 -17 -13q-19 3 -22 24q-5 24 24 71q21 37 62 87q28 34 65 68t49 34t21 -7.5t9 -18.5z" />
    <glyph glyph-name="thorn" unicode="&#xfe;" horiz-adv-x="507" 
d="M485 343q0 -81 -71 -158q-41 -42 -94 -64q-51 -20 -96 -20q-34 0 -75 16l-24 -34l-47 -68l-50 -77q-25 -37 -36 -37q-11 -2 -16.5 6.5t-5.5 17.5q0 12 31 58q30 44 32 46l65 100q-23 33 -24 43q-1 6 6 13t14 7q2 0 13.5 -7t17.5 -9l21 52l29 64q29 62 39 81q25 48 53 95
q21 35 71 110q40 57 52 62q12 4 18.5 -2.5t3.5 -19.5q-3 -14 -27 -66l-30 -64q41 0 76 -28q54 -45 54 -117zM438 342q0 44 -23.5 71.5t-60.5 27.5q-22 0 -56 -49q-18 -25 -40 -61q-20 -34 -48 -97q-32 -70 -35 -76q22 -11 52 -11q95 0 159 74q23 27 37.5 61t14.5 60z" />
    <glyph glyph-name="ydieresis" unicode="&#xff;" horiz-adv-x="345" 
d="M411 337q-1 -8 -23 -34l-45 -52l-64 -67l-35 -41q-22 -26 -37 -50q-13 -17 -31 -48l-22 -41q15 7 80 42l53 29q99 49 107 51q7 1 12.5 -6t3.5 -15q0 -9 -71 -48q-17 -10 -106 -57t-125 -70l-34 -55l-20 -33l-40 -72l-55 -94l-72 -120q-42 -62 -76 -62q-19 0 -36 29
q-18 28 -18 62q1 5 1 12q0 23 16 71q17 52 43.5 91.5t78.5 81.5l55 43q16 13 58 38l60 34l21 27l18 26q-38 -27 -57 -27q-21 0 -34.5 15.5t-13.5 38.5q0 15 18 65q17 44 42 95q27 56 57 99q32 45 39 45q14 0 21 -5t4 -16l-53 -93q-41 -71 -67 -138q-13 -33 -13 -48
q-2 -12 9 -14q17 0 93 85q65 74 86 95q13 22 33 47q6 9 35 43q57 72 83 66q11 -1 17 -9.5t4 -15.5zM-29 -222l53 101q-10 -3 -30 -16q-4 -2 -35 -25q-34 -25 -64 -55q-34 -34 -49 -59q-31 -58 -43 -120q-1 -7 -1 -17q0 -47 16 -47q13 0 61 81l48 80q7 11 44 77zM448 519
q2 -18 -10 -33t-30 -15q-37 0 -41 30q-2 17 13 36t33 16q31 -3 35 -34zM228 501q2 -18 -9 -31t-29 -13t-29 11t-11 28q0 15 10.5 25.5t25.5 10.5q14 2 27 -7t15 -24z" />
    <glyph glyph-name="amacron" unicode="&#x101;" 
d="M493 131q-2 -6 -36 -28q-47 -31 -59 -37q-73 -41 -99 -53q-29 -13 -49 -13q-22 0 -33 12.5t-11 31.5l1 15l-44 -26q-50 -27 -58 -30q-41 -18 -67 -18q-37 0 -37 50q0 36 23 80q17 33 55 83q49 62 100 99q65 47 118 47q13 0 28 -13.5t21 -32.5q4 -19 5 -32l21 17
q21 23 31 23q7 0 13.5 -7.5t6.5 -16.5q0 -24 -18 -41l-29 -24q-22 -19 -61 -66l-43 -53q-17 -20 -17 -41q0 -10 5 -10q9 0 42 14q28 13 63 32l67 40q38 23 41 23q12 0 18 -11q3 -7 2 -14zM304 245q-1 5 -1.5 12t-1 11t-1.5 9t-2 7.5t-2.5 5t-4 4t-6.5 2.5q-28 4 -70 -26
q-42 -29 -77 -74q-41 -50 -58 -77q-31 -46 -31 -75q-1 -15 8 -15q7 0 37 14q30 13 57 30q70 41 106 86q3 4 9 19.5t8 18.5q19 28 30 48zM539 459q0 -27 -20 -32q-6 -2 -59 -2q-49 0 -92 1q-42 1 -83 1q-5 0 -56 -3q-32 -6 -33 32q0 27 57 27h26q46 0 83 1q177 0 177 -25z
" />
    <glyph glyph-name="abreve" unicode="&#x103;" 
d="M493 131q-2 -6 -36 -28q-47 -31 -59 -37q-73 -41 -99 -53q-29 -13 -49 -13q-22 0 -33 12.5t-11 31.5l1 15l-44 -26q-50 -27 -58 -30q-41 -18 -67 -18q-37 0 -37 50q0 36 23 80q17 33 55 83q49 62 100 99q65 47 118 47q13 0 28 -13.5t21 -32.5q4 -19 5 -32l21 17
q21 23 31 23q7 0 13.5 -7.5t6.5 -16.5q0 -24 -18 -41l-29 -24q-22 -19 -61 -66l-43 -53q-17 -20 -17 -41q0 -10 5 -10q9 0 42 14q28 13 63 32l67 40q38 23 41 23q12 0 18 -11q3 -7 2 -14zM304 245q-1 5 -1.5 12t-1 11t-1.5 9t-2 7.5t-2.5 5t-4 4t-6.5 2.5q-28 4 -70 -26
q-42 -29 -77 -74q-41 -50 -58 -77q-31 -46 -31 -75q-1 -15 8 -15q7 0 37 14q30 13 57 30q70 41 106 86q3 4 9 19.5t8 18.5q19 28 30 48zM462 570q0 -10 -21 -40q-22 -32 -51 -56q-65 -52 -99 -52q-30 0 -89 44q-25 19 -38 32q-23 25 -23 41q0 17 27 21q11 2 32 -21
q12 -14 26 -24l33 -26q19 -15 28 -15q30 0 77 38q35 29 50 64q10 30 22 30q26 0 26 -36z" />
    <glyph glyph-name="aogonek" unicode="&#x105;" horiz-adv-x="590" 
d="M304 245q-4 31 -5 35q0 12 -14 16q-28 3 -70 -26q-42 -28 -77 -74q-40 -49 -58 -77q-29 -46 -31 -75q-1 -15 8 -15t37 14q30 13 57 30q72 42 106 86q5 10 9 19q5 15 8 19l16 25q8 10 14 23zM464 152q8 3 9 4q13 0 18 -11q2 -4 2 -14l-3 -3q-1 -4 -4.5 -10t-3.5 -7
l-31 -78q-20 -55 -30 -85l2 -6q6 0 45 15q14 4 38 15q33 13 64 28q26 12 40 19q7 3 14 -5q6 -6 7 -17q0 -6 -40 -28q-35 -19 -73 -37l-65 -25q-30 -9 -51 -12q-13 -3 -25 13q-8 14 -7 29q1 8 37 99q3 7 8.5 21t7.5 18q-44 -27 -106 -54q-42 -21 -67 -21q-22 0 -34 13
q-8 13 -10 31l1 15l-44 -26q-50 -27 -58 -30q-39 -18 -67 -18q-20 0 -29 13q-6 10 -8 37q0 37 23 80q17 32 55 83q49 61 100 99q62 45 118 47q12 0 28 -13q15 -12 21 -33q0 -6 2 -14l3 -18l21 17q11 11 17 16q8 6 14 7q6 0 13 -8q6 -6 7 -16q0 -23 -18 -41q-8 -8 -29 -24
q-22 -19 -61 -66l-43 -53q-7 -8 -13 -22q-1 -4 -4 -19q0 -9 5 -10q11 0 42 14q40 18 63 32l67 40q15 10 23 14q6 4 9 5z" />
    <glyph glyph-name="cacute" unicode="&#x107;" horiz-adv-x="253" 
d="M345 322q-1 -5 -13 -31l-14 -27q0 -14 -4 -26q-14 -29 -31 -59q-19 -27 -43 -27q-7 1 -12 10t-5 19q0 6 19 40q21 37 22 45q2 12 -23 18q-40 0 -98 -53q-37 -38 -63 -82q-31 -52 -31 -86v-12q0 -29 14 -29q24 0 99 26q26 9 134 55q19 0 13 -25q-2 -8 -49 -32
q-48 -24 -90 -39q-85 -31 -120 -31q-25 0 -37.5 18t-12.5 47q0 14 1 18q8 53 43 112q30 52 73 93q31 30 69.5 49t67.5 19q24 0 37 -15l13 16q12 13 23 13q23 -6 18 -24zM414 628q-2 -10 -48 -51q-42 -38 -79 -92l-35 -54l-8 -20q-5 -18 -17 -16q-17 3 -20 22q-3 23 22 64
q20 34 56 78q24 32 58 62q33 30 44 30q9 0 18 -7t9 -16z" />
    <glyph glyph-name="ccaron" unicode="&#x10d;" horiz-adv-x="253" 
d="M345 322q-1 -5 -13 -31l-14 -27q0 -14 -4 -26q-14 -29 -31 -59q-19 -27 -43 -27q-7 1 -12 10t-5 19q0 6 19 40q21 37 22 45q2 12 -23 18q-40 0 -98 -53q-37 -38 -63 -82q-31 -52 -31 -86v-12q0 -29 14 -29q24 0 99 26q26 9 134 55q19 0 13 -25q-2 -8 -49 -32
q-48 -24 -90 -39q-85 -31 -120 -31q-25 0 -37.5 18t-12.5 47q0 14 1 18q8 53 43 112q30 52 73 93q31 30 69.5 49t67.5 19q24 0 37 -15l13 16q12 13 23 13q23 -6 18 -24zM332 559l-39 -99l-19 -50q-14 -27 -30 -24q-6 1 -10 6.5t-5.5 9.5t-4.5 17q-8 17 -14.5 34l-12.5 32
t-8 19q-19 45 -19 61q0 11 9 18t20 6q14 -3 25 -32q17 -51 25 -62q1 2 3.5 7.5l5 11t4.5 11.5l24 56q10 19 22 18q12 -2 19 -14.5t5 -25.5z" />
    <glyph glyph-name="dcaron" unicode="&#x10f;" horiz-adv-x="652" 
d="M768 536q3 -15 -16 -56q-17 -39 -44 -84q-67 -111 -82 -111q-14 0 -17 9q-3 12 29 68q24 41 29 52l25 48q13 30 18 53q2 6 -3.5 16.5t-4.5 13.5q6 11 29 16q13 0 24.5 -7t12.5 -18zM665 558q0 -19 -43 -75l-45 -58q-57 -82 -107 -132q-6 -9 -45 -62l-28 -38l-39 -60
l-45 -67q-23 -33 -47 -60q-29 -32 -34 -32q-10 0 -18.5 5.5t-6.5 12.5q2 10 20 35q21 31 37 48q38 43 52 69l-54 -47q-31 -27 -66 -52q-106 -79 -140 -79q-54 0 -54 56q-1 34 32.5 93.5t82.5 113.5q111 130 187 130q25 0 37.5 -15.5t10.5 -40.5q0 -34 -37.5 -73t-96.5 -70
q-13 -7 -49 -28t-51 -28l-54 -25q-14 -39 -17 -50q0 -17 9 -19q8 0 42 20q86 53 135 96q8 6 60 55q50 46 74 70q29 29 57 60l48 74q36 54 60 85q24 33 61 73q35 38 46 38q10 1 18 -6t8 -17zM307 307q0 7 -12 7q-50 0 -145 -113q-32 -39 -43 -57q47 20 90 48q55 34 74 51
q36 31 36 64z" />
    <glyph glyph-name="dcroat" unicode="&#x111;" horiz-adv-x="447" 
d="M676 434q0 -27 -20 -32q-2 -1 -12 -1q-3 0 -8 0.5t-15 1t-18 0.5t-17.5 0.5t-14.5 1t-8 0.5q-47 -66 -93 -112q-6 -9 -45 -62l-28 -38l-39 -60l-45 -67q-23 -33 -47 -60q-29 -32 -34 -32q-10 0 -18.5 5.5t-6.5 12.5q2 10 20 35q21 31 37 48q38 43 52 69l-54 -47
q-31 -27 -66 -52q-106 -79 -140 -79q-54 0 -54 56q-1 34 32.5 93.5t82.5 113.5q111 130 187 130q25 0 37.5 -15.5t10.5 -40.5q0 -34 -37.5 -73t-96.5 -70q-13 -7 -49 -28t-51 -28l-54 -25q-14 -39 -17 -50q0 -17 9 -19q8 0 42 20q86 53 135 96q8 6 60 55q50 46 74 70
q29 29 57 60l64 97q-3 0 -51 -3q-15 -3 -23 5t-9 27q0 27 57 27h26h39l5 6q24 33 61 73q35 38 46 38q10 1 18 -6t8 -17q0 -12 -19 -40q-11 -16 -43 -58q31 0 52 -7.5t21 -18.5zM307 307q0 7 -12 7q-50 0 -145 -113q-32 -39 -43 -57q47 20 90 48q55 34 74 51q36 31 36 64z
" />
    <glyph glyph-name="emacron" unicode="&#x113;" horiz-adv-x="274" 
d="M344 306q-4 -31 -66 -82q-46 -39 -129 -90q-62 -37 -101 -51q-15 -20 -22 -54q0 -13 19 -13q33 0 144 58q18 9 63 40q34 24 40 24q6 1 12 -8t6 -18q1 -3 -7.5 -10.5t-27.5 -20.5q-29 -20 -72 -46q-116 -67 -172 -67q-49 0 -49 66q0 18 17 55l29 58q25 48 73 96t97 77
q56 32 105 32q20 0 32 -14t9 -32zM297 303q1 3 -1.5 4t-7.5 2q-21 0 -61 -22q-48 -26 -113 -96q-24 -27 -34 -47q34 15 69 39l43 31q40 26 70 49q33 26 35 40zM519 445q0 -27 -20 -32q-6 -2 -59 -2q-49 0 -92 1q-42 1 -83 1q-5 0 -56 -3q-32 -6 -33 32q0 27 57 27h26
q46 0 83 1q177 0 177 -25z" />
    <glyph glyph-name="edotaccent" unicode="&#x117;" horiz-adv-x="274" 
d="M344 306q-4 -31 -66 -82q-46 -39 -129 -90q-62 -37 -101 -51q-15 -20 -22 -54q0 -13 19 -13q33 0 144 58q18 9 63 40q34 24 40 24q6 1 12 -8t6 -18q1 -3 -7.5 -10.5t-27.5 -20.5q-29 -20 -72 -46q-116 -67 -172 -67q-49 0 -49 66q0 18 17 55l29 58q25 48 73 96t97 77
q56 32 105 32q20 0 32 -14t9 -32zM297 303q1 3 -1.5 4t-7.5 2q-21 0 -61 -22q-48 -26 -113 -96q-24 -27 -34 -47q34 15 69 39l43 31q40 26 70 49q33 26 35 40zM409 469q4 -24 -14 -45.5t-43 -21.5q-7 0 -16 3t-19.5 14.5t-12.5 29.5q-3 24 14.5 45.5t40.5 21.5q1 0 11 -2
q33 -8 39 -45z" />
    <glyph glyph-name="eogonek" unicode="&#x119;" horiz-adv-x="417" 
d="M297 303q0 3 -2 4q-4 0 -7 2q-21 0 -61 -22q-38 -20 -67 -48l-46 -48q-23 -26 -34 -47q33 15 69 39l43 31q49 32 70 49q32 25 35 40zM310 115q1 -3 1 -8t-6 -16l-21 -37q-4 -8 -11.5 -26l-13.5 -32t-7 -16q-1 -3 -7 -15t-10.5 -22.5t-5.5 -13.5l2 -6q6 0 45 15
q14 5 38 15q33 13 64 28q39 18 41 19q6 3 13 -5q6 -6 7 -17q0 -6 -40 -28q-35 -19 -73 -37l-65 -25q-30 -9 -51 -12q-13 -3 -25 13q-8 14 -7 29q1 10 26 63q12 29 31 70l-38 -19q-13 -6 -32 -16l-33.5 -17t-28.5 -13q-43 -18 -72 -18q-26 0 -38 21q-9 17 -11 45q0 20 17 55
l29 58q25 48 73 96q46 46 97 77q52 30 105 32q20 0 32 -15q12 -13 9 -31q-4 -29 -66 -82q-46 -39 -129 -90q-25 -15 -57 -31l-44 -20q-5 -8 -13 -25q-6 -16 -9 -29q0 -12 19 -13q15 0 56 16q38 16 88 42q23 12 63 40q34 24 40 24q8 0 13 -8q3 -6 5 -15z" />
    <glyph glyph-name="ecaron" unicode="&#x11b;" horiz-adv-x="274" 
d="M344 306q-4 -31 -66 -82q-46 -39 -129 -90q-62 -37 -101 -51q-15 -20 -22 -54q0 -13 19 -13q33 0 144 58q18 9 63 40q34 24 40 24q6 1 12 -8t6 -18q1 -3 -7.5 -10.5t-27.5 -20.5q-29 -20 -72 -46q-116 -67 -172 -67q-49 0 -49 66q0 18 17 55l29 58q25 48 73 96t97 77
q56 32 105 32q20 0 32 -14t9 -32zM297 303q1 3 -1.5 4t-7.5 2q-21 0 -61 -22q-48 -26 -113 -96q-24 -27 -34 -47q34 15 69 39l43 31q40 26 70 49q33 26 35 40zM365 577l-39 -99l-19 -50q-13 -27 -30 -24q-6 1 -10 6.5t-5.5 9.5t-4.5 17l-35 85q-19 45 -19 61q0 11 9 18t20 6
q14 -3 25 -32q17 -51 25 -62q1 2 3.5 7.5l5 11t4.5 11.5l24 56q10 19 22 18q12 -2 19 -14.5t5 -25.5z" />
    <glyph glyph-name="gbreve" unicode="&#x11f;" horiz-adv-x="342" 
d="M390 260q0 -14 -23 -43l-46 -53q-17 -20 -58 -56l-35 -49q32 15 42 15q13 0 13 -14l-2 -13q-1 -5 -18 -12l-21 -8q-27 -14 -29 -16q-3 -2 -13 -8t-14 -9l-33 -60q-30 -60 -49 -93q-37 -66 -81 -116q-51 -58 -81 -58q-20 0 -33.5 24.5t-13.5 58.5q0 46 42 113q17 26 43 52
q49 49 112 79l56 26l12 17q-22 -15 -62 -31q-34 -15 -48 -15q-22 0 -38 11t-16 30q0 37 44 113q45 77 84 111q52 46 101 67q40 17 77 17q25 0 47 -16.5t25 -39.5l11 -9q5 -7 5 -15zM329 276q-10 19 -36 19q-71 0 -142 -74q-35 -36 -69 -92q-35 -60 -38 -82q-2 -12 10 -12
q16 0 58 20q39 19 72 47q14 9 36 31l21 22l49 72q3 5 19 24t20 25zM123 -30q-14 -6 -30 -17q-27 -19 -36 -26q-37 -28 -52 -43q-24 -24 -41 -54q-27 -49 -27 -79q0 -36 16 -36q13 0 50 51l62 95q9 15 24 43q25 46 34 66zM504 584q0 -10 -21 -40q-22 -32 -51 -56
q-65 -52 -99 -52q-30 0 -89 44q-26 20 -38 32q-23 25 -23 41q0 17 27 21q11 2 32 -21q12 -14 26 -24l33 -26q19 -15 28 -15q30 0 77 38q35 29 50 64q10 30 22 30q26 0 26 -36z" />
    <glyph glyph-name="gcommaaccent" unicode="&#x123;" horiz-adv-x="342" 
d="M390 260q0 -14 -23 -43l-46 -53l-23 -25l-35 -31l-35 -49l24 10l18 5q11 0 13 -14l-2 -13l-4 -4q-7 -5 -14 -8l-21 -8l-29 -16q-16 -7 -27 -17l-33 -60l-49 -93q-35 -63 -81 -116q-52 -58 -81 -58q-20 0 -33.5 24.5t-13.5 58.5q0 19 11 50q9 28 31 63q17 26 43 52l42 38
q22 16 70 41l56 26l12 17q-23 -14 -61 -31q-36 -15 -49 -15q-22 0 -38 11t-16 30q0 37 44 113q45 75 84 111q49 44 101 67q42 17 77 17q25 0 46 -15.5t26 -40.5l11 -9q4 -5 5 -15zM308 250l21 26q-10 19 -36 19q-69 0 -142 -73q-31 -31 -68 -92q-34 -55 -39 -83
q-2 -12 10 -12q18 0 58 20q47 25 72 47q18 13 36 31l21 22l49 72zM89 -96l34 66q-18 -7 -30 -17q-18 -10 -36 -26q-36 -27 -52 -43q-21 -21 -41 -54q-27 -48 -27 -79q0 -36 16 -36q11 0 50 51l62 95zM249 428q0 12 36 77l42 71l37 59q18 28 26 30q26 0 26 -30q0 -10 -24 -49
l-30 -48l-24 -40q-20 -36 -23 -49v-21q0 -12 -11.5 -23.5t-25.5 -11.5q-11 0 -20 11.5t-9 23.5z" />
    <glyph glyph-name="imacron" unicode="&#x12b;" horiz-adv-x="264" 
d="M320 104q-2 -11 -56 -38l-57 -27q-105 -50 -149 -50q-31 0 -45 10.5t-14 39.5q0 36 40 104q17 29 48 75q21 31 58 71q35 38 42 37q24 -4 24 -28l-60 -75q-45 -57 -67 -94q-30 -45 -36 -84q0 -10 16 -10q35 0 128 40q4 1 12 5t25 11.5l32 14.5q39 17 45 17q6 1 10 -5
t4 -14zM418 455q0 -27 -20 -32q-6 -2 -59 -2q-49 0 -92 1q-42 1 -83 1q-5 0 -56 -3q-32 -6 -33 32q0 27 57 27h26q46 0 83 1q177 0 177 -25z" />
    <glyph glyph-name="iogonek" unicode="&#x12f;" horiz-adv-x="332" 
d="M306 465q0 -11 -2 -27q-1 -5 -2.5 -10.5t-3 -9.5t-1.5 -7q-10 -36 -22 -37q-18 0 -18 16v13q0 6 -2 12q0 6 -5 14l-4 16q0 16 14 31q13 15 23 16q23 0 23 -27zM316 117l4 -13q-1 -10 -56 -38l-57 -27q-49 -24 -86 -36l-36 -10l2 -10q2 -6 2 -11q-2 -14 -2 -19
q0 -16 -31 -53t-31 -51q0 -26 20.5 -40.5t50.5 -14.5q14 0 39.5 2.5t31.5 2.5q11 0 11 -20q0 -10 -24.5 -18t-51.5 -8q-6 1 -13 1q-44 4 -73.5 26.5t-29.5 56.5q0 28 26 69t26 55q0 6 -6.5 18.5t-6.5 13.5l-12 6q-14 9 -14 40q0 34 40 104q15 27 48 75q20 30 56 69t44 39
q24 -4 24 -28l-60 -75q-36 -44 -67 -94q-9 -9 -24 -44q-9 -21 -12 -40q0 -9 16 -10q19 0 52 11q29 9 76 29l69 31q30 14 45 17q6 0 10 -6z" />
    <glyph glyph-name="dotlessi" unicode="&#x131;" horiz-adv-x="264" 
d="M320 104q-2 -11 -56 -38l-57 -27q-105 -50 -149 -50q-31 0 -45 10.5t-14 39.5q0 36 40 104q17 29 48 75q21 31 58 71q35 38 42 37q24 -4 24 -28l-60 -75q-45 -57 -67 -94q-30 -45 -36 -84q0 -10 16 -10q35 0 128 40q4 1 12 5t25 11.5l32 14.5q39 17 45 17q6 1 10 -5
t4 -14z" />
    <glyph glyph-name="kcommaaccent" unicode="&#x137;" horiz-adv-x="327" 
d="M449 572q0 -20 -65 -85q-7 -8 -71 -72l-26 -27q-1 -1 -40 -47l-30 -36q-17 -21 -32 -43q13 6 38 23q56 40 81 53q37 18 55 25q29 12 40 12q18 0 27 -11t6 -26q-7 -31 -40 -64q-44 -47 -64 -41q-6 1 -6 13q0 4 30 35q30 32 32 41l-3 4q-24 0 -84 -39q-51 -36 -59 -43
l-51 -41q0 -25 1 -52l3 -65q0 -18 5 -36t11 -18q15 0 66 32q18 10 50 30q29 18 33 17l7 -3q8 -7 7 -14t-31 -30q-21 -17 -56 -38q-24 -14 -50 -26q-27 -13 -39 -13q-41 0 -49 84v50v17v13q-2 12 -2 13q-21 -21 -42 -45l-48 -56l-74 -88q-19 -22 -36 -17q-17 2 -12 17
q1 17 46 71q29 34 42 54l62 82q34 43 45 71l-31 -24q-20 -14 -26 -14q-17 -3 -17 18q0 4 2 10q3 5 38 32q7 5 20 16t14 12l93 83l110 131q72 85 102 85q7 0 13 -10.5t5 -19.5zM132 -78q0 -15 -32 -62q-55 -82 -127 -152q-33 -33 -45 -34q-14 2 -17 13q0 15 45 70l42 51
l36 48q21 30 30 54q2 6 -0.5 18t-1.5 16q6 12 34 12q31 -2 36 -34z" />
    <glyph glyph-name="lacute" unicode="&#x13a;" horiz-adv-x="272" 
d="M574 898q-2 -13 -53 -56q-29 -24 -47 -46q-25 -27 -42 -56q-18 -30 -38 -60l-2 -3l-3.5 -10t-5.5 -14q-6 -15 -17 -13q-19 3 -22 24q-5 24 24 71q21 37 62 87q28 34 65 68t49 34t21 -7.5t9 -18.5zM374 564q0 -27 -30 -84q-44 -78 -56 -96l-58 -88l-64 -96
q-71 -106 -89 -130l-45 -62q-16 -21 -22 -23q-8 -2 -17 1.5t-10 8.5q-5 20 33 71l45 61l65 96l71 107l66 105q49 82 49 95q0 4 -3 9t-3 7q0 12 16 25q16 15 30 15q22 0 22 -22z" />
    <glyph glyph-name="lcommaaccent" unicode="&#x13c;" horiz-adv-x="312" 
d="M495 515q0 -18 -23 -50q-23 -31 -49 -51q-45 -39 -122 -88q-28 -19 -87 -49q-57 -30 -71 -39q-48 -54 -76 -125q-18 -54 -18 -79q0 -18 20 -18q26 0 84 31q18 9 65 36l96 55q50 29 54 29q7 0 12.5 -6t4.5 -13q0 -15 -115 -82q-25 -16 -97 -54q-25 -14 -63 -27t-54 -12
q-31 0 -43.5 15t-12.5 46q0 19 17 68q12 36 31 74q14 29 47 76q31 45 35 52q47 81 66 106q57 76 102 116q43 37 88 55q21 10 40 10q22 0 42 -15q27 -20 27 -61zM448 505q4 13 -5 25.5t-20 12.5q-29 3 -64 -22q-48 -34 -103 -107q-8 -10 -37 -51q-35 -51 -40 -61q18 8 65 36
q55 34 86 56q43 30 76.5 61.5t41.5 49.5zM172 -98q0 -15 -32 -62q-55 -82 -127 -152q-33 -33 -45 -34q-14 2 -17 13q0 15 45 70l42 51l36 48q21 30 30 54q2 6 -0.5 18t-1.5 16q6 12 34 12q31 -2 36 -34z" />
    <glyph glyph-name="lcaron" unicode="&#x13e;" horiz-adv-x="543" 
d="M608 544q3 -15 -16 -56q-17 -39 -44 -84q-67 -111 -82 -111q-14 0 -17 9q-3 12 29 68q24 41 29 52l25 48q13 30 18 53q2 6 -3.5 16.5t-4.5 13.5q6 11 29 16q13 0 24.5 -7t12.5 -18zM495 515q0 -18 -23 -50q-23 -31 -49 -51q-45 -39 -122 -88q-28 -19 -87 -49
q-57 -30 -71 -39q-48 -54 -76 -125q-18 -54 -18 -79q0 -18 20 -18q26 0 84 31q18 9 65 36l96 55q50 29 54 29q7 0 12.5 -6t4.5 -13q0 -15 -115 -82q-25 -16 -97 -54q-25 -14 -63 -27t-54 -12q-31 0 -43.5 15t-12.5 46q0 19 17 68q12 36 31 74q14 29 47 76q31 45 35 52
q47 81 66 106q57 76 102 116q43 37 88 55q21 10 40 10q22 0 42 -15q27 -20 27 -61zM448 505q4 13 -5 25.5t-20 12.5q-29 3 -64 -22q-48 -34 -103 -107q-8 -10 -37 -51q-35 -51 -40 -61q18 8 65 36q55 34 86 56q43 30 76.5 61.5t41.5 49.5z" />
    <glyph glyph-name="lslash" unicode="&#x142;" horiz-adv-x="312" 
d="M495 515q0 -18 -23 -50q-23 -31 -49 -51q-45 -39 -122 -88q-28 -19 -87 -49q-57 -30 -71 -39l-19 -24q82 19 104 19q11 0 16 -2.5t5.5 -5t0.5 -7.5v-3q0 -17 -11 -23q-14 -6 -82 -23l-72 -18l-18 -38q-18 -54 -18 -79q0 -18 20 -18q26 0 84 31q18 9 65 36l96 55
q50 29 54 29q7 0 12.5 -6t4.5 -13q0 -15 -115 -82q-25 -16 -97 -54q-25 -14 -63 -27t-54 -12q-31 0 -43.5 15t-12.5 46q0 24 31 103l-57 -18q-16 0 -23 24q-5 19 20 29q4 2 46 13l43 12q6 11 23 38l47 69q47 81 66 106q57 76 102 116q43 37 88 55q21 10 40 10q22 0 42 -15
q27 -20 27 -61zM448 505q4 13 -5 25.5t-20 12.5q-29 3 -64 -22q-48 -34 -103 -107q-8 -10 -37 -51q-35 -51 -40 -61q18 8 65 36q55 34 86 56q43 30 76.5 61.5t41.5 49.5z" />
    <glyph glyph-name="nacute" unicode="&#x144;" horiz-adv-x="409" 
d="M504 625q-2 -11 -48 -51q-42 -38 -79 -92l-35 -54l-8 -20q-5 -18 -17 -16q-17 3 -20 22q-3 23 22 64q20 34 56 78q24 32 58 62q33 30 44 30q9 0 18 -7t9 -16zM471 130q-3 -11 -58 -39q-3 -1 -55 -29q-34 -19 -94 -48q-52 -24 -65 -24q-7 -1 -14 2q-14 8 -14 21q0 3 3 18
q6 21 23 53l39 76q45 80 49 98v9q-4 3 -31 -15q-13 -9 -28 -18l-52 -42q-63 -55 -104 -110q-5 -6 -11.5 -15t-10.5 -14l-7 -9l-25 -34q-25 -33 -36 -35q-20 -5 -20 12q0 1 2 9q0 7 20 38l23 33l92 144l27 43l27 45l38 59q19 30 27 32q11 4 17 -3t4 -20q0 -7 -21 -38
q-11 -16 -20 -31q-11 -18 -23 -45l-10 -20l51 39q24 17 53 29.5t42 12.5q15 2 22.5 -9.5t5.5 -25.5q-4 -21 -49 -107l-37 -76q-21 -42 -21 -46q-1 -1 -1 -4v-1q9 0 44 16l72 34l67 34q38 20 45 20t11.5 -6t2.5 -13z" />
    <glyph glyph-name="ncommaaccent" unicode="&#x146;" horiz-adv-x="409" 
d="M471 130q-3 -11 -58 -39q-3 -1 -55 -29q-34 -19 -94 -48q-52 -24 -65 -24q-7 -1 -14 2q-14 8 -14 21q0 3 3 18q6 21 23 53l39 76q45 80 49 98v9q-4 3 -31 -15q-13 -9 -28 -18l-52 -42q-63 -55 -104 -110q-5 -6 -11.5 -15t-10.5 -14l-7 -9l-25 -34q-25 -33 -36 -35
q-20 -5 -20 12q0 1 2 9q0 7 20 38l23 33l92 144l27 43l27 45l38 59q19 30 27 32q11 4 17 -3t4 -20q0 -7 -21 -38q-11 -16 -20 -31q-11 -18 -23 -45l-10 -20l51 39q24 17 53 29.5t42 12.5q15 2 22.5 -9.5t5.5 -25.5q-4 -21 -49 -107l-37 -76q-21 -42 -21 -46q-1 -1 -1 -4v-1
q9 0 44 16l72 34l67 34q38 20 45 20t11.5 -6t2.5 -13zM142 -68q0 -15 -32 -62q-55 -82 -127 -152q-33 -33 -45 -34q-14 2 -17 13q0 15 45 70l42 51l36 48q21 30 30 54q2 6 -0.5 18t-1.5 16q6 12 34 12q31 -2 36 -34z" />
    <glyph glyph-name="ncaron" unicode="&#x148;" horiz-adv-x="409" 
d="M471 130q-3 -11 -58 -39q-3 -1 -55 -29q-34 -19 -94 -48q-52 -24 -65 -24q-7 -1 -14 2q-14 8 -14 21q0 3 3 18q6 21 23 53l39 76q45 80 49 98v9q-4 3 -31 -15q-13 -9 -28 -18l-52 -42q-63 -55 -104 -110q-5 -6 -11.5 -15t-10.5 -14l-7 -9l-25 -34q-25 -33 -36 -35
q-20 -5 -20 12q0 1 2 9q0 7 20 38l23 33l92 144l27 43l27 45l38 59q19 30 27 32q11 4 17 -3t4 -20q0 -7 -21 -38q-11 -16 -20 -31q-11 -18 -23 -45l-10 -20l51 39q24 17 53 29.5t42 12.5q15 2 22.5 -9.5t5.5 -25.5q-4 -21 -49 -107l-37 -76q-21 -42 -21 -46q-1 -1 -1 -4v-1
q9 0 44 16l72 34l67 34q38 20 45 20t11.5 -6t2.5 -13zM392 574l-39 -99l-19 -50q-14 -27 -30 -24q-6 1 -10 6.5t-5.5 9.5t-4.5 17l-35 85q-19 45 -19 61q0 11 9 18t20 6q14 -3 25 -32q17 -51 25 -62q1 2 3.5 7.5l5 11t4.5 11.5l24 56q10 19 22 18q12 -2 19 -14.5t5 -25.5z
" />
    <glyph glyph-name="omacron" unicode="&#x14d;" horiz-adv-x="280" 
d="M345 132q-2 -13 -69 -53q-62 -39 -124 -66q-48 -23 -85 -35q-41 -14 -54 -12q-42 0 -37 46q0 24 18 58q15 28 38 58q16 22 50 59q15 17 53 55q1 3 1 8q3 7 31 29q31 24 54 38q48 27 73 24q47 0 47 -50q0 -30 -19 -68q-9 -18 -36 -63q-12 -19 -18 -26q-11 -14 -32 -35
l12 6q1 0 4.5 2l11 6l14.5 8q49 26 51 25q16 -3 16 -14zM301 277q0 11 -3 15q-6 10 -19 10q-21 0 -52 -22q-20 -13 -37 -32q13 -4 10 -15q0 -7 -21.5 -30t-48.5 -44q-69 -56 -75 -92q-2 -12 8 -22q7 -11 13 -15q30 7 83 52q36 30 60 58q75 79 82 137zM35 11l-6 9l-4 12
q-7 -7 -8 -15q1 -9 6 -11q4 0 12 5zM515 468q0 -27 -20 -32q-6 -2 -59 -2q-49 0 -92 1q-42 1 -83 1q-5 0 -56 -3q-32 -6 -33 32q0 27 57 27h26q46 0 83 1q177 0 177 -25z" />
    <glyph glyph-name="ohungarumlaut" unicode="&#x151;" horiz-adv-x="280" 
d="M345 132q-2 -13 -69 -53q-62 -39 -124 -66q-48 -23 -85 -35q-41 -14 -54 -12q-42 0 -37 46q0 24 18 58q15 28 38 58q16 22 50 59q15 17 53 55q1 3 1 8q3 7 31 29q31 24 54 38q48 27 73 24q47 0 47 -50q0 -30 -19 -68q-9 -18 -36 -63q-12 -19 -18 -26q-11 -14 -32 -35
l12 6q1 0 4.5 2l11 6l14.5 8q49 26 51 25q16 -3 16 -14zM301 277q0 11 -3 15q-6 10 -19 10q-21 0 -52 -22q-20 -13 -37 -32q13 -4 10 -15q0 -7 -21.5 -30t-48.5 -44q-69 -56 -75 -92q-2 -12 8 -22q7 -11 13 -15q30 7 83 52q36 30 60 58q75 79 82 137zM35 11l-6 9l-4 12
q-7 -7 -8 -15q1 -9 6 -11q4 0 12 5zM487 634q-3 -16 -16 -49q-14 -37 -34 -76q-43 -80 -48 -88q-26 -41 -42 -38q-10 1 -10 18q0 11 30 65q18 32 32 61l13 32q10 24 15 43q2 10 2 14q-1 7 -1 18q2 10 11 18.5t20 8.5q13 0 21.5 -7.5t6.5 -19.5zM379 615q0 -11 -22 -51
l-48 -82l-39 -63q-12 -17 -18 -18q-23 0 -23 27q0 10 21 45l49 79q20 35 20 44v19q0 11 10 21t22 10q11 0 19.5 -10.5t8.5 -20.5z" />
    <glyph glyph-name="oe" unicode="&#x153;" horiz-adv-x="573" 
d="M562 304q-4 -31 -66 -82q-46 -39 -129 -90q-62 -37 -101 -51q-15 -20 -22 -54q0 -13 19 -13q33 0 144 58q18 9 63 40q35 24 40 24q6 1 12 -8t6 -18q1 -3 -7.5 -10.5t-27.5 -20.5q-29 -20 -72 -46q-116 -67 -172 -67q-49 0 -49 66q0 14 14 47l-58 -49q-37 -30 -84 -49
q-43 -16 -59 -15q-42 0 -37 46q0 24 18 58q15 28 38 58q16 22 50 59q15 17 53 55q1 3 1 8q3 7 31 29q31 24 54 38q48 27 73 24q47 0 47 -50q0 -10 -1 -13l-4 -22q48 46 90 68q49 26 95 26q20 0 32 -14t9 -32zM515 301q1 3 -1.5 4t-7.5 2q-21 0 -61 -22q-48 -26 -113 -96
q-24 -27 -34 -47q34 15 69 39l43 31q40 26 70 49q33 26 35 40zM301 277q0 11 -3 15q-6 10 -19 10q-21 0 -52 -22q-20 -13 -37 -32q13 -4 10 -15q0 -7 -21.5 -30t-48.5 -44q-69 -56 -75 -92q-2 -12 8 -22q7 -11 13 -15q30 7 83 52q36 30 60 58q75 79 82 137zM35 11l-6 9
l-4 12q-7 -7 -8 -15q1 -9 6 -11q4 0 12 5z" />
    <glyph glyph-name="racute" unicode="&#x155;" horiz-adv-x="275" 
d="M420 619q-2 -11 -48 -51q-42 -38 -79 -92l-35 -54l-8 -20q-5 -18 -17 -16q-17 3 -20 22q-3 23 22 64q20 34 56 78q24 32 58 62q33 30 44 30q9 0 18 -7t9 -16zM335 314q-1 -5 -25 -23l-27 -17q-18 -14 -49 -42q-32 -29 -117 -124q-57 -66 -58 -90l4 -6q15 0 65 24
q9 4 55 28l81 42q46 23 50 23q13 0 13 -24q0 -4 -44 -30l-82 -45q-65 -32 -77 -39q-41 -20 -53 -21q-18 -2 -21 -2q-43 0 -39 40q0 19 22 56.5t59 78.5q22 25 46 49l40 39.5l19 18.5q-37 -11 -50 -11q-27 0 -46 28q-6 -8 -26 -25q-17 -14 -20 -14q-10 0 -14 3.5t-3 11.5
q-1 8 22 31l31 30q3 3 11.5 12.5t13 14l11.5 11t11.5 9.5t7.5 3q6 1 11 -5t5 -13q-2 -9 -12 -31q-6 -12 -6 -14q-2 -14 5 -14q9 0 36 9l30 10q33 13 66 31q29 14 41 12q21 0 13 -25z" />
    <glyph glyph-name="rcaron" unicode="&#x159;" horiz-adv-x="275" 
d="M335 314q-1 -5 -25 -23l-27 -17q-18 -14 -49 -42q-32 -29 -117 -124q-57 -66 -58 -90l4 -6q15 0 65 24q9 4 55 28l81 42q46 23 50 23q13 0 13 -24q0 -4 -44 -30l-82 -45q-65 -32 -77 -39q-41 -20 -53 -21q-18 -2 -21 -2q-43 0 -39 40q0 19 22 56.5t59 78.5q22 25 46 49
l40 39.5l19 18.5q-37 -11 -50 -11q-27 0 -46 28q-6 -8 -26 -25q-17 -14 -20 -14q-10 0 -14 3.5t-3 11.5q-1 8 22 31l31 30q3 3 11.5 12.5t13 14l11.5 11t11.5 9.5t7.5 3q6 1 11 -5t5 -13q-2 -9 -12 -31q-6 -12 -6 -14q-2 -14 5 -14q9 0 36 9l30 10q33 13 66 31q29 14 41 12
q21 0 13 -25zM332 559l-39 -99l-19 -50q-14 -27 -30 -24q-6 1 -10 6.5t-5.5 9.5t-4.5 17q-8 17 -14.5 34l-12.5 32t-8 19q-19 45 -19 61q0 11 9 18t20 6q14 -3 25 -32q17 -51 25 -62q1 2 3.5 7.5l5 11t4.5 11.5l24 56q10 19 22 18q12 -2 19 -14.5t5 -25.5z" />
    <glyph glyph-name="sacute" unicode="&#x15b;" horiz-adv-x="284" 
d="M501 670q-1 -10 -48 -51q-42 -38 -79 -92l-35 -54l-8 -20q-5 -18 -17 -16q-17 3 -20 22q-3 23 22 64q20 34 56 78q24 32 58 62q33 30 44 30q9 0 18 -7t9 -16zM333 350q-5 -24 -39 -55q-34 -29 -50 -41l-4 -22q0 -21 9 -71q13 -61 12 -83q0 -42 -89 -76q-27 -10 -68 -18
q-40 -10 -57 -10h-24q-22 3 -19 21q5 20 33 20h28q15 0 61.5 13.5t60.5 21.5q30 16 31 34q0 9 -6 33q-1 6 -2.5 14t-3 13.5t-1.5 8.5q-7 37 -7 53q-15 -14 -33 -24l-38 -23q-59 -34 -79 -39q-6 -1 -12.5 6t-4.5 13q3 7 24 21q75 48 76 49l40 29q17 15 26 26q1 12 3 17
q6 13 7 15q13 34 43 66q30 31 58 31t28 -25q0 -8 -3 -18zM291 347l-1 4q-3 0 -8 -5q-22 -22 -27 -42l21 22q2 3 6 8.5t6 9.5z" />
    <glyph glyph-name="scedilla" unicode="&#xf6c2;" horiz-adv-x="284" 
d="M285 339l6 8l-1 4l-8 -5l-14 -18q-9 -13 -13 -24l21 22zM106 -25l1 10l-24 -6l-58 -4q-24 0 -21 20q5 20 33 20h28l36 6l51 15l35 14q28 15 31 34l-6 33l-7 36l-5 27l-2 26l-33 -24l-38 -23l-48 -27l-31 -12h-2q-3 1 -5 2.5l-4.5 3.5t-4 5.5t-1.5 7.5q3 7 24 21l76 49
l40 29q12 9 26 26l3 17l7 15q13 36 44 67q30 30 57 30q24 0 28 -25l-3 -18q-4 -22 -39 -55l-50 -41l-4 -22l2 -26l7 -45l9 -49l3 -34q0 -19 -23.5 -39t-61.5 -36l-15 -5q4 -4 5 -12q0 -5 -4 -10q-9 -14 -9 -22t34 -66q16 -28 16 -52q0 -33 -28 -54.5t-71 -25.5q-3 -1 -13 -1
q-27 0 -49 7.5t-22 17.5q0 19 10 19q1 0 5 -0.5t11.5 -1t15.5 -0.5q28 -3 36 -3q28 0 48 13t20 34q0 15 -30 53t-30 52q-2 18 -2 19z" />
    <glyph glyph-name="scedilla" unicode="&#x15f;" horiz-adv-x="284" 
d="M285 339l6 8l-1 4l-8 -5l-14 -18q-9 -13 -13 -24l21 22zM106 -25l1 10l-24 -6l-58 -4q-24 0 -21 20q5 20 33 20h28l36 6l51 15l35 14q28 15 31 34l-6 33l-7 36l-5 27l-2 26l-33 -24l-38 -23l-48 -27l-31 -12h-2q-3 1 -5 2.5l-4.5 3.5t-4 5.5t-1.5 7.5q3 7 24 21l76 49
l40 29q12 9 26 26l3 17l7 15q13 36 44 67q30 30 57 30q24 0 28 -25l-3 -18q-4 -22 -39 -55l-50 -41l-4 -22l2 -26l7 -45l9 -49l3 -34q0 -19 -23.5 -39t-61.5 -36l-15 -5q4 -4 5 -12q0 -5 -4 -10q-9 -14 -9 -22t34 -66q16 -28 16 -52q0 -33 -28 -54.5t-71 -25.5q-3 -1 -13 -1
q-27 0 -49 7.5t-22 17.5q0 19 10 19q1 0 5 -0.5t11.5 -1t15.5 -0.5q28 -3 36 -3q28 0 48 13t20 34q0 15 -30 53t-30 52q-2 18 -2 19z" />
    <glyph glyph-name="scaron" unicode="&#x161;" horiz-adv-x="284" 
d="M333 350q-5 -24 -39 -55q-34 -29 -50 -41l-4 -22q0 -21 9 -71q13 -61 12 -83q0 -42 -89 -76q-27 -10 -68 -18q-40 -10 -57 -10h-24q-22 3 -19 21q5 20 33 20h28q15 0 61.5 13.5t60.5 21.5q30 16 31 34q0 9 -6 33q-1 6 -2.5 14t-3 13.5t-1.5 8.5q-7 37 -7 53
q-15 -14 -33 -24l-38 -23q-59 -34 -79 -39q-6 -1 -12.5 6t-4.5 13q3 7 24 21q75 48 76 49l40 29q17 15 26 26q1 12 3 17q6 13 7 15q13 34 43 66q30 31 58 31t28 -25q0 -8 -3 -18zM291 347l-1 4q-3 0 -8 -5q-22 -22 -27 -42l21 22q2 3 6 8.5t6 9.5zM389 635l-39 -99l-19 -50
q-13 -27 -30 -24q-6 1 -10 6.5t-5.5 9.5t-4.5 17q-8 17 -14.5 34l-12.5 32t-8 19q-19 45 -19 61q0 11 9 18t20 6q14 -3 25 -32q17 -51 25 -62q1 2 3.5 7.5l5 11t4.5 11.5l24 56q10 19 22 18q12 -2 19 -14.5t5 -25.5z" />
    <glyph glyph-name="tcommaaccent" unicode="&#x21b;" horiz-adv-x="293" 
d="M433 590q0 -10 -20 -52q-18 -38 -44 -75l-18 -24l-33 -37l-47 -48h46q58 0 64 -16q1 -3 0 -6q-8 -21 -23 -21q-6 0 -29 2t-31 2l-82 -6l-27.5 -36.5l-20.5 -26.5t-7 -10q-35 -48 -54 -80q-21 -33 -40 -78q-18 -40 -18 -62q0 -7 12 -7q23 0 135 43q23 9 106 51
q31 16 36 16q16 0 16 -24q-1 -7 -53 -35q-47 -26 -104 -50q-60 -27 -111 -42l1 -7q0 -12 -21 -53q-14 -28 -50 -87q-19 -34 -33 -55q-19 -30 -26 -30q-25 0 -25 28q0 11 22 46l28 45l30 51q14 24 15 34q-2 9 0 20l1 6q-34 9 -30 38q5 42 32 97q25 53 64 111l64 90
q-28 0 -62 -6q-29 -4 -96 -17q-9 -2 -15 6.5t-3 16.5q4 16 55 24l71 11q47 8 85 11l41 72q26 45 53 84q34 48 72 82q34 29 48 29q9 2 17.5 -5.5t8.5 -19.5zM372 542q-18 -12 -46 -54l-29 -41q-20 -30 -25 -43q12 10 36 38q18 21 32 42q27 38 32 58z" />
    <glyph glyph-name="tcommaaccent" unicode="&#x163;" horiz-adv-x="293" 
d="M433 590q0 -10 -20 -52q-18 -38 -44 -75l-18 -24l-33 -37l-47 -48h46q58 0 64 -16q1 -3 0 -6q-8 -21 -23 -21q-6 0 -29 2t-31 2l-82 -6l-27.5 -36.5l-20.5 -26.5t-7 -10q-35 -48 -54 -80q-21 -33 -40 -78q-18 -40 -18 -62q0 -7 12 -7q23 0 135 43q23 9 106 51
q31 16 36 16q16 0 16 -24q-1 -7 -53 -35q-47 -26 -104 -50q-60 -27 -111 -42l1 -7q0 -12 -21 -53q-14 -28 -50 -87q-19 -34 -33 -55q-19 -30 -26 -30q-25 0 -25 28q0 11 22 46l28 45l30 51q14 24 15 34q-2 9 0 20l1 6q-34 9 -30 38q5 42 32 97q25 53 64 111l64 90
q-28 0 -62 -6q-29 -4 -96 -17q-9 -2 -15 6.5t-3 16.5q4 16 55 24l71 11q47 8 85 11l41 72q26 45 53 84q34 48 72 82q34 29 48 29q9 2 17.5 -5.5t8.5 -19.5zM372 542q-18 -12 -46 -54l-29 -41q-20 -30 -25 -43q12 10 36 38q18 21 32 42q27 38 32 58z" />
    <glyph glyph-name="umacron" unicode="&#x16b;" horiz-adv-x="418" 
d="M489 344q0 -20 -26 -51l-33 -36l-38 -37l-42 -38l-80 -92q-34 -43 -39 -76q0 -9 2 -11q24 0 108 45l74 42q41 24 45 24q20 0 18 -18q0 -9 -38 -35q-42 -26 -71 -41q-68 -35 -89 -44q-47 -22 -67 -22q-17 -2 -27.5 6t-9.5 23q0 18 11 48l14 36q-59 -40 -89 -57
q-61 -37 -83 -37q-20 0 -29 7.5t-7 26.5q5 31 35 89q57 112 136 198q41 44 53 44q22 0 17 -20q-2 -9 -41 -50q-37 -44 -75 -102q-31 -49 -49 -84q-22 -43 -24 -58l1 -4q23 -5 148 94l62 48q45 36 68 59l75 88q19 21 41 41q20 18 30 18q19 0 19 -24zM648 506q0 -27 -20 -32
q-6 -2 -59 -2q-49 0 -92 1q-42 1 -83 1q-5 0 -56 -3q-32 -6 -33 32q0 27 57 27h26q46 0 83 1q177 0 177 -25z" />
    <glyph glyph-name="uring" unicode="&#x16f;" horiz-adv-x="418" 
d="M489 344q0 -20 -26 -51l-33 -36l-38 -37l-42 -38l-80 -92q-34 -43 -39 -76q0 -9 2 -11q24 0 108 45l74 42q41 24 45 24q20 0 18 -18q0 -9 -38 -35q-42 -26 -71 -41q-68 -35 -89 -44q-47 -22 -67 -22q-17 -2 -27.5 6t-9.5 23q0 18 11 48l14 36q-59 -40 -89 -57
q-61 -37 -83 -37q-20 0 -29 7.5t-7 26.5q5 31 35 89q57 112 136 198q41 44 53 44q22 0 17 -20q-2 -9 -41 -50q-37 -44 -75 -102q-31 -49 -49 -84q-22 -43 -24 -58l1 -4q23 -5 148 94l62 48q45 36 68 59l75 88q19 21 41 41q20 18 30 18q19 0 19 -24zM520 559q0 -42 -58 -94
q-56 -52 -102 -52q-34 0 -48 23q-10 16 -10 46q0 10 11 41q12 31 26 31q20 0 25 -5t5 -22q1 -6 -4 -28q-4 -17 -4 -24l7 -4q21 0 56 31q36 32 36 51q-8 0 -34 -13q-26 -14 -32 -12t-10 6q-9 10 -4 19q9 18 38 38t51 20t36.5 -13.5t14.5 -38.5z" />
    <glyph glyph-name="uhungarumlaut" unicode="&#x171;" horiz-adv-x="418" 
d="M489 344q0 -20 -26 -51l-33 -36l-38 -37l-42 -38l-80 -92q-34 -43 -39 -76q0 -9 2 -11q24 0 108 45l74 42q41 24 45 24q20 0 18 -18q0 -9 -38 -35q-42 -26 -71 -41q-68 -35 -89 -44q-47 -22 -67 -22q-17 -2 -27.5 6t-9.5 23q0 18 11 48l14 36q-59 -40 -89 -57
q-61 -37 -83 -37q-20 0 -29 7.5t-7 26.5q5 31 35 89q57 112 136 198q41 44 53 44q22 0 17 -20q-2 -9 -41 -50q-37 -44 -75 -102q-31 -49 -49 -84q-22 -43 -24 -58l1 -4q23 -5 148 94l62 48q45 36 68 59l75 88q19 21 41 41q20 18 30 18q19 0 19 -24zM559 670q-3 -16 -16 -49
q-14 -37 -34 -76q-43 -80 -48 -88q-26 -41 -42 -38q-10 1 -10 18q0 11 30 65q18 32 32 61l13 32q10 24 15 43q2 10 2 14q-1 7 -1 18q2 10 11 18.5t20 8.5q13 0 21.5 -7.5t6.5 -19.5zM451 651q0 -11 -22 -51l-48 -82l-39 -63q-12 -17 -18 -18q-23 0 -23 27q0 10 21 45l49 79
q20 35 20 44v19q0 11 10 21t22 10q11 0 19.5 -10.5t8.5 -20.5z" />
    <glyph glyph-name="uogonek" unicode="&#x173;" horiz-adv-x="486" 
d="M421 49l-52 -29l-89 -44q-47 -22 -67 -22q-16 -1 -28 6q-9 8 -9 23q0 18 11 48q7 21 14 36l-42 -27l-47 -30q-62 -37 -83 -37q-19 0 -27.5 6.5t-8.5 27.5q3 27 35 90q56 108 136 197q37 42 53 44q20 0 17 -20q-2 -9 -16 -23l-25 -27q-36 -42 -75 -102q-27 -42 -49 -84
q-21 -43 -24 -58l1 -4q24 -5 148 94l62 48q45 36 68 59l75 88l41 41q20 18 30 18q19 0 19 -24q0 -22 -26 -51l-33 -36l-38 -37l-42 -38l-80 -92q-33 -43 -39 -76v-8l2 -3q9 0 38 12l36 15q11 5 34 18l74 42q7 5 38 20l7 4q18 0 18 -18l-3 -7l3 -5q2 -8 -1 -14q-3 -9 0 -17
q2 -6 2 -11q-2 -14 -2 -19q0 -16 -31 -53t-31 -51q0 -26 20.5 -40.5t50.5 -14.5q14 0 39.5 2.5t31.5 2.5q11 0 11 -20q0 -10 -24.5 -18t-51.5 -8q-6 1 -13 1q-44 4 -73.5 26.5t-29.5 56.5q0 28 26 69t26 55q0 10 -7 18z" />
    <glyph glyph-name="zacute" unicode="&#x17a;" horiz-adv-x="386" 
d="M462 652q-2 -10 -48 -51q-42 -38 -79 -92l-35 -54l-8 -20q-5 -18 -17 -16q-17 3 -20 22q-3 23 22 64q20 34 56 78q24 32 58 62q33 30 44 30q9 0 18 -7t9 -16zM456 162q0 -5 -12 -10.5t-26 -5.5l-80 2q-24 0 -56 -3q-67 -7 -78 -7q-59 -34 -71 -42q-33 -22 -59 -41
q-29 -23 -34 -35q0 -8 28 -8q13 0 70 12q53 11 105 26q57 18 91 26q44 12 55 12q22 0 19 -20q-1 -8 -153 -59q-52 -17 -90 -25q-65 -16 -111 -16q-28 0 -50.5 15t-19.5 33q3 17 26 40l27 24q8 7 23 16q7 4 21 14l-32 -4q-18 0 -18 16v3v3t0.5 3.5t2.5 4t5 3.5t7.5 4.5
t11.5 4.5q16 5 63 12.5t74 15.5q14 7 42 25q18 11 69 52l47 40q13 12 15 17q1 7 -8 10t-27 3q-19 0 -74 -5q-70 -5 -158 -26q-27 -7 -46 -11q-13 -2 -20.5 5t-4.5 15q6 31 144 51q91 14 165 14q37 0 61 -13t20 -37q-1 -31 -81 -91q-36 -30 -52 -41q10 0 73 3l81 -2
q18 0 15 -23z" />
    <glyph glyph-name="zdotaccent" unicode="&#x17c;" horiz-adv-x="386" 
d="M279 481q4 -24 -14 -45.5t-43 -21.5q-7 0 -16 3t-19.5 14.5t-12.5 29.5q-3 24 14.5 45.5t40.5 21.5q1 0 11 -2q33 -8 39 -45zM456 162q0 -5 -12 -10.5t-26 -5.5l-80 2q-24 0 -56 -3q-67 -7 -78 -7q-59 -34 -71 -42q-33 -22 -59 -41q-29 -23 -34 -35q0 -8 28 -8
q13 0 70 12q53 11 105 26q57 18 91 26q44 12 55 12q22 0 19 -20q-1 -8 -153 -59q-52 -17 -90 -25q-65 -16 -111 -16q-28 0 -50.5 15t-19.5 33q3 17 26 40l27 24q8 7 23 16q7 4 21 14l-32 -4q-18 0 -18 16v3v3t0.5 3.5t2.5 4t5 3.5t7.5 4.5t11.5 4.5q16 5 63 12.5t74 15.5
q14 7 42 25q18 11 69 52l47 40q13 12 15 17q1 7 -8 10t-27 3q-19 0 -74 -5q-70 -5 -158 -26q-27 -7 -46 -11q-13 -2 -20.5 5t-4.5 15q6 31 144 51q91 14 165 14q37 0 61 -13t20 -37q-1 -31 -81 -91q-36 -30 -52 -41q10 0 73 3l81 -2q18 0 15 -23z" />
    <glyph glyph-name="zcaron" unicode="&#x17e;" horiz-adv-x="386" 
d="M456 162q0 -5 -12 -10.5t-26 -5.5l-80 2q-24 0 -56 -3q-67 -7 -78 -7q-59 -34 -71 -42q-33 -22 -59 -41q-29 -23 -34 -35q0 -8 28 -8q13 0 70 12q53 11 105 26q57 18 91 26q44 12 55 12q22 0 19 -20q-1 -8 -153 -59q-52 -17 -90 -25q-65 -16 -111 -16q-28 0 -50.5 15
t-19.5 33q3 17 26 40l27 24q8 7 23 16q7 4 21 14l-32 -4q-18 0 -18 16v3v3t0.5 3.5t2.5 4t5 3.5t7.5 4.5t11.5 4.5q16 5 63 12.5t74 15.5q14 7 42 25q18 11 69 52l47 40q13 12 15 17q1 7 -8 10t-27 3q-19 0 -74 -5q-70 -5 -158 -26q-27 -7 -46 -11q-13 -2 -20.5 5t-4.5 15
q6 31 144 51q91 14 165 14q37 0 61 -13t20 -37q-1 -31 -81 -91q-36 -30 -52 -41q10 0 73 3l81 -2q18 0 15 -23zM337 595l-39 -99l-19 -50q-13 -27 -30 -24q-6 1 -10 6.5t-5.5 9.5t-4.5 17q-8 17 -14.5 34l-12.5 32t-8 19q-19 45 -19 61q0 11 9 18t20 6q14 -3 25 -32
q17 -51 25 -62q1 2 3.5 7.5l5 11t4.5 11.5l24 56q10 19 22 18q12 -2 19 -14.5t5 -25.5z" />
    <glyph glyph-name="scommaaccent" unicode="&#x219;" horiz-adv-x="284" 
d="M333 350q-5 -24 -39 -55q-34 -29 -50 -41l-4 -22q0 -21 9 -71q13 -61 12 -83q0 -42 -89 -76q-27 -10 -68 -18q-40 -10 -57 -10h-24q-22 3 -19 21q5 20 33 20h28q15 0 61.5 13.5t60.5 21.5q30 16 31 34q0 9 -6 33q-1 6 -2.5 14t-3 13.5t-1.5 8.5q-7 37 -7 53
q-15 -14 -33 -24l-38 -23q-59 -34 -79 -39q-6 -1 -12.5 6t-4.5 13q3 7 24 21q75 48 76 49l40 29q17 15 26 26q1 12 3 17q6 13 7 15q13 34 43 66q30 31 58 31t28 -25q0 -8 -3 -18zM291 347l-1 4q-3 0 -8 -5q-22 -22 -27 -42l21 22q2 3 6 8.5t6 9.5zM172 -98q0 -15 -32 -62
q-55 -82 -127 -152q-33 -33 -45 -34q-14 2 -17 13q0 15 45 70l42 51l36 48q21 30 30 54q2 6 -0.5 18t-1.5 16q6 12 34 12q31 -2 36 -34z" />
    <glyph glyph-name="afii10023" unicode="&#x401;" horiz-adv-x="471" 
d="M608 379q0 -12 -6.5 -22.5t-17.5 -10.5q-10 0 -26 6l-75 18l-42 -2q-63 -8 -107 -18q-73 -18 -137 -54.5t-105 -83.5q-48 -54 -48 -106v-10q4 -35 37 -58.5t76 -23.5q46 3 73 7.5t83 25.5t121 59q61 37 70 43q8 3 15 -2t7 -15q0 -17 -62 -58q-62 -40 -126 -66
q-100 -42 -182 -42q-62 0 -108 34q-48 35 -52 87q-1 4 -1 19q0 74 66 145q53 56 128 93q12 6 24 11t27 10.5t26.5 9t29.5 8.5l28 8t31.5 8t29 7t31.5 7.5t30 6.5q-3 3 -17 23q-11 15 -31 47q-26 -10 -89 -39q-27 -13 -40 -17l-125 -42q-64 -21 -91 -21q-19 2 -23 15
q-2 8 6 15t28 13l54 15q60 16 114 40l153 60q0 5 -4 27t-4 29q0 43 35 84q36 42 84 42t68 -6q34 -10 39 -46q3 -30 -19 -55q-16 -17 -55 -45q-3 -2 -41 -23q-33 -18 -44 -25l22 -36q19 -27 39 -46q8 -1 20.5 -1.5t21.5 -2t19 -4.5q42 -13 42 -42zM554 646q-3 21 -35 21
q-10 0 -13 -1q-31 -5 -54.5 -28t-23.5 -49q-1 -6 -1 -14q0 -14 4 -25q25 13 70 43l36 30q17 17 17 23zM596 787q2 -18 -10 -33t-30 -15q-36 0 -41 30q-2 17 13 36t33 16q31 -3 35 -34zM376 769q2 -18 -9 -31t-29 -13t-29 11t-11 28q0 15 10.5 25.5t25.5 10.5q14 2 27 -7
t15 -24z" />
    <glyph glyph-name="afii10017" unicode="&#x410;" horiz-adv-x="531" 
d="M670 624q0 -17 -17 -49q-20 -39 -77 -121l-56 -82q-38 -57 -48 -74q31 0 47 1q47 0 47 -22q0 -21 -12 -27q-2 -2 -6.5 -1.5t-8 2t-6.5 2.5l-3 1q-48 0 -82 -10q-6 -9 -16 -33q-16 -40 -26 -57l-33 -68q-11 -18 -23 -18q-22 0 -24 22q-1 4 11 31l25 53l28 64
q-10 -2 -32 -11q-14 -5 -44 -21q-16 -16 -31 -25q-10 -7 -19 -9t-30 -16q-34 -63 -78 -126q-60 -84 -100 -84q-76 0 -76 82q0 40 38 76q31 29 80 50l50 17q25 9 32 13q-16 31 -16 42q0 19 12.5 31.5t29.5 12.5q10 0 34 -14l51 115q13 31 39 81q53 108 111 176q70 84 125 84
q28 0 48.5 -13t23.5 -31q32 -13 32 -44zM596 636q2 11 -6.5 20.5t-19.5 9.5q-48 0 -128 -116q-35 -52 -68 -112q-23 -40 -42 -85q-38 -85 -40 -89q43 14 66 28l36 28q19 15 38 36q30 31 38 42q34 42 66 122q10 22 39 72q19 31 21 44zM162 124q-42 -13 -58 -20
q-32 -14 -51 -32q-25 -22 -25 -44q0 -10 7.5 -21t16.5 -11q9 1 23 12l39 44q20 24 31 43q4 8 10 18t7 11z" />
    <glyph glyph-name="afii10018" unicode="&#x411;" horiz-adv-x="692" 
d="M886 688q0 -28 -20 -28q-82 12 -114 12q-69 0 -138 4q12 -15 27 -46q15 -28 12 -42q-4 -25 -25 -25q-7 1 -31 46q-10 22 -19 22q-19 0 -60 -59l-36 -54q-15 -25 -28 -58q-13 -32 -18 -43l74 21q34 7 74 7t69 -25t29 -62q0 -36 -28 -83q-17 -30 -45 -62q42 2 55 2h22
q49 0 74 -8.5t25 -32.5q0 -9 -17 -11q-12 -1 -40 3q-32 5 -44 5q-7 0 -63 -2q-12 0 -22.5 -0.5t-15.5 -0.5l-5 -1q-30 -34 -88 -78q-60 -45 -94 -65q-52 -31 -74 -31t-35.5 9t-13.5 24q0 33 42 75q34 34 92 70q17 10 45 22q39 16 58 20q16 1 41 4q30 25 56 65q30 44 30 66
q0 23 -16 36q-22 19 -51 19q-47 0 -98 -18q-37 -13 -71 -34q-50 -72 -92 -156q-43 -85 -107 -161q-81 -97 -138 -97q-43 0 -77 32q-34 31 -34 63q0 8 13.5 19.5t27.5 11.5q20 -1 49 -32q12 -13 25 -38l18 -2q19 -1 64 51q39 47 71 99l46 76q31 54 39 71q-12 -8 -31 -39
q-28 -38 -39 -38q-9 0 -16 6t-7 15q0 8 12 30q9 16 10 19q-37 13 -68 46q-47 45 -47 131q0 42 27 87q24 41 72 84q59 42 189 70q25 5 72 10l69 6q19 2 96 5q14 0 46.5 -0.5t50.5 -0.5q53 0 98 -9q46 -7 46 -22zM529 667h-25q-10 0 -36 -2q-16 -1 -63 -11t-81 -22
q-45 -15 -73 -37q-33 -26 -55.5 -66.5t-22.5 -72.5q0 -66 42 -105q26 -25 50 -28q1 1 20 17t28 21q7 5 18 10.5l20.5 10l11.5 5.5l78 153q13 29 42 70q25 36 46 57zM505 161h-7q-30 -8 -68 -30q-45 -27 -60 -38q-31 -22 -33 -37q-2 -7 3 -7q8 -4 46 20q23 15 65 46
q37 25 54 46z" />
    <glyph glyph-name="afii10019" unicode="&#x412;" horiz-adv-x="612" 
d="M707 646q0 -32 -20 -67q-30 -52 -101 -123q14 -1 23 -7q52 -27 52 -89q0 -30 -13 -80q22 6 26 5q19 0 19 -17q0 -13 -34 -25l-30 -10q-13 -20 -43 -59q-44 -55 -47 -59q-38 -47 -87 -83q-47 -33 -74 -33q-31 0 -53 14t-22 39q0 48 47 95q42 41 100 67q34 14 61 24l80 27
q21 37 21 89q0 26 -11.5 40.5t-28.5 14.5l-25 -2l-75 -83q-61 -67 -102 -67q-25 0 -37 26q-5 11 -6 27q-4 -8 -70 -122q-35 -57 -60 -94q-35 -52 -64 -81q-34 -34 -63 -34q-18 0 -40 16t-37 43q-24 45 -24 60q0 29 19 29q12 0 23 -17q5 -8 18 -39q12 -24 17 -29
q10 -13 30 -13q22 0 63 57q17 23 82 126q19 29 43 72q9 15 33 63q-20 0 -50 8q-77 20 -77 87q0 40 65 94t162 97q142 64 261 64q18 0 33.5 -15.5t15.5 -35.5zM662 632q-4 21 -25 21q-5 0 -17.5 -2.5t-14.5 -2.5l19 -8q5 -2 9 -5.5t6 -6t3.5 -7.5t2 -7.5t1.5 -10.5t2 -12
q18 24 14 41zM611 578q0 22 -19 25q-26 5 -48 -12q-34 -21 -58 -46l-29 -37q-18 -21 -42 -58l-42 -66q14 10 37 24q26 15 31 17q57 29 108 40q26 29 39 49q23 37 23 64zM513 627q-64 -12 -141 -51q-57 -31 -97 -63q-52 -42 -52 -71q0 -33 47 -42q46 -9 59 -9l31 53
q32 52 57 86q19 26 45 51q18 18 51 46zM465 375l13 19q-25 -12 -28 -14q-9 -4 -23 -16l-12.5 -9.5l-12.5 -9.5t-10 -8t-8.5 -9t-2.5 -8q-1 -3 2 -9.5t5 -7.5q4 -3 33 26l27 27q9 7 17 19zM560 212q-53 -16 -106 -42q-38 -20 -66 -45q-40 -34 -35 -61q3 -11 27 -15
q16 -3 52 23q35 24 63 55l46 54q11 14 19 31z" />
    <glyph glyph-name="afii10020" unicode="&#x413;" horiz-adv-x="341" 
d="M507 592q0 -26 -28 -61q-21 -28 -76 -80l-108 -98q-55 -49 -99 -93q-59 -59 -95 -107q-44 -59 -44 -91q0 -23 11 -23q30 0 134 52l166 91q53 29 64 29q8 0 13 -27q2 -8 -128 -80q-81 -44 -94 -53q-97 -58 -169 -58q-19 0 -35 16t-16 35q0 50 50 123q33 48 110 125
q36 36 104 97q188 165 188 199q0 25 -43 25q-14 0 -48 -6q-95 -16 -176 -56q-66 -33 -101 -65q-48 -42 -48 -80q0 -22 13 -48q13 -25 13 -30q0 -13 -15 -13q-26 0 -43.5 25t-17.5 58q0 48 60 109q58 60 141 92q61 23 124 40q75 20 96 20q53 0 78 -20q19 -16 19 -47z" />
    <glyph glyph-name="afii10021" unicode="&#x414;" horiz-adv-x="547" 
d="M625 476v-11q0 -45 -20 -117q-21 -74 -50 -136q-50 -101 -97 -163q-54 -71 -88 -71q-18 0 -40 75q-13 45 -36 71q-16 18 -34 29q-26 15 -53 15q-35 -50 -65 -87q-52 -64 -88 -64q-31 0 -48 21.5t-17 53.5q0 29 16.5 56.5t41.5 43.5q24 16 53.5 24.5t45.5 8.5q35 0 41 -2
l35 56l38 63q-64 14 -105 42q-29 20 -48.5 52.5t-19.5 67.5q0 30 18 58q27 44 85 75q31 16 79 31q57 17 84 17q76 0 118 -11q41 -11 76 -37q48 -34 67 -88q11 -33 11 -73zM577 471q0 91 -57 133q-48 36 -150 36q-82 0 -145 -30q-41 -21 -66 -50t-25 -52q0 -53 59 -91
q36 -25 93 -31q18 21 39 61l38 71q13 28 30 57t23 29q28 0 24 -27q-1 -15 -26 -60l-27 -49l-18 -35q-22 -41 -30 -62q11 -3 27 -3q6 0 30 1t32 1q63 0 139 21q10 25 10 80zM556 342q-97 -18 -132 -18q-26 0 -120 8q-12 -24 -24 -44q-18 -30 -46 -72l35 -19q40 -22 59 -46
q48 -60 55 -111q21 14 48 51q18 27 77 128q27 49 48 123zM157 177q-8 4 -18 4q-37 0 -72 -29q-34 -28 -34 -57q-1 -6 6 -16.5t11 -10.5q24 0 61 43q28 33 46 66z" />
    <glyph glyph-name="afii10022" unicode="&#x415;" horiz-adv-x="471" 
d="M608 379q0 -12 -6.5 -22.5t-17.5 -10.5q-10 0 -26 6l-75 18l-42 -2q-63 -8 -107 -18q-73 -18 -137 -54.5t-105 -83.5q-48 -54 -48 -106v-10q4 -35 37 -58.5t76 -23.5q46 3 73 7.5t83 25.5t121 59q61 37 70 43q8 3 15 -2t7 -15q0 -17 -62 -58q-62 -40 -126 -66
q-100 -42 -182 -42q-62 0 -108 34q-48 35 -52 87q-1 4 -1 19q0 74 66 145q53 56 128 93q12 6 24 11t27 10.5t26.5 9t29.5 8.5l28 8t31.5 8t29 7t31.5 7.5t30 6.5q-3 3 -17 23q-11 15 -31 47q-26 -10 -89 -39q-27 -13 -40 -17l-125 -42q-64 -21 -91 -21q-19 2 -23 15
q-2 8 6 15t28 13l54 15q60 16 114 40l153 60q0 5 -4 27t-4 29q0 43 35 84q36 42 84 42t68 -6q34 -10 39 -46q3 -30 -19 -55q-16 -17 -55 -45q-3 -2 -41 -23q-33 -18 -44 -25l22 -36q19 -27 39 -46q8 -1 20.5 -1.5t21.5 -2t19 -4.5q42 -13 42 -42zM554 646q-3 21 -35 21
q-10 0 -13 -1q-31 -5 -54.5 -28t-23.5 -49q-1 -6 -1 -14q0 -14 4 -25q25 13 70 43l36 30q17 17 17 23z" />
    <glyph glyph-name="afii10024" unicode="&#x416;" horiz-adv-x="815" 
d="M956 496q5 -27 -33 -104q-16 -30 -38 -48t-43 -18q-24 0 -24 24q0 9 17 46l17 34q-8 6 -26 -8q-33 -23 -52 -40q-39 -37 -88 -104q-29 -42 -58 -103q-32 -72 -32 -110q0 -6 8 -12t16 -7q22 0 54 9q35 11 72 31q36 20 64 34q36 18 46 18q18 0 20 -14q1 -5 -8.5 -14
t-30.5 -24q-34 -23 -79 -46q-37 -19 -86 -33q-46 -13 -70 -13t-42 17t-18 41q0 52 58 168q18 37 43 73q26 38 35 49q-23 -9 -61 -44l-93 -90q-39 -37 -85 -88l-75 -86l-27 -37q-13 -13 -23 -11q-28 4 -28 34q0 16 28 82q37 86 62 136q57 114 80 144q-37 -24 -77 -57l-47 -39
l-60 -80q-44 -55 -74 -88q-62 -64 -114 -108q-44 -35 -62 -38q-11 -2 -21 8.5t-10 23.5q0 6 1 8q10 34 81 102l69 64l84 77q54 48 78 65q34 43 55 86q33 63 33 106q0 20 -14 31t-36 11q-36 0 -77 -19q-36 -17 -79 -49q-37 -28 -59 -55q-25 -31 -25 -55q0 -14 12 -20
q4 -2 14.5 3t12.5 3q8 -5 8 -16q0 -18 -15 -31t-34 -13q-23 0 -37.5 15t-14.5 35q0 42 33 91q35 52 87 89q92 68 182 68q44 0 70 -26q22 -22 22 -54q0 -18 -11 -59l-21 -65l48 35q1 1 38 31q19 16 67 61q58 55 71 55q11 0 22.5 -11.5t11.5 -22.5q-2 -13 -20 -28l-84 -74
q-60 -59 -112 -154q-52 -94 -76 -168l164 160q58 55 109 95q35 28 71 47l37 22q13 7 49 30q19 13 60 34q46 24 62 24q21 0 28 -36z" />
    <glyph glyph-name="afii10025" unicode="&#x417;" horiz-adv-x="486" 
d="M582 583q0 -28 -29 -63q-13 -16 -53 -50l-45 -35l-54 -43q79 -49 79 -120q0 -58 -39 -120q-34 -55 -84 -88q-67 -45 -108 -60t-82 -15q-74 0 -126 50q-44 44 -44 92q0 13 9.5 26.5t20.5 13.5q20 0 30 -13q7 -10 12 -33q1 -5 -2.5 -15.5t-3.5 -12.5q0 -18 32 -39
q34 -20 78 -20q86 0 167 69q41 35 64.5 80.5t23.5 89.5q0 38 -33 59q-28 17 -61 17l-79 -41l-46 -29q-23 -14 -36 -14q-9 0 -16.5 7.5t-7.5 19.5q0 18 32 47q35 31 76 46q30 11 79 19q27 15 64 38q35 24 64 50l45 41q26 26 26 37q0 23 -57 23q-66 0 -138 -22
q-68 -21 -98 -78q5 -31 -20 -33q-9 0 -16 12.5t-7 24.5q0 33 38 68q37 35 81 45l84 21q55 11 103 11q22 0 44 -13q33 -19 33 -50z" />
    <glyph glyph-name="afii10026" unicode="&#x418;" horiz-adv-x="539" 
d="M713 556q0 -33 -90 -138q-4 -5 -33 -34q-37 -37 -70 -75l-45 -68q-20 -32 -37 -78q-16 -44 -26 -95q12 6 42 26l37 25l51 33q51 34 64 32q16 -3 16 -23q0 -9 -58 -45l-56 -36l-57 -42q-59 -46 -71 -46q-11 0 -21.5 9.5t-10.5 18.5q0 12 50 178q-15 -19 -42 -44
q-16 -16 -62 -55q-80 -68 -116 -88q-38 -21 -63 -21q-28 0 -42 24.5t-14 60.5q0 56 49 173q22 51 31 70l26 55q-15 -15 -55 -48l-70 -56q-25 -20 -69 -62q-72 -66 -88 -63q-20 7 -18 23q1 13 99 96l138 113q81 61 130 105l61 68q37 39 47 39q18 0 28 -9.5t8 -26.5
q-2 -13 -33 -41q-9 -9 -66 -56l-33 -48q-26 -40 -51 -88q-32 -61 -55 -121q-28 -74 -28 -123v-14t2 -8.5t5 -6t9 -2.5q18 -3 73 37q43 31 105 87l67 59q74 64 106 106l36 56q27 42 48 68l64 86q36 46 49 46t26 -10.5t13 -22.5z" />
    <glyph glyph-name="afii10027" unicode="&#x419;" horiz-adv-x="641" 
d="M809 738q0 -12 -14 -21q-6 -2 -12 -1.5t-14 2.5t-9 2q-29 0 -80 -16q-51 -14 -99 -41q-19 -9 -48 -37q-26 -25 -34 -39l-12 -28q-9 -23 -23 -23q-16 0 -18 1t-2 9v16q0 26 27 64q28 39 61 64q43 33 111 53t111 20q7 -1 14 -1q16 -2 21 -3q22 -6 20 -21zM750 516
q0 -34 -36 -75q-8 -10 -54 -53q-23 -22 -63 -53l-49 -40l-36.5 -29.5t-12.5 -10.5q-13 -24 -22 -59q-11 -42 -11 -64q0 -59 22 -59q26 0 100 36q39 21 77 47q46 31 47 31q8 3 12 -3.5t7 -19.5q2 -9 -40 -39q-33 -24 -80 -51q-44 -26 -64 -35q-33 -16 -65 -16q-29 0 -46 26
t-17 65q0 46 9 86q-17 -11 -64 -49l-84 -65l-115 -83q-64 -41 -101 -41q-24 0 -41 18q-12 13 -12 26q0 40 85 200l74 132l57 93l39 61q-44 -30 -92 -72l-85 -77q-34 -30 -77 -75q-29 -29 -61 -69l-20 -32q-9 -16 -20 -24q-7 -6 -16.5 2t-7.5 19q4 32 66 103q54 63 122 122
l107 92l99 80l50 45q21 20 31 21q12 2 21.5 -8t7.5 -23q-2 -9 -30 -43q-16 -20 -44 -62l-114 -188q-30 -50 -83 -157q-52 -104 -52 -118q0 -12 8 -14q18 0 73 34q56 34 100 67q28 19 106 80l104 84l45 80q15 27 45 64q44 56 88 89q51 39 84 36q11 0 20 -10t9 -22zM696 485
q6 10 -6 10q-10 0 -41 -28l-31 -29q-50 -50 -68 -92q19 11 38 26q30 23 45 43l33 33q27 27 30 37z" />
    <glyph glyph-name="afii10028" unicode="&#x41a;" horiz-adv-x="681" 
d="M882 524q0 -31 -17 -79q-16 -46 -35 -46q-5 0 -12 5q-11 9 -11 18q26 54 26 96q0 26 -11.5 36.5t-35.5 10.5q-52 0 -155 -64q-76 -49 -99 -67q-25 -18 -62 -55q25 6 46 6t35 -15t14 -44q0 -19 -9 -43q-28 -59 -45 -103q-13 -27 -19 -44q-11 -30 -18 -58l22 -15
q22 0 66 18q17 6 50 22q21 9 122 74q9 4 14 -3t5 -20q0 -10 -45 -41q-45 -30 -87 -51l-56 -26q-47 -21 -99 -21q-15 0 -28.5 15.5t-13.5 35.5q0 14 22 68l27 66l31 68q18 40 17 48q-3 21 -27 21q-25 0 -65 -32l-46 -32l-78 -110q-7 -12 -13 -31q-4 -11 -7 -15.5t-10 -8.5
t-8 -4q-9 -18 -57 -70q-50 -53 -102 -53q-34 0 -59 27q-13 14 -33 48q-22 53 -22 66q0 25 26 25q19 -1 30 -29q2 -3 3.5 -18.5t2.5 -19.5q15 -52 52 -52q38 0 70 31q18 16 47 58q-1 5 1.5 22.5t2.5 20.5q0 19 41 63l49 54l27 33l45 59h-10t-11 -0.5t-9.5 -1t-7.5 -0.5h-3
q-16 0 -28.5 20.5t-12.5 44.5q0 20 13 91q7 38 7 59q0 27 -25 31q-15 3 -58 -28q-82 -62 -115 -99q-7 -7 -15 -16.5l-13.5 -16t-9.5 -10.5q-40 -44 -49 -56q-22 -29 -37 -57q-4 -9 -4 -19q0 -14 -4 -18q-11 -12 -21 -12q-11 0 -15 10t-2 23q5 32 51 93q13 18 54 68
q34 41 54 60q27 27 63 54l69 49q38 23 60 23q24 0 44 -27q20 -28 20 -48q0 -12 -11 -73t-11 -73q0 -8 7.5 -17.5t14.5 -9.5q19 0 47 20l47 71q19 28 39 53q49 63 86 101q48 51 71 59q11 4 23 -7.5t12 -25.5q0 -10 -15 -24l-27 -27l-70 -78q-43 -46 -62 -77l54 39
q36 27 73 46q46 24 71 33q37 15 63 15q42 0 65 -19q29 -23 29 -68z" />
    <glyph glyph-name="afii10029" unicode="&#x41b;" horiz-adv-x="557" 
d="M772 642q0 -11 -1 -16t-5.5 -8.5t-13.5 -3.5q-4 -1 -6.5 3.5t-4.5 14.5l-5 28q-10 40 -28 42q-22 0 -59 -36q-34 -33 -65 -78q-25 -35 -52 -79l-34 -55q-53 -79 -77 -136q19 9 41 22l25 17q17 11 34 26q9 7 27 27l48 76q48 80 66 78q13 0 25 -11.5t12 -26.5
q0 -20 -22 -48l-27 -32q-12 -14 -42 -46l-42 -41l-56 -99q-32 -61 -50 -103l-50 -118q-5 -15 -13 -48q-8 -27 -18 -28q-11 -2 -20 7t-9 22t11 48q7 22 45 117l36 78l32 63q-14 -5 -56 -36l-58 -36l-41 -72q-32 -57 -49 -82q-44 -72 -81 -107q-46 -46 -91 -46q-48 0 -92 48
q-36 40 -34 63q0 32 75 75q30 18 78 41l117 60q46 24 88 54l118 196l43 73q21 37 57 85q35 49 82 91q47 43 76 43q20 0 36 -19q13 -16 22 -45q11 -32 8 -42zM283 182q-12 -7 -55 -28q-42 -20 -76 -40l-79 -46q-43 -27 -43 -38q0 -22 24 -41q26 -21 46 -21q32 0 80 59
q14 17 48 65q39 54 55 90z" />
    <glyph glyph-name="afii10030" unicode="&#x41c;" horiz-adv-x="813" 
d="M997 558q0 -24 -34 -65q-16 -20 -48 -56q-24 -28 -136 -147l-52 -122q-20 -65 -20 -86q0 -12 7 -13q21 -5 73 36q35 27 49 36q31 21 38 22q8 2 13.5 -6t3.5 -17q-1 -8 -31 -32l-55 -41q-69 -52 -117 -52q-16 0 -24.5 16t-8.5 33q0 20 14 70q12 43 28 80l-88 -75l-64 -58
q-37 -32 -53 -32q-23 0 -23 33q0 22 30 112l35 98l-52 -50q-19 -19 -37 -33q-30 -24 -85 -64l-75 -54l-45 -75l-21 -36q-24 -45 -60 -74t-69 -29q-23 0 -53 17.5t-49 40.5q-51 59 -51 93q0 11 13.5 19t29.5 8q11 0 39.5 -1t34.5 -1q30 0 61 9q45 11 95 40l47 27
q17 47 44 114t54 125q23 53 56 109l52 84q25 38 53 65q44 41 77 41q22 0 41 -15.5t19 -39.5v-28q0 -14 -1 -19q5 5 20 30q1 2 13 22q20 34 38 55q22 27 33 25q17 -2 21 -6t4 -14q0 -3 -3 -19t-21 -53q-10 -22 -28 -56l-53 -81q-35 -54 -43 -64q-10 -20 -32 -70
q-26 -57 -35 -80l-27 -73q-16 -44 -16 -57l7 -3q8 0 41 36l34 36l134 120l75 116q33 48 51 68q26 30 58 57q33 27 51 27q23 0 23 -23zM618 485l-23 -23q-11 -10 -21 -9l-9 11q0 13 14 36q6 9 10.5 17.5l6.5 12.5l3 4q3 10 5 20.5t3 21t2 16.5q1 12 -6 21q-5 5 -11 6
q-21 3 -60 -44q-8 -9 -31 -42q-20 -29 -55 -87q-36 -61 -51 -98l-71 -171q74 48 119 86q41 35 81 78q37 38 59 68l25 50q9 20 10 26zM209 54q-5 -4 -28 -14l-44 -15q-53 -16 -85 -16q-3 0 -51 3q-1 0 -4 -10q-3 -12 30 -42q34 -31 65 -31q24 0 40 12q10 7 33 36q18 24 25 37
z" />
    <glyph glyph-name="afii10031" unicode="&#x41d;" horiz-adv-x="689" 
d="M796 173q0 -7 -105 -55q-30 -14 -172 -92q-75 -42 -93 -42q-52 0 -52 34q0 17 25 79l46 110l73 152q-7 -6 -55 -35l-48 -31l-63 -40q-87 -55 -95 -61q-6 -9 -24 -49q-22 -48 -34 -68q-26 -48 -49 -78q-27 -34 -50 -34q-29 0 -62 33q-32 32 -32 62q0 26 48 61q14 10 61 41
l60 37l47 31l54 111l30 54l-16 -2q-16 0 -30 17.5t-14 41.5q0 1 3 100q-1 19 -6 20q-16 0 -45 -19q-28 -19 -69 -60q-34 -36 -61 -73q-32 -47 -32 -77q0 -17 5 -23.5t18 -9.5h16q7 0 9 -3q7 -7 7 -17q0 -9 -14.5 -18.5t-27.5 -9.5q-27 0 -45 21t-18 49q0 40 33 97
q35 59 86 106q50 47 80 67q43 30 65 30q50 0 50 -85q0 -32 -1 -39q-4 -44 -4 -54q5 -12 10 -12q13 0 30 17q12 13 29 38l49 81l30 47q23 37 54.5 62.5t49.5 25.5q9 0 18.5 -11t9.5 -25q0 -25 -49 -88q-33 -40 -101 -110l-46 -46q-49 -89 -52 -96l-32 -66l112 71l85 60l68 48
q77 144 91 165q24 35 55 62q34 29 50 29q12 0 22.5 -11.5t10.5 -25.5q0 -35 -58 -108q-21 -27 -59 -68l-62 -66q-9 -12 -16 -27l-15 -31q-22 -41 -55 -108l-37 -80l-33 -79q-17 -45 -19 -56q16 -2 85 35l72 38q59 30 107 51q57 25 76 25q11 0 18 -10q3 -5 3 -10zM737 639
l-2 2q-7 2 -20 -14l-25 -32q-34 -42 -41 -72q13 13 53 63q11 12 23 30.5t12 22.5zM531 654q-1 3 -4 3q-11 -2 -37 -35q-13 -17 -31 -43q-19 -29 -24 -39q13 13 35 40q20 22 26 30l22 26q13 14 13 18zM191 154l-51 -30l-56 -39q-29 -23 -29 -32q0 -15 20 -30q12 -10 25 -8
q11 2 31 35q42 61 60 104z" />
    <glyph glyph-name="afii10032" unicode="&#x41e;" horiz-adv-x="425" 
d="M562 555q0 -20 -14 -59q-18 -50 -56 -106q-45 -70 -107 -135q-11 -12 -107 -103q-86 -81 -133 -112q-74 -50 -127 -50q-15 0 -27.5 15t-10.5 33q0 22 21 60t53 70q13 52 31 105q27 77 59 139q90 171 170 212l44 22q36 16 76 16q60 0 97 -40q31 -32 31 -67zM506 558
q0 21 -24 38t-51 17q-25 0 -63 -18t-54 -45q5 -14 4 -24q0 -17 -62 -103q-37 -51 -52 -75l-49 -83l-39 -71q-3 -15 7 -34q11 -20 11 -22q2 -6 -7.5 -13.5t-19.5 -7.5q-5 0 -18 3.5t-15 3.5l-24 -40q-11 -20 -6 -28t12 -8q20 0 94 57q64 49 114 99q76 75 107 109
q129 137 135 245z" />
    <glyph glyph-name="afii10033" unicode="&#x41f;" horiz-adv-x="536" 
d="M602 126q-8 -8 -40 -31q-29 -22 -46 -31q-52 -30 -88 -30q-21 0 -37.5 16.5t-16.5 39.5q0 20 21 78q21 59 50 112q32 56 66 97q37 45 53 45q19 0 19 -21q0 -8 -1 -11q-2 -5 -21 -29q-32 -39 -73 -101q-13 -20 -37 -82q-23 -63 -23 -78q0 -13 20 -16q14 -4 66 26l42 27
q26 17 35 17q14 0 14 -19q0 -6 -3 -9zM750 632q0 -12 -33 -37l-37 -29q-12 -11 -36 -31q-14 -11 -26 -11q-8 0 -26 15t-28 15q-20 0 -58 -51l-48 -67q-32 -44 -69 -102q-36 -57 -49 -82q2 -4 12 -15q5 -5 2 -13q-4 -16 -21 -16q-11 0 -27 4l-40 -60q-10 -15 -38 -46
q-46 -51 -90 -81q-52 -36 -93 -36q-17 0 -34 14q-21 17 -21 39q0 21 16 35t37 14q25 0 25 -16q0 -3 -6 -12t-4 -13q1 -6 6 -8q19 -5 55 23q35 26 71 69q44 52 72 102l-67 63q-49 58 -49 127q0 59 62 107q50 40 136 67q55 17 101 27q52 11 67 11q19 0 55 9l56 14q35 9 81 9
q18 0 32 -11t14 -27zM628 572l52 44q3 6 -6 7q-5 0 -12 -1q-12 -2 -39.5 -10t-48.5 -8q15 -5 34 -18zM520 590q-34 -2 -36 -2q-16 0 -61 -13l-71 -21q-73 -25 -115.5 -59t-42.5 -69q0 -42 35 -89t69 -57l118 180q29 45 56 77q13 16 48 53z" />
    <glyph glyph-name="afii10034" unicode="&#x420;" horiz-adv-x="475" 
d="M635 556q0 -55 -27 -112q-24 -51 -65 -99q-30 -36 -69 -72q-42 -37 -67 -49q-60 -31 -79 -29q-16 1 -30 10l-25 -39q-36 -54 -62 -85q-34 -42 -76 -68t-75 -26q-45 0 -76 17.5t-31 49.5q0 12 8.5 25t20.5 16q16 3 29.5 -4.5t13.5 -21.5q0 -7 -5 -24q16 -8 30 -8
q60 0 133 84q23 26 55 79q23 39 51 92l80 154q27 48 67 92q42 47 62 47q27 0 39 -7.5t10 -23.5q0 -5 -3 -9.5t-5 -6t-10 -5t-9 -4.5q-3 -2 -11.5 3t-13.5 1q-20 -17 -51 -59q-31 -44 -49 -80l-25 -51q-30 -63 -47 -93q1 -1 19 -1q32 9 53 22q33 20 65 52q75 75 106 149
q18 44 18 93q0 31 -25.5 52.5t-64.5 21.5q-28 0 -97 -32q-82 -39 -146 -92q-55 -45 -91 -99q-41 -61 -41 -98q0 -36 35 -74t34 -41q-5 -14 -22 -18q-17 -3 -54 40q-43 49 -43 91q0 48 46.5 114.5t127.5 132.5q60 49 129 83q76 39 124 39q68 0 103.5 -34.5t35.5 -94.5z" />
    <glyph glyph-name="afii10035" unicode="&#x421;" horiz-adv-x="378" 
d="M576 576q0 -29 -10 -53q-3 -7 -46 -76q-15 -24 -40 -51q-23 -23 -32 -23q-22 0 -22 25q0 7 20 32q30 36 36 45q44 62 44 99q0 26 -24 42t-55 16q-49 0 -90 -30q-28 -21 -63 -62l-53 -63q-25 -31 -51 -70q-31 -48 -65 -120l-39 -81q-18 -37 -34 -93q-15 -52 -15 -77
q0 -19 38 -19q18 0 62 12q55 16 112 42l25.5 12.5l51 26l61.5 31.5q44 23 50 24q6 2 12 -7t5 -16q-2 -11 -55 -44q-52 -32 -124 -67q-49 -24 -117 -45q-66 -22 -101 -22q-71 0 -71 64q0 33 11 77q11 42 45 123q48 115 108 205q24 37 57 77l85 99q29 34 75.5 54t85.5 20
q54 0 88 -34q35 -35 35 -73z" />
    <glyph glyph-name="afii10036" unicode="&#x422;" horiz-adv-x="865" 
d="M1083 680q0 -10 -33 -26l-64 -31l-90 -51q-27 -13 -37 -12q-7 1 -13 5.5t-5 9.5q2 8 29 25q42 26 51 33l-84 -13l-105 -21v-1q1 -1 1.5 -3t1.5 -4.5l2.5 -6t2.5 -7.5q4 -9 4 -23q0 -16 -8 -40q-8 -23 -16 -26q-8 -4 -17.5 1t-9.5 13q0 2 6 34q3 12 1 21q-2 8 -20 31
q-15 4 -26 2q-16 -1 -28 -10q-35 -34 -67 -75q-23 -30 -43 -63l-61 -106l-27 -47l18 -13q13 -9 23 -13q20 12 49 52l31 42l31 49q16 25 26 25q18 0 18 -31q0 -26 -39 -93l-65 -106q15 11 20 17q12 12 74 82q47 54 62 70q36 39 45 40q10 1 17.5 -9.5t5.5 -21.5q-1 -7 -19 -31
q-62 -83 -86 -118q-33 -47 -60 -97q-32 -58 -35 -72l10 -5q30 0 87 19q52 17 127 49q37 16 104 49q98 50 101 50q8 1 13 -5t4 -14q-3 -15 -93 -63q-87 -46 -153 -74q-60 -24 -124 -41q-68 -18 -90 -18q-13 0 -25 5q-17 8 -17 27q0 25 24 74l23 45l-41 -39l-10.5 -10.5
l-14.5 -14t-13 -13.5l-66 -71q-38 -41 -44 -41q-26 0 -26 24q0 11 75 118l20 33l18.5 32.5l12.5 22.5l4 6l-21 -8q-10 0 -15.5 9t-3.5 19l7 9q-7 2 -17 8l-79 -116q-45 -67 -88 -107q-52 -49 -91 -49q-32 -5 -94.5 35.5t-61.5 71.5q0 24 30 29q5 1 20.5 -8t21.5 -11l25 -7
q17 -6 17 -17q-1 -4 -1 -12q-1 -3 -13 -8l-8 -1q35 -21 60 -21q40 0 91 58q23 26 54 70q16 23 43 66l30 50q-9 5 -68 41q-50 30 -86 56l-94 62q-51 35 -52 57q0 32 23 36q190 31 281 49q146 29 225 48l32 25q17 13 35 13q20 0 55 -15l189 35l156 31q31 0 31 -24zM500 506
l35 49l-170 -33q-65 -12 -168 -29q-61 -10 -77 -14q16 -20 47 -40q17 -11 149 -90l66 -37q30 56 78 132q32 51 40 62z" />
    <glyph glyph-name="afii10037" unicode="&#x423;" horiz-adv-x="442" 
d="M668 639q2 -15 -59 -80q-1 -1 -38 -40l-44 -46q-25 -36 -51 -81q-15 -26 -45 -84q-30 -59 -62 -131q4 -4 18 -13q10 -7 10 -14q0 -4 -2 -8q-5 -17 -20 -17l-25 2q-9 -20 -20 -36q-18 -30 -28 -43q-28 -40 -53 -61q-32 -26 -63 -26q-38 0 -64.5 33t-26.5 82q0 63 41 98
q33 27 76 27q31 0 51 -4q21 -6 55 -13l66 134q7 14 25.5 46t22.5 40q-55 -45 -85 -65q-92 -58 -145 -52q-24 0 -38 13q-21 18 -21 54q0 25 14 75q14 46 35 93q5 12 38 111q-29 -19 -50 -35l-43 -33q-42 -35 -66 -63q-33 -40 -52 -90l-8 -29q-6 -11 -12 -17q-8 -9 -17 -9
q-4 0 -8 2q-21 9 -15 29q0 31 44 95q45 63 108 120q32 29 83 63q51 33 64 33q15 0 24 -12t9 -31q0 -9 -20 -60l-40 -98q-36 -88 -36 -128q0 -22 7 -28.5t24 -6.5q28 0 75 31l54 37l77 56q37 29 53 44l70 92q32 41 46 55q27 29 37 29q12 2 21 -10t9 -30zM303 135
q-21 7 -50 12q-30 6 -47 6q-25 0 -42.5 -16t-20.5 -43q0 -33 11 -60t26 -27q39 0 85 70q37 51 38 58z" />
    <glyph glyph-name="afii10038" unicode="&#x424;" horiz-adv-x="581" 
d="M724 556q-1 -72 -62.5 -155.5t-151.5 -139.5q-70 -45 -116 -45q-34 0 -86 34l-104 -160q-14 -20 -45 -72q-33 -53 -37 -58l-18 -36q-13 -16 -32 -16q-10 0 -18 8t-8 16q0 17 32 62l46 69l36 53l78 125q21 36 42 65q6 41 32 50l47 90q31 58 41 84q-17 12 -20 12
q-12 0 -56 -41q-44 -43 -90 -97q-21 -26 -65 -76l-63 -70l-43 -48q-28 -30 -43 -30q-36 0 -36 26q0 43 40 136q45 108 102 180q88 112 108 132q62 62 126 62q30 0 56 -20q21 -15 38 -48q24 9 84 28q27 8 32 8q65 0 109 -35q45 -35 45 -93zM674 554q0 37 -28 58.5t-80 21.5
q-16 0 -54 -13q-39 -14 -50 -25h28q6 1 11.5 -3t4.5 -9q-2 -9 -25 -47l-45 -75l-82 -136q2 -5 8 -13t7 -9q1 -2 4 -14.5t5 -17.5l28 -4q30 0 87 39q47 32 83 67q47 44 74 96q24 46 24 84zM402 616q1 8 -3.5 23t-11.5 21q-10 10 -35 10q-31 0 -85 -54q-45 -45 -108 -127
q-43 -55 -75 -128q-24 -55 -30 -89q14 11 79 90l59 70q93 105 164 158q29 20 46 26z" />
    <glyph glyph-name="afii10039" unicode="&#x425;" horiz-adv-x="591" 
d="M698 552q0 -47 -37 -112q-18 -33 -32.5 -48t-25.5 -13q-41 7 -41 31q0 6 12 21q16 19 24 33q26 46 26 63q0 13 -14 13q-23 0 -88 -72q-35 -39 -78 -110q-36 -58 -56 -107q-24 -57 -24 -97q0 -37 8 -50.5t28 -13.5q24 0 49 9q74 25 129 49q81 36 86 36q21 0 16 -20
q-2 -12 -54 -40q-96 -52 -163 -71q-38 -11 -65 -11q-44 0 -65.5 26t-21.5 71q0 13 1 17q0 31 14 78l22 60q-20 -20 -39 -45l-53 -73q-72 -89 -113 -129q-55 -53 -87 -53q-29 0 -44.5 19t-15.5 51q0 67 82 161q64 75 162 147q96 72 156 100q20 28 34 65t14 65q0 10 -6.5 18
t-17.5 8q-14 0 -64 -22q-52 -21 -94 -46q-70 -40 -120 -81q-58 -48 -74 -83q7 -1 12 -1q4 -1 10.5 1t21 4.5t32.5 3.5q3 0 7 -5.5t1 -8.5q-16 -23 -56 -46q-38 -22 -64 -22q-14 0 -23 9.5t-9 22.5q0 56 77 127q58 53 171 119q46 27 104 53q62 27 72 27q35 0 53.5 -17.5
t18.5 -48.5q0 -20 -10 -53l-18 -63q6 2 80 60q32 26 54 39q28 17 39 17q26 0 39 -10q18 -14 18 -52zM364 410q-28 -13 -76 -48q-45 -33 -82 -68q-75 -74 -108 -114q-53 -67 -53 -107q-2 -21 15 -23q20 -2 62 39q16 15 112 133q49 60 87 116q28 42 43 72z" />
    <glyph glyph-name="afii10040" unicode="&#x426;" horiz-adv-x="441" 
d="M602 590q0 -48 -102 -148l-74 -70l-54 -54q-14 -30 -14 -72q6 3 38 24q16 12 26 18q14 10 22 8q18 -4 18 -20q-2 -12 -14 -22l-25 -18l-49 -37q-26 -23 -40 -39q-3 -13 -7 -25l-9 -21q-17 -41 -34 -67q-22 -31 -52 -55q-64 -50 -101 -50q-34 0 -34 30q0 26 23 58
q16 21 54 56q4 2 59 48q32 26 49 50q13 36 13 63q-1 5 -1 11l-102 -74q-38 -26 -76 -43q-42 -19 -60 -19q-23 0 -40.5 10.5t-17.5 29.5q0 33 126 240l60 95q38 57 60 84q30 36 44 36q40 0 40 -33q0 -12 -32 -52q-98 -117 -116 -142l-70 -109q-47 -77 -50 -95q-1 -3 3.5 -7
t8.5 -4q15 0 40 13q33 16 84 54q51 39 70 55l50 43q15 35 31 67q29 55 55 95q38 60 77 96q42 39 75 39q21 0 34.5 -13t13.5 -34zM548 572q2 7 -2 8q-9 5 -36 -19q-25 -21 -42 -43q-18 -26 -36 -56q-20 -36 -22 -46q8 4 36 33l48 49q10 9 31 37q21 29 23 37z" />
    <glyph glyph-name="afii10041" unicode="&#x427;" horiz-adv-x="444" 
d="M682 576q0 -32 -38 -68q-6 -6 -50 -42l-172 -144q-34 -38 -62 -73q-43 -55 -66 -91q-40 -62 -46 -98q-2 -12 8 -14q10 -1 42 13q34 15 62 30q31 15 124 75q38 24 42 24q5 1 14 -6t8 -12q-4 -15 -57 -54t-101 -64q-61 -31 -82 -40q-44 -18 -78 -18q-14 0 -29 10.5
t-15 25.5q0 25 44 107l50 93q-46 -16 -68 -16q-54 0 -54 46q0 31 16 70q13 32 40 82l24 45l20.5 35l13.5 24l4 8q-19 -13 -74 -58q-44 -36 -68 -60q-55 -55 -90 -116q-20 -34 -32 -74l-8 -28q0 -12 -8 -14q-30 -4 -30 30q0 45 44 119q40 66 96 123q17 17 79 69t87 71
q13 9 28 23q18 15 26 15q16 -2 26 -11t10 -21q0 -32 -40 -97q-30 -45 -46 -73q-22 -33 -41 -77t-19 -63q0 -10 12 -12q28 -4 82 31q46 30 96 81q74 93 134 150q17 16 56 48q43 34 52 34q14 0 24 -11t10 -27z" />
    <glyph glyph-name="afii10042" unicode="&#x428;" horiz-adv-x="724" 
d="M828 594q0 -38 -31 -93q-23 -42 -79 -115l-93 -110l-49 -56q-24 -44 -24 -96q0 -22 7 -31.5t29 -9.5q18 0 59 21q19 11 41 22q20 10 49 27q49 30 53 29q20 -4 20 -24q0 -13 -67 -53l-61 -35q-59 -32 -106 -32q-64 0 -76 62q-1 3 -1 14q0 1 3 34l-22 -20l-68 -66
q-29 -31 -68 -57q-44 -31 -70 -31q-20 0 -35 12.5t-15 27.5q0 21 21 93q5 19 17 57l-78 -76l-89 -75q-49 -39 -73 -39q-21 0 -35 9.5t-14 20.5q0 33 49 144q32 76 94 198q30 57 64 134q22 48 52 126q22 58 42 58q15 0 25.5 -12t10.5 -28q0 -18 -24 -58q-21 -33 -30 -56
l-94 -186l-84 -174q-44 -94 -44 -102t8 -8q17 -3 91 66l73 70q50 49 78 79l54 59l116 194q28 48 62 89q41 51 56 53q14 0 31 -13.5t17 -22.5q0 -37 -86 -148q-36 -48 -95 -118l-57 -68q-30 -51 -54 -102q-13 -28 -30 -77q-16 -45 -14 -61q0 -1 5 -6l3 -2q12 -3 47 27
q2 1 55 51q23 21 54 52l78 86l66 124l48 90q37 70 79 119q42 48 71 48q38 0 38 -35zM768 542q3 4 0 8t-8 4q-5 2 -13.5 -8.5t-21.5 -31.5q-9 -14 -25 -42q-45 -77 -56 -110q13 11 34 42l38 56l32 47q18 26 20 35z" />
    <glyph glyph-name="afii10043" unicode="&#x429;" horiz-adv-x="637" 
d="M746 600q0 -21 -25 -55q-16 -19 -37 -47q-28 -39 -63 -78l-75 -82q-16 -19 -32 -44q-33 -49 -67 -119q-15 -31 -15 -41q0 -4 6.5 -6.5t15.5 -4t12 -3.5q34 -21 36 -22l43 24q22 12 61 30q41 19 62 28q35 15 42 14q16 -4 16 -30q0 -6 -39 -24q-55 -25 -71 -34
q-52 -29 -100 -66l-15 -35q-9 -18 -25 -37q-28 -32 -63 -55q-47 -29 -91 -29q-54 0 -54 38q0 28 45 57l57 33q21 11 64 50q-1 0 -23 2.5t-36.5 10t-14.5 21.5q0 18 19 55l31 59q-36 -33 -79 -66q-59 -44 -75 -44q-13 0 -23.5 8.5t-10.5 19.5q0 24 20 81q15 40 38 91l-16 -14
t-12 -11l-58 -53l-110 -95q-56 -47 -68 -47q-16 0 -28 7t-12 19q0 9 30 65l30 55l105 190l81 146q57 111 72 112q17 2 27 -9.5t7 -28.5q-2 -10 -21 -39q-35 -51 -39 -59l-88 -160l-49 -89q-33 -61 -51 -99q11 7 63 49q54 45 97 85l106 102q21 43 58 94q15 21 26 35l32 39
q34 40 62 40q27 0 27 -37q0 -8 -11 -25l-22 -30l-48 -63q-11 -13 -41 -45t-53 -60.5t-40 -61.5q-24 -45 -42 -106l-10 -36q22 10 56 38l64 56q43 39 90 94l120 174l51 71q28 37 48 37q15 0 24 -11.5t9 -28.5z" />
    <glyph glyph-name="afii10044" unicode="&#x42a;" horiz-adv-x="380" 
d="M460 636q-9 -34 -53 -76q-44 -44 -75 -84q-34 -44 -63 -92q-30 -52 -43 -78q56 34 88 44q20 6 44 6q30 0 50 -26q16 -20 16 -38q0 -39 -38 -89q-31 -41 -88 -89q-61 -50 -136 -91q-74 -39 -118 -39q-16 0 -29 11.5t-13 26.5q0 36 70 140l90 136l104 168q-15 -3 -35 -3
q-10 0 -13 1q-26 0 -42 42q-4 9 -6 42q-42 -29 -74 -66q-26 -28 -42 -54q-22 -32 -28 -58v-26q-9 -22 -26 -22q-26 0 -26 44q0 25 29 72q14 22 33.5 46t31 36l41.5 41.5l36 35.5q47 46 61 47q10 2 18 -6.5t8 -25.5q0 -7 -2 -19q-7 -29 -7 -39q1 -5 1 -10q1 -9 7.5 -19
t14.5 -11q10 -1 49 28q38 31 55 50q58 78 74 78t28 -9.5t8 -24.5zM368 282q0 7 -6 13.5t-14 6.5q-30 0 -74 -29q-34 -23 -68 -57q-51 -55 -72 -106q-6 -16 -7 -17q-6 -11 -15 -11q-14 0 -20 8l-17 -15q-10 -9 -10 -16q0 -9 17 -15q18 -1 73 30q51 29 101 68q48 36 78 72
q34 40 34 68z" />
    <glyph glyph-name="afii10045" unicode="&#x42b;" horiz-adv-x="631" 
d="M844 656q-2 -21 -64 -94l-41 -46q-31 -34 -95 -118l-54 -80q-74 -111 -94 -152l-20 -39l-14 -34q3 -3 6 -9l108 56q45 23 71 34q42 18 59 18q27 0 27 -16q0 -6 -3 -10q-1 -3 -46 -25l-84 -41l-101 -56q-55 -31 -83 -31q-9 0 -17.5 11t-4.5 20q4 32 54 132q18 37 66 112
q42 66 54 80q-8 -3 -44 -9q-26 -3 -62 -11q-38 -8 -90 -20t-60 -14l15 -32q7 -16 5 -32q0 -52 -38 -110q-32 -50 -84 -90l-81 -63q-46 -31 -87 -31q-23 -3 -38.5 12.5t-15.5 35.5q-1 3 -1 15q0 33 18 80q14 38 47 99l60 114q8 17 53 91l45 75l62 108q26 44 28 46
q20 27 34 24q12 0 21 -10t5 -22q0 -7 -4 -14t-14.5 -20.5t-11.5 -15.5l-33 -51l-23 -35q-2 -3 -38 -70q-16 -30 -20 -36l34 -8q21 -3 46 -12l140 28q125 25 150 32q26 29 70 87l58 77q36 47 57 68q33 35 49 32q12 0 20 -9t4 -21zM278 242q0 14 -5.5 26.5t-12.5 19.5
t-20.5 14.5t-20.5 10.5t-23 8t-19 6q-21 -35 -35 -62l-38 -75l-44 -94q-22 -48 -22 -61q-1 -8 -1 -18t7 -11q21 0 69 30t81 60q37 34 60.5 74t23.5 72z" />
    <glyph glyph-name="afii10046" unicode="&#x42c;" horiz-adv-x="354" 
d="M384 644q-3 -6 -28 -44l-53 -80l-57 -90l-63 -105q-33 -57 -43 -79q51 42 60 48q34 24 60 24q33 0 58 -19q30 -23 30 -59q0 -48 -45 -101q-38 -44 -103 -89q-90 -64 -144 -64q-25 0 -43.5 13t-18.5 33q0 56 62 172l66 118l82 136l66 108q67 112 84 112q10 0 22 -13
q12 -14 8 -21zM296 238q0 10 -9 20t-18 10q-25 0 -68 -37q-42 -36 -67 -73q-42 -65 -54 -112q53 13 114 60q102 78 102 132z" />
    <glyph glyph-name="afii10047" unicode="&#x42d;" horiz-adv-x="437" 
d="M562 294q-4 -18 -43 -40q-38 -20 -73 -20q-18 0 -36 6q-11 -12 -31 -36l-29 -36.5l-24 -29.5t-12 -14q-47 -53 -107 -95q-61 -41 -93 -41q-51 0 -88 49q-34 43 -34 87q0 19 13 39q13 21 23 21q19 0 26 -8t10 -26q1 -5 -3.5 -16t-4.5 -14q0 -29 18.5 -53.5t41.5 -24.5
q30 0 76 35q34 26 86 81q28 30 60 70q17 21 34 48q-3 10 -21 30q-17 20 -28 20q-20 0 -40 -11q-16 -9 -37 -27q-35 -29 -50 -64q-1 -2 -2 -6t-2 -6l-2.5 -5t-3 -5t-3.5 -4t-4 -3t-5 -1q-26 0 -26 36q0 11 22 42q22 30 50 54q68 54 114 54q15 0 37 -16l37 -30q53 100 64 128
q36 95 36 134q0 56 -46 56q-39 0 -86 -21.5t-82 -59.5q-34 -36 -67 -84q-29 -44 -37 -73q-2 -7 2 -21.5t2 -18.5q-11 -18 -30 -14q-10 2 -16 17t-6 33q0 33 38 95q38 63 90 107q49 41 104 68q56 28 96 28q41 0 64.5 -30.5t23.5 -75.5q0 -31 -14 -82q-23 -79 -70 -170
l-30 -56l16 -8q30 3 84 26q24 0 18 -18z" />
    <glyph glyph-name="afii10048" unicode="&#x42e;" horiz-adv-x="717" 
d="M844 520q0 -87 -70 -190q-61 -89 -168 -184q-71 -62 -124 -97q-69 -45 -110 -45q-15 0 -31.5 18t-16.5 34q0 42 12 98l18 80q-12 0 -45 -9q-22 -5 -33 -5q-35 0 -81 37l-30 -62q-36 -76 -57 -113l-36 -76q-38 -80 -54 -80q-15 0 -24.5 9.5t-9.5 25.5q0 22 40 99l32 60
l65 116q23 39 41 58q28 55 58 133q21 54 37 107l27 88q15 44 32 44q13 0 23.5 -11t8.5 -25q-1 -5 -9.5 -24.5t-10.5 -27.5l-29 -83q-14 -36 -17 -47q-23 -63 -50 -128q3 -23 17 -36.5t33 -13.5q20 0 57 20q37 21 63 48l27 53q20 39 49 77q46 63 94 98q28 16 50 24
q26 23 51 37q35 21 53 21q45 0 81 -42q37 -40 37 -86zM794 516q0 30 -22 56q-22 27 -43 27q-37 0 -77 -39q0 -2 -2 -9t-3 -9t-5 -9.5t-11.5 -17l-19.5 -24.5q-43 -58 -73 -90q-31 -33 -40 -45q-14 -25 -20 -50l-12 -54l-5 -37q0 -5 -0.5 -11t-1 -9t-1 -7.5t-1 -6l-1.5 -4.5
t-2.5 -3.5t-3.5 -1.5t-5 -1.5t-7 -0.5q-18 0 -18 26q0 37 10 76q-11 -13 -25 -53q-4 -12 -12.5 -42.5t-13.5 -46.5q-5 -24 -5 -44v-10q1 -2 1.5 -5t1 -5.5t2 -5t4 -4t5.5 -2.5q14 -5 72 35q60 42 112 89q103 93 155 165q67 92 67 173z" />
    <glyph glyph-name="afii10049" unicode="&#x42f;" horiz-adv-x="778" 
d="M846 87q0 -7 -20 -21l-80 -43q-168 -89 -248 -89q-42 0 -68 21.5t-26 54.5t10 57q33 71 34 73q12 22 19 33q-17 -8 -39 -11q-27 -27 -37 -36q-21 -21 -55 -46q-59 -46 -122 -78q-74 -38 -124 -38q-41 0 -71 32q-29 32 -29 68q0 19 13 44q14 26 35 26q44 0 44 -39
q0 -14 -11 -22l-28 -14q5 -20 14 -29q13 -13 44 -13q72 0 203 98q26 21 76 77q-24 31 -24 80q0 89 98 240q54 82 113 128q67 54 128 54q41 0 59 -30q13 -20 13 -48q0 -52 -68 -141q-36 -46 -82 -99q-13 -16 -76 -85q-48 -53 -57 -64q7 2 13 7q38 38 51 52q24 24 42 46l44 51
q17 17 23 17q10 0 18.5 -8.5t6.5 -17.5q-3 -13 -28 -42l-34 -42l-47 -50q-16 -18 -31 -38q-30 -43 -56 -103q-26 -64 -26 -87q0 -30 42 -30q34 0 130 38q47 19 78 34q43 20 52 25q57 29 66 27q7 -1 12.5 -6.5t5.5 -12.5zM716 610q0 18 -7.5 25t-28.5 7q-50 0 -114 -67
q-48 -50 -98 -133q-33 -54 -47 -106q-9 -33 -9 -64q0 -21 12 -36l75 82l97 110q15 18 32.5 37t25 28t9.5 12q53 67 53 105z" />
    <glyph glyph-name="afii10065" unicode="&#x430;" horiz-adv-x="450" 
d="M502 118q0 -9 -48 -42q-49 -32 -88 -48q-72 -30 -114 -30q-47 0 -80 44l-63 -39q-34 -17 -65 -17q-29 0 -44.5 13.5t-15.5 32.5q0 52 70 136q36 46 78 72q46 39 90 63q48 27 78 27q27 0 46 -11q24 -15 24 -45q0 -55 -64 -114q-4 -4 -36 -31q-38 -32 -38 -53q0 -10 9 -20
t17 -10q42 0 100 24q37 16 94 52q25 16 30 16q7 0 13 -6t7 -14zM326 270q0 5 -6 10t-14 6q-21 3 -65 -20q-36 -19 -59 -40q-4 -4 -9 -10.5t-9.5 -13t-5.5 -8.5q-6 -14 -12 -24q-17 -24 -38 -42q6 -10 8.5 -12t13.5 -8l37 12q23 8 47 24q9 6 30 22q46 39 67 71q15 23 15 33z
M104 58l-22 18l-16 16q-30 -27 -30 -52q0 -6 12 -8q13 -1 29.5 6.5t26.5 19.5z" />
    <glyph glyph-name="afii10066" unicode="&#x431;" horiz-adv-x="295" 
d="M512 498q0 -24 -17.5 -44.5t-35.5 -20.5q-9 0 -15 21q-1 4 4 11q16 17 16 25q0 16 -26 24q-24 7 -47 7q-83 0 -152 -42q-32 -19 -51.5 -46.5t-19.5 -56.5q0 -24 18 -52q13 -19 42 -55q21 -25 27.5 -43t6.5 -48q0 -32 -22 -60q-19 -24 -62 -55q-97 -70 -155 -70
q-14 0 -25.5 14t-11.5 27q0 42 52 115q31 41 56 70q-6 13 -4 25q1 8 56 49q-24 50 -24 87q0 95 114 146q81 37 169 37q46 0 76.5 -17t30.5 -48zM218 178q0 31 -18 55q-17 -5 -47 -29l-41 -37q-26 -24 -51 -63q-25 -37 -25 -52l8 -10q16 -1 53 18q66 34 102 77q19 22 19 41z
" />
    <glyph glyph-name="afii10067" unicode="&#x432;" horiz-adv-x="277" 
d="M484 554q0 -30 -33 -80q-32 -48 -78 -88q-38 -33 -82 -63q-34 -24 -109 -65q-8 -8 -18 -24q13 -7 27.5 -23.5t14.5 -28.5q0 -31 -16 -64q3 -1 13 -1q9 0 26 3q38 9 84 31q18 9 22 9q6 1 10.5 -3.5t4.5 -13.5q0 -12 -24.5 -28t-57.5 -26q-21 -7 -70 -18q-38 -9 -42 -9
q-46 -45 -88.5 -74.5t-61.5 -29.5q-18 0 -29 10.5t-11 25.5q0 14 10 35q0 1 2.5 6t8.5 16l12 22q19 39 36 61q6 32 21 58q9 21 51 50l81 106l108 133q44 51 84 81t62 30q11 0 26.5 -13.5t15.5 -24.5zM432 524q4 13 -5 16q-10 3 -44 -30q-32 -30 -59 -64q-16 -21 -42 -50
q-53 -61 -56 -68q24 12 61 40q47 36 75 64q24 24 45.5 52t24.5 40zM159 172q0 17 -19 17q-22 0 -39 -30q-9 -16 -13 -27q23 -21 45 -21l15 25q11 20 11 36zM99 70l-45 17l-22 -40q-14 -23 -12 -26q3 -8 6 -8q12 0 34 19q23 18 39 38z" />
    <glyph glyph-name="afii10068" unicode="&#x433;" horiz-adv-x="334" 
d="M370 112q0 -13 -65 -48l-73 -36q-86 -42 -142 -42q-20 0 -37.5 15.5t-17.5 30.5q0 23 40 78q36 50 87 104q16 18 51 51q53 51 53 59q0 10 -10 10q-9 0 -47 -20q-37 -20 -66 -42q-19 -14 -49 -52q-25 -33 -37.5 -48t-14.5 -14l-14 2q-5 2 -5 12q0 17 22 52q30 50 81 90
q88 68 148 68q19 0 31.5 -10.5t12.5 -27.5q0 -33 -66 -103l-70 -71q-32 -33 -53 -60q-35 -44 -35 -62q0 -14 12 -14q53 3 162 56q83 40 86 40q12 0 14 -3t2 -15z" />
    <glyph glyph-name="afii10069" unicode="&#x434;" horiz-adv-x="375" 
d="M445 150q0 -11 -28 -23l-76 -33q-29 -14 -72 -42q-62 -39 -72 -44l-75 -78q-44 -51 -63 -76l-55 -73q-29 -33 -47 -33q-40 5 -40 40q0 15 22.5 44.5t51.5 55.5l114 104q31 39 40 60q-44 -32 -86 -32q-27 0 -44.5 17.5t-17.5 40.5q0 25 20 60q7 12 23 28l25 24
q33 48 76 88q35 34 90 46q19 13 40 25q27 15 44 15q18 0 30 -20t12 -48q0 -50 -70 -128q-47 -50 -74 -70q0 -13 4 -22l112 58q77 36 98 36q18 0 18 -20zM309 296q0 5 -3.5 10.5t-7.5 4.5q-11 -2 -34 -20q-19 -14 -31 -21l-4 -18q-3 -3 -33 -25q-23 -17 -33 -31
q-23 -32 -28 -56q-2 -20 14 -34q31 19 98 88q22 21 41 51q21 31 21 51zM117 84q-17 24 -18 26q-10 19 -10 34l-32 -30q-10 -17 -8 -36q1 -14 12 -16q8 -2 27 5t29 17z" />
    <glyph glyph-name="afii10070" unicode="&#x435;" horiz-adv-x="281" 
d="M340 126q0 -12 -50 -47q-52 -36 -91 -55t-64 -25q-22 -7 -57 -7q-39 0 -58 28q-14 22 -14 48q0 73 68 166q29 40 71 72q50 38 89 38q12 0 22 -10t10 -24q0 -39 -29 -83q-17 -25 -53 -63q-25 -26 -83 -64l-45 -28q0 -12 8 -23t18 -11q27 0 60 12q58 23 109 55q73 45 75 45
q6 2 10.5 -6t3.5 -18zM222 286q1 10 -8 10q-12 0 -38 -22q-50 -40 -86 -96q-2 -2 -26 -46q38 11 89 62q21 20 46 53q21 28 23 39z" />
    <glyph glyph-name="afii10072" unicode="&#x436;" horiz-adv-x="709" 
d="M768 124q1 -5 -9 -14t-32 -24q-42 -27 -86 -50q-89 -46 -117 -46q-44 0 -44 36q0 20 11 53q17 51 41 98l26 47q-49 -29 -104 -86q-33 -35 -66 -82l-9 -12.5t-9 -13.5t-7.5 -10t-7.5 -7.5t-5 -2.5q-34 7 -34 26q0 11 31 60l29 46q36 59 42 96l-64 -51l-76 -63l-46 -40
q-31 -28 -46 -44q-27 -35 -37 -45t-15 -9q-9 0 -14 4q-12 8 -12 22q0 16 42 58l82 82q64 67 64 116q0 18 -6 18q-13 0 -52 -19q-52 -25 -86 -55q-41 -38 -65 -63q-35 -38 -47 -67l-3 -12q-5 -17 -13 -18q-12 -3 -21 11q-5 8 -5 15q0 62 122 166q39 33 99 62q61 30 91 30
q19 0 28 -10t10 -19t1 -28q0 -27 -7 -47l96 64q17 11 29 21q31 23 35 23q12 0 21 -8.5t7 -19.5q-3 -15 -28 -51q-20 -31 -42 -57q8 6 61 41q46 30 67 45l38 28q26 18 38 16q17 -3 20 -20v-30q12 -16 12 -29q0 -14 -18.5 -31t-47.5 -30q-28 -13 -44 -12q-21 -35 -38 -76
q-7 -16 -11 -28q-5 -15 -5 -24q0 -10 6 -12q22 -6 96 36l114 66q11 0 14.5 -3.5t5.5 -16.5z" />
    <glyph glyph-name="afii10073" unicode="&#x437;" horiz-adv-x="342" 
d="M402 138q-2 -11 -31 -24l-27.5 -12l-31.5 -14l-69 -36q-35 -20 -67 -42q-35 -63 -111 -170q-47 -66 -99 -117q-58 -57 -85 -57q-33 0 -54.5 21t-21.5 51q0 39 41 92q38 46 96 90q34 25 186 118q34 46 42 84q1 9 -9 22l-6 6q-4 -6 -28 -22q-14 -10 -21 -10q-20 0 -24 24
q-2 11 30 37q26 22 29 25q9 10 43 40q23 20 26 30q-22 -7 -55 -30l-33 -22l-15.5 -11t-20.5 -13.5t-20 -13.5q-30 -20 -40 -22q-5 -1 -10 2q-10 7 -10 19q0 5 2 9l38 28q46 33 70 48q54 35 97 59q44 25 59 25q22 0 22 -32q0 -16 -51 -75l-41 -45q19 -15 19 -48
q0 -14 -20 -74q6 2 46 22q40 21 61 30l42 19q19 9 30 11q25 0 22 -22zM102 -24q-32 -16 -75 -45q-47 -31 -67 -47q-108 -89 -108 -140q0 -10 7.5 -19t18.5 -9q14 0 54 39q41 39 83 89q29 34 54 75q19 31 33 57z" />
    <glyph glyph-name="afii10074" unicode="&#x438;" horiz-adv-x="462" 
d="M548 148q0 -8 -38 -34q-35 -24 -79 -45q-86 -39 -127 -39q-38 0 -55 18q-9 9 -20 39l-105 -69q-54 -27 -97 -27q-41 0 -41 49q0 32 40 84q39 50 86 97q34 35 75 69q41 35 50 35q25 0 25 -27q0 -10 -51 -51q-49 -40 -55 -46q-30 -28 -71 -78q-46 -56 -47 -71
q-3 -14 10 -14q25 0 93 44q59 40 129 97l106 92l47 45q44 41 51 41q12 0 20 -12t8 -27q0 -11 -16 -24q-49 -37 -92 -73q-3 -2 -28 -23.5l-37 -32.5q-43 -40 -43 -65q-1 -11 4.5 -18t12.5 -7q22 0 44 7l51 18q40 15 131 69q19 0 19 -21z" />
    <glyph glyph-name="afii10075" unicode="&#x439;" horiz-adv-x="448" 
d="M595 510q-2 -14 -20 -18q-3 -1 -14 -1q-23 0 -26 -1q-41 -7 -56 -12q-13 -4 -33 -18q-37 -26 -54 -53q-15 -25 -19 -49l-5 -40q-5 -26 -19 -28q-10 -1 -16 10t-6 26q0 69 35 120q31 41 73 60q26 11 65 19q34 7 55 7q40 0 40 -22zM493 296q0 -24 -112 -148
q-48 -57 -84 -94q-60 -63 -74 -64q-8 0 -14 8.5t-6 17.5q0 3 32 38q26 28 29 32l-107 -42q-73 -30 -105 -30q-19 0 -34.5 12.5t-15.5 29.5q0 28 29 75q20 33 67 85q27 31 55 56q31 28 44 28q20 0 20 -22q0 -8 -14 -27q-19 -27 -71 -74l-40 -37q-12 -12 -26 -37
q-13 -24 -12 -31q0 -7 18 -10q10 0 67 21q61 22 86 37q33 17 72 43q28 20 58 46q26 22 86 92q20 23 24 23q12 0 20 -8t8 -20z" />
    <glyph glyph-name="afii10076" unicode="&#x43a;" horiz-adv-x="459" 
d="M537 152q0 -22 -101 -57q-26 -9 -101 -33q-46 -15 -78 -23q-42 -11 -58 -11q-38 0 -56 31l-24 59l-62 -74l-35 -47q-19 -25 -31 -25t-21 12t-9 26q0 10 13 30q5 10 29 40l28 34l48 50l33 36q26 29 28 33q4 7 12 29t9 24q17 42 34 42q20 0 36 -13l20 -19q55 18 90 18
q23 0 34.5 -12.5t11.5 -32.5q0 -21 -20 -38t-36 -17q-13 1 -13 18q0 5 8.5 14t8.5 10q3 9 -10 12q-13 2 -53 -13.5t-47 -24.5l-4 -24q-1 -10 -27 -48q-11 -17 -11 -24q0 -33 6 -45.5t20 -12.5q9 0 68 15l55 15q53 14 143 46q42 14 45 14q13 0 15 -1.5t2 -12.5z" />
    <glyph glyph-name="afii10077" unicode="&#x43b;" horiz-adv-x="561" 
d="M632 125q0 -7 -51 -32l-93 -45q-49 -22 -86 -36q-42 -16 -60 -16q-30 0 -54 12t-24 28v20q-4 -2 -38 -16l-36 -14q-68 -26 -122 -26q-81 0 -81 57q1 5 1 11q5 36 59 85q55 49 75 45q26 -6 26 -28q0 -13 -17 -38q-19 -27 -59 -66q1 0 6.5 -9t9.5 -9q20 0 50 9l52 17
q49 16 98 46l50 63q36 46 73 86q36 37 73 62t58 25q20 0 20 -28q0 -17 -23.5 -50.5t-58.5 -67.5q-38 -38 -78 -69q-44 -37 -68 -47q-10 -17 -10 -38q0 -10 12 -10q17 0 56 13q13 4 74 27q24 8 108 52q31 16 34 16q24 0 24 -29z" />
    <glyph glyph-name="afii10078" unicode="&#x43c;" horiz-adv-x="825" 
d="M879 102q0 -13 -74 -48q-79 -37 -116 -46q-48 -12 -77 -12q-26 0 -52 14q-31 16 -31 40q-1 9 -1 21q0 8 1 11q-21 -16 -75 -42q-63 -30 -90 -30t-45 19.5t-18 40.5q0 14 8 36l-77 -36q-56 -26 -84 -34q-47 -16 -77 -16q-44 0 -62 19q-12 13 -12 35q0 36 37 66t68 30
q28 0 28 -24q-2 -16 -4 -24q-9 -29 -12 -44q16 0 49 13l69 28l63 26q28 12 50 29q31 36 57 62q38 38 85 74q24 18 62 38q41 22 58 22q24 0 24 -30q0 -23 -31 -57q-25 -28 -61 -53q-49 -34 -66 -44q-40 -24 -74 -40q-47 -39 -47 -64q0 -24 20 -24q18 0 51 14l54 28
q21 10 49 30q24 16 41 30q10 12 47 47q23 22 76 68l54 47q34 26 51 26q24 0 24 -20q0 -41 -86 -112l-64 -48q-27 -20 -58 -40q-26 -26 -26 -58q0 -12 9.5 -21t23.5 -9q32 0 76 14q31 10 83 33q83 37 87 37q11 0 13 -3.5t2 -18.5z" />
    <glyph glyph-name="afii10079" unicode="&#x43d;" horiz-adv-x="446" 
d="M509 146l3 -10q1 -5 -11.5 -15t-40.5 -26l-56 -29q-63 -31 -64 -31q-36 -15 -64 -15q-44 0 -44 52q0 16 10 62q-49 -14 -118 -24q-5 -1 -13 -1q-3 1 -15 1q-22 -42 -54 -88l-30 -49q-16 -27 -28 -27q-15 0 -24.5 8t-9.5 22q0 9 35 70q35 62 57 78l-20 21q-10 10 -10 25
q0 11 11.5 24t22.5 10q5 -2 17 -10t13 -8l23 40l33 54q4 5 25 46q25 48 41 48q13 0 21 -9t5 -21q-2 -9 -44 -78l-24 -42q-25 -45 -32 -56l24 -2q36 0 71 12l55 24l60 80q28 34 40 44q22 18 42 18q11 0 21.5 -10.5t10.5 -23.5q0 -20 -38 -66q-39 -47 -82 -66q-46 -48 -46 -88
q0 -24 14 -24q18 0 151 71q41 20 47 19q10 -1 15 -10z" />
    <glyph glyph-name="afii10080" unicode="&#x43e;" horiz-adv-x="331" 
d="M392 115q0 -7 -28 -28q-31 -21 -52 -29q-32 -12 -79 -25q-44 -11 -61 -11h-48q-30 -30 -76 -30q-22 0 -34 18t-12 46q0 46 50 130q33 54 60 78q26 20 54 24q63 52 108 52q24 0 37 -18t13 -46q0 -30 -26 -84q-15 -30 -44 -68q-25 -33 -46 -52q15 -2 42 6q9 2 50 18
q13 4 41 20t37 16q7 1 10.5 -3.5t3.5 -13.5zM280 272q0 22 -14 22q-8 0 -21 -7t-19 -15l-2 -16l-42 -50l-60 -62q0 -7 1 -15t3 -21.5l4 -27.5q23 4 54 32t56 66q15 24 26 49q14 33 14 45zM75 46l7 14q4 30 -16 50q-20 -39 -20 -44q2 -23 18 -26q6 -2 11 6z" />
    <glyph glyph-name="afii10081" unicode="&#x43f;" horiz-adv-x="443" 
d="M505 116q-1 -8 -24 -25q-13 -9 -86 -51q-80 -46 -126 -46q-22 0 -36.5 15.5t-14.5 40.5q0 20 22 55q25 40 44 59q6 7 31 30l53 48q0 4 -2 4q-4 0 -17 -3.5t-35.5 -12t-43.5 -19.5q-61 -34 -103 -71l-98 -82q-49 -40 -56 -40q-10 0 -19 13t-9 29t36 54l88 84l69 62
q37 32 49 32q15 0 24 -20q1 -7 0 -22q19 5 36 13q33 15 40 17q44 18 73 18q18 0 28 -12q6 -8 6 -22t-44 -58l-46 -44q-73 -66 -73 -104q0 -14 10 -14q42 0 103 34l67 38q30 18 39 20t13 -4t2 -16z" />
    <glyph glyph-name="afii10082" unicode="&#x440;" horiz-adv-x="368" 
d="M449 120q-2 -9 -33 -31q-36 -26 -68 -43q-30 -17 -76 -34q-42 -14 -62 -14q-49 0 -49 50q0 17 20 54l40 64l20 30q22 31 22 42q0 10 -10 10q-27 0 -84 -42q-24 -18 -48 -46l-75 -117l-91 -137l-108 -158q-44 -66 -56 -66q-27 0 -27 18q0 12 44 81q14 23 54 83l72 106
l117 168q-1 4 6 42q2 13 42 50l46 44l84 82l49 52q25 28 35 30q11 3 17.5 -9.5t6.5 -28.5q0 -8 -21 -28l-33 -30l-52 -55l18 3q20 4 33 4t22.5 -12.5t9.5 -29.5q0 -32 -82 -150q-22 -32 -22 -44q0 -14 22 -14q16 0 56 18l42 20q15 8 48 27q52 31 55 31q8 1 12 -4t4 -16z" />
    <glyph glyph-name="afii10083" unicode="&#x441;" horiz-adv-x="325" 
d="M400 132q0 -8 -58 -41q-55 -31 -111 -55q-119 -47 -168 -47q-30 0 -46.5 14.5t-16.5 38.5q0 30 30 88q31 60 64 93l52 53q30 30 38 32h18q36 20 62 20q16 0 32 -11q20 -15 20 -39q0 -54 -39 -86q-34 -28 -79 -28q-53 0 -69 19l-29 -28q-30 -30 -44 -80q-4 -19 -4 -21
q-1 -7 8 -16q6 -6 10 -6q27 0 76 18q30 12 58 21q28 11 81 38l98 52q17 2 17 -29zM266 264q-3 8 -7 9q-9 3 -39 -11q-31 -13 -48 -42q18 -13 35 -13q21 0 41 23q22 24 18 34z" />
    <glyph glyph-name="afii10084" unicode="&#x442;" horiz-adv-x="571" 
d="M639 130q0 -9 -35 -32q-37 -24 -71 -39q-87 -38 -133 -38q-59 0 -59 59q0 20 22 61l31 58q-42 -23 -91 -68l-65 -60q-33 -30 -44 -30t-20 10t-9 23q0 12 33 49q12 14 34 36q56 61 68 98q-32 -16 -74 -47q-55 -39 -107 -88q-26 -24 -66 -67q-77 -82 -91 -80
q-10 0 -17.5 8.5t-7.5 18.5q0 8 34 45l11 11.5l12.5 13.5l10.5 12q48 52 66 75q32 37 58 75q16 22 42 77q8 17 15 25t12 7q26 0 25 -25q0 -9 -9.5 -34.5t-20.5 -43.5l78 50l48 30q25 16 32 16q12 0 20 -13t8 -33q0 -12 -8 -36q-7 -21 -7 -24l38 26q22 16 31 25q19 19 42 36
q26 20 35 18q27 -6 27 -43q0 -7 -19 -27q-44 -47 -49 -54q-26 -31 -46 -62q-30 -47 -30 -67q0 -18 18 -18t51 11l55 22q41 18 67 34q34 20 38 20q17 0 17 -21z" />
    <glyph glyph-name="afii10085" unicode="&#x443;" horiz-adv-x="449" 
d="M534 146q-1 -7 -100 -59l-80 -43q-7 -4 -87 -47q-117 -62 -137 -77q-41 -58 -100 -152q-56 -86 -114 -86q-28 0 -45 17t-17 40q0 27 29 61t79 66q69 41 122 78q9 8 40 47l40 49q-31 -16 -88 -16q-22 0 -41 13q-29 20 -29 51q0 25 26 72q43 74 128 143q36 28 48 25l21 -7
q9 -6 9 -17q0 -19 -19 -39q-17 -19 -51 -47q-24 -19 -42 -31q-35 -24 -46 -33q-24 -27 -24 -58q0 -12 10.5 -20t25.5 -8q38 0 93 28q45 22 77 50q73 73 120 114l86 76q27 21 34 22q11 2 20.5 -7t9.5 -21q0 -18 -40 -52l-42 -36q-23 -22 -43 -38q-35 -31 -79 -64
q-14 -12 -43 -39q-32 -29 -39 -37l-27 -27q-3 -3 -19 -25l86 45q40 20 60 31l104 54q62 32 68 32q8 0 13 -9.5t3 -18.5zM42 -134q-63 -34 -86 -52q-56 -43 -56 -66q0 -8 11 -16q5 -4 11 -4q15 0 37 20q30 30 62 78q18 27 21 40z" />
    <glyph glyph-name="afii10086" unicode="&#x444;" horiz-adv-x="505" 
d="M518 222q0 -22 -13 -52.5t-33 -54.5q-25 -31 -74 -54q-39 -19 -62 -19q-20 0 -38 8q-24 12 -24 33q0 31 22 50q12 12 29.5 20t23.5 6q11 -5 9 -15q-1 -6 -12 -17q-24 -22 -26 -27q-2 -7 2 -10.5t14 -3.5q52 0 98 53q33 37 36 73q0 46 -28 46t-67 -15q-38 -13 -59 -31
q-6 -6 -23 -30l-21 -33q4 -13 -6 -33q-4 -14 -22.5 -25.5t-35.5 -13.5q-33 -44 -64 -102l-58 -111q-28 -52 -62 -124l-37 -74q-17 -29 -28 -29q-12 0 -21.5 7.5t-9.5 17.5q0 24 10 50q7 19 28 56l70 118l46 79q33 53 37 62l-27 -18q-26 -15 -52 -15q-21 0 -33.5 20t-12.5 46
q0 72 54 168q39 67 84 106q53 47 99 47q49 0 65 -48q4 -10 10 -71q28 16 72 27q44 12 67 12q43 0 61 -29q12 -19 12 -50zM256 298q0 16 -7.5 28t-18.5 12q-34 0 -84 -54q-42 -45 -70 -102q-16 -29 -26 -62.5t-10 -47.5q0 -27 19 -27q17 -2 64 37q47 38 79 81q26 37 48 79
q6 29 6 56z" />
    <glyph glyph-name="afii10087" unicode="&#x445;" horiz-adv-x="427" 
d="M467 34q-2 -15 -54 -31q-14 -4 -31.5 -9.5t-21.5 -6.5q-83 -25 -136 -25q-32 0 -58 26q-25 26 -25 62l3 33q-43 -39 -63 -55q-53 -41 -75 -41q-11 0 -24 14t-13 25q0 16 48 63q55 51 100 82q30 21 45 30q6 5 24 12q66 55 67 85q0 5 -1 8t-1.5 3.5t-3.5 0.5l-3 -1
q-18 0 -69 -30q-32 -20 -77 -54q-35 -26 -42 -26q-9 0 -15 8.5t-4 18.5q1 10 43 41q39 29 80 52q36 20 66 31q37 15 50 15q21 0 29.5 -7.5t11.5 -23.5q1 -10 -8 -34q10 6 43 16q29 10 38 10q36 0 36 -52q0 -15 -40 -65q-39 -51 -50 -51q-24 0 -24 20q0 6 25 37q27 28 27 37
l-4 7q-17 0 -57 -34q-36 -30 -53 -51q-58 -75 -58 -128q0 -16 11.5 -28t28.5 -12q37 0 96 18q93 27 124 27q2 0 7 -3q9 -8 8 -14z" />
    <glyph glyph-name="afii10088" unicode="&#x446;" horiz-adv-x="411" 
d="M482 122q0 -10 -33 -22l-63 -22q-48 -20 -94 -50q1 -8 -2 -32q0 -18 -25 -40q-16 -15 -53 -40t-83 -45q-42 -19 -67 -19q-15 0 -26.5 10t-9.5 22q3 24 61 66l49 32q77 46 90 60q1 7 1 30l-9 48l-23 -12q-13 -6 -31 -18l-84 -51q-43 -25 -54 -25q-42 0 -42 30q0 18 30 70
l66 106q24 37 63 76q41 42 49 42q14 0 20 -6t4 -16q-3 -8 -50 -61q-33 -38 -44 -55q-38 -58 -44 -68q-22 -38 -24 -54q20 0 64 28q24 15 42 28q57 35 76 58q4 15 16 37q14 26 36 46q21 19 53 30q33 11 49 11q26 0 26 -28q0 -21 -13 -37q-10 -13 -33 -29q-36 -29 -88 -58
q-6 -14 -6 -29v-11q0 -25 8 -44l35 14q42 20 53 24q45 18 92 30q18 3 18 -26z" />
    <glyph glyph-name="afii10089" unicode="&#x447;" horiz-adv-x="313" 
d="M380 142q0 -10 -52 -44q-47 -31 -99 -56q-99 -44 -143 -44q-34 0 -51 15.5t-17 38.5q0 22 50 118q7 16 29 50l21 32q-8 -4 -28 -4q-12 0 -34 10q-31 -46 -50 -44q-23 0 -20 20q2 8 7 15q18 21 21 29q-1 1 -4.5 13.5t-3.5 14.5q0 17 13 32.5t25 15.5q5 0 10 -5t8 -10
t8 -15.5t8 -15.5q12 -12 24 -12q39 0 90 30l27 21q8 5 19 3q28 -5 28 -40q0 -12 -31 -30q-28 -17 -55 -26q-50 -50 -74 -102l-24 -56q-10 -24 -10 -34q0 -18 22 -18q24 0 68 15q23 5 81.5 35.5t116.5 69.5q20 0 20 -22z" />
    <glyph glyph-name="afii10090" unicode="&#x448;" horiz-adv-x="634" 
d="M696 116q0 -6 -34 -25q-37 -20 -68 -35q-90 -40 -132 -40q-30 0 -46 14q-11 11 -14 28l-63 -36q-43 -22 -69 -22q-62 5 -60 56q-64 -33 -113 -52q-41 -16 -61 -16q-22 0 -36 17t-14 39q0 17 34 70q39 61 80 110q35 43 66.5 72.5t41.5 29.5q15 0 25.5 -8t10.5 -22
q0 -20 -24 -48q-33 -38 -74 -71q-5 -4 -48 -35q-18 -20 -39 -51t-21 -43q0 -8 12 -12q9 -2 47 14l33 14q63 26 98 66q70 121 129 167q31 23 51 23q8 0 16 -11t8 -23q0 -21 -29 -58q-19 -24 -59 -60l-60 -54q-23 -35 -22 -46q1 -7 7.5 -14.5t14.5 -7.5q18 0 55 23
q33 21 63 49q22 20 40 44q30 46 46 67q31 42 58 69q21 22 42 38q26 18 42 18q9 0 20 -9t13 -21q5 -20 -41 -67l-10 -10.5t-16 -16l-17 -16.5l-41 -38q-18 -18 -38 -32q-36 -39 -42 -62q-2 -8 3 -15t15 -7q18 0 61 17l42 18q24 10 62 30q34 17 37 17q18 0 18 -26z" />
    <glyph glyph-name="afii10091" unicode="&#x449;" horiz-adv-x="609" 
d="M695 148q-1 -8 -37 -31q-34 -22 -74 -39q-29 -12 -77 -35l-61 -27q-21 -30 -45 -54q-52 -54 -90 -54q-30 0 -40 6.5t-10 25.5q0 21 24 45q18 19 44 33q9 6 35 16l31 12q16 20 16 52l-54 -36q-64 -40 -109 -40q-44 0 -60 30l-80 -38q-36 -14 -54 -14q-28 0 -44 16t-16 38
q0 33 34 86q33 51 86 106q33 34 72 66q40 32 51 32t17.5 -8t6.5 -18q0 -20 -105 -112q-15 -15 -33 -31q-24 -23 -45 -39q-15 -22 -22 -37q-12 -25 -12 -38q0 -15 12 -15q26 0 69 20q49 22 85 60l36 60q22 32 51 62q43 43 78 71q47 37 74 37q18 0 18 -26q-2 -17 -38 -58
q-36 -42 -85 -85l-58 -53q-15 -13 -40 -38q-1 -2 -1 -11q0 -19 8 -19q25 0 55 15q1 1 10 5.5t17.5 10t20.5 12.5t24.5 17t23.5 20q24 21 34 38l26 37q14 20 33 43q18 21 55 55q34 29 43 29q8 0 19 -15t11 -27q0 -14 -30 -40q-22 -18 -36 -32l-40 -37l-48 -49q2 -10 2 -13
q0 -10 -11 -63q28 5 71 25q9 4 20.5 10t19 9.5t12.5 5.5l44 24q47 28 50 28q11 1 15 -6.5t1 -19.5z" />
    <glyph glyph-name="afii10092" unicode="&#x44a;" horiz-adv-x="341" 
d="M398 126q0 -8 -32 -23q-36 -15 -65 -22l-53 -15q-24 -8 -58 -13q-36 -25 -74 -42q-47 -22 -77 -22q-24 0 -39.5 11t-15.5 30q0 41 51 97l57 62q10 13 39 45q42 47 52 71q-26 -10 -50 -10q-10 0 -35 9q-19 -31 -20 -33q-13 -22 -25 -22q-13 0 -23 6t-4 14l13 20
q10 18 11 31l3 26q0 12 10 21.5t25 9.5q6 0 25 -17t41 -17q14 0 30 3.5t24.5 6.5t30 12.5t27.5 11.5q22 0 22 -23q0 -12 -16 -28q-10 -10 -34 -29q-11 -9 -23 -25q-10 -12 -19 -28l49 1q23 -3 39 -25q14 -20 14 -34q0 -21 -11 -41q-1 -2 -17 -25q5 0 48 10l69 17
q8 1 9.5 -3.5t1.5 -17.5zM248 178q0 6 -6 13t-14 9q-20 5 -46 -19q-26 -23 -30 -39q-6 -23 29 -37q27 12 47 33.5t20 39.5zM130 70l-20 30q-8 15 -11 27q-23 -21 -41 -44t-18 -33q0 -12 11 -12q19 0 43 9.5t36 22.5z" />
    <glyph glyph-name="afii10093" unicode="&#x44b;" horiz-adv-x="453" 
d="M533 138q0 -10 -44 -40q-37 -25 -91 -53q-58 -30 -89 -41q-47 -18 -77 -18q-20 0 -31 11.5t-11 30.5q0 10 10 38t21 48q16 26 38 52q-12 -3 -40 -3q-30 0 -37 -1v-26q0 -21 -22 -52q-22 -32 -48 -48q-54 -36 -78 -36q-17 0 -31.5 13.5t-14.5 28.5q0 20 12 48q15 33 35 60
q16 22 37 48q27 32 53 58q59 56 82 75q44 37 64 37q21 0 21 -24q0 -6 -3.5 -12.5t-10.5 -14.5t-13 -13.5l-16.5 -15t-15.5 -14.5l-53 -62q7 -5 19 -5q7 0 26.5 1.5t20.5 1.5q45 0 80 20q54 58 88 81q41 31 63 31q25 0 25 -27q0 -28 -65 -67l-82 -48l-37 -36q-21 -20 -39 -43
q-14 -19 -24 -43t-10 -34q0 -8 6 -10q9 -1 50 13q29 11 71 31q22 10 87 50q49 30 57 30q12 0 14.5 -3t2.5 -17zM138 136q0 9 -6 12.5t-29 9.5l-22 -21q-12 -12 -19 -23q-26 -39 -22 -58l6 -6q18 -2 54 29q38 32 38 57z" />
    <glyph glyph-name="afii10094" unicode="&#x44c;" horiz-adv-x="241" 
d="M243 324q0 -13 -46 -50l-55 -44q-21 -19 -28 -27l-26 -31q-8 -12 -18 -36q-8 -18 -11 -31q26 17 39 23q27 13 29 13q15 5 27 5q14 0 25 -12.5t11 -27.5q0 -25 -41 -64q-48 -45 -97 -45q-31 0 -41.5 18t-10.5 57q0 30 31 88q31 57 77 102q86 89 111 89q24 0 24 -27z
M145 99q-5 5 -6 5q-6 -1 -35 -16q-13 -6 -26 -16l-22 -16q5 -12 10 -12q12 0 43 22q35 25 36 33z" />
    <glyph glyph-name="afii10095" unicode="&#x44d;" horiz-adv-x="297" 
d="M338 316q0 -29 -19 -66q-14 -28 -35 -59l12 -3q7 -3 7 -13q0 -28 -60 -28l-75 -72l-47 -49q-40 -40 -73 -40q-12 0 -34 13t-22 25q-2 16 5 25.5t19 6.5q3 0 18.5 -8.5t22.5 -8.5q11 0 37 25l26 24q25 24 39 43q-23 -1 -37 -5q-18 -3 -73 -27q-9 -3 -17.5 6t-8.5 18
q0 11 34 27t70 24l104 22l35 51q26 43 26 62q-1 19 -19 19q-31 0 -90 -27q-19 -8 -42 -23q-27 -18 -40 -37q-2 -4 -1 -15.5t0 -13.5q-11 -19 -29 -14q-19 1 -19 36q0 23 32 55q26 25 63 42q32 16 61 27q41 16 68 16q36 0 51 -19q11 -14 11 -39z" />
    <glyph glyph-name="afii10096" unicode="&#x44e;" horiz-adv-x="544" 
d="M594 118q-3 -10 -34 -28q-23 -14 -60 -28q-29 -11 -57 -19l-68 -21q-91 -26 -125 -26q-20 0 -39 15t-19 33q-1 11 1 29q1 5 3.5 15l3.5 14l-42 -8l-58 -12l-58 -82q-8 -10 -27 -48q-14 -26 -21 -26q-13 0 -24.5 7.5t-11.5 16.5q0 5 16 30l54 89q-30 30 -30 59q0 14 11 25
t24 11q10 0 30 -10q4 -3 15 -8q36 57 82 106q56 62 72 75q20 19 30 19q31 0 26 -26q-2 -8 -37 -43q-26 -26 -35 -37q-40 -47 -55 -66q-24 -31 -31 -38q7 0 20 3t16 3l27 7q16 6 23 11l52 51q24 23 56 45q38 28 82 53q60 33 97 33q27 0 40 -16q11 -14 11 -30q0 -52 -53 -125
q-37 -51 -85 -89q27 5 43 10l31 13l56 21q32 12 37 12q16 0 11 -20zM504 274q0 20 -12 18q-24 0 -54 -14q-43 -22 -56 -40q6 -7 6 -14q0 -6 -4 -10q-7 -9 -37 -30l-46 -33q-12 -10 -25 -17q-13 -6 -18 -12t-7 -20.5t-3 -19.5q-2 -10 3.5 -19t16.5 -9q54 0 152 98
q40 40 56 60q28 35 28 62z" />
    <glyph glyph-name="afii10097" unicode="&#x44f;" horiz-adv-x="586" 
d="M642 86q0 -12 -49 -30q-43 -15 -103 -30q-27 -7 -72 -14q-51 -8 -72 -8q-16 0 -31 11.5t-15 26.5q0 7 4 21t4 17l-40 -18q-36 -17 -63 -31q-96 -49 -165 -49q-31 0 -50.5 17t-19.5 47q0 16 22 44q20 28 48 44t48 16q12 0 20 -9t8 -21q0 -14 -22 -24l-26 -12
q-17 -10 -29.5 -24t-12.5 -24q0 -8 24 -8q40 0 134 42q63 26 148 82q-30 43 -30 82q0 28 32 58q27 24 66 44q48 24 88 28q19 4 33.5 -10.5t14.5 -35.5q0 -17 -7.5 -31.5t-28.5 -42.5q-38 -48 -86 -84l-24 -28q-14 -17 -22 -32q-12 -22 -12 -38q0 -10 10 -10q9 -2 45 3
q34 4 62 9q15 3 84 23q60 17 65 17q7 -1 14 -6.5t6 -11.5zM482 298q0 14 -6 16q-17 2 -64 -20q-30 -13 -48 -31t-16 -33q5 -32 26 -46q15 17 62 52q46 39 46 62z" />
    <glyph glyph-name="afii10071" unicode="&#x451;" horiz-adv-x="242" 
d="M357 456q0 -39 -32 -44q-16 -2 -29 7t-15 25q-2 17 10.5 30.5t29.5 13.5q16 0 26 -9t10 -23zM221 472q0 -28 -30 -36q-17 -3 -30.5 8.5t-13.5 29.5t13.5 29.5t30.5 8.5q30 -4 30 -40zM309 126q0 -13 -59 -54q-40 -26 -50 -32q-93 -50 -141 -50q-26 0 -43 17t-17 39
q0 38 20 95q15 42 39 87t63 75q40 31 72 31q26 0 45 -19t19 -45q0 -27 -45 -69q-31 -30 -65 -49l-8.5 -5.5t-15 -9t-16.5 -10.5q-20 -13 -38 -21q-21 -24 -21 -43q0 -8 7 -16t15 -9q14 0 50 11q35 12 55 23q24 13 89 60q22 16 29 16q16 0 16 -22zM205 264q0 9 -5.5 14.5
t-11.5 5.5q-15 0 -40 -22q-27 -24 -41 -46t-30 -60q29 14 72 50l38 29q18 15 18 29z" />
    <glyph glyph-name="afii10099" unicode="&#x452;" horiz-adv-x="421" 
d="M504 595q-3 -11 -34 -44l-34 -34l-37 -33q29 0 52 -6q20 -6 20 -14q0 -10 -7 -18q-5 -6 -16 -11q-2 0 -49 -2h-59l-105 -143q-54 -74 -89 -130q46 35 120 78q29 17 90 48q30 14 35 17q21 9 34 11q10 0 19 -12q7 -11 5 -18q0 -8 -18 -31q-5 -7 -20 -35t-25 -44
q-19 -31 -74 -104q-5 -6 -23.5 -31t-23.5 -31t-19.5 -25t-23 -28.5l-22 -25t-28.5 -30.5q-58 -60 -128.5 -119t-85.5 -59q-7 0 -11 7t-3 16q0 9 31.5 36.5l80.5 69.5t77 72q78 84 138 165l23 30t21.5 28.5l18 26.5t18.5 34l16 37q-5 -2 -16 -5.5t-22 -9.5q-8 -4 -78 -49
q-36 -22 -74 -50q-38 -27 -60 -48q-21 -18 -43 -40q-17 -17 -34 -39q-13 -18 -33 -36q-17 -17 -28 -20q-4 -1 -10 0q-11 6 -13 18q0 12 33 58l59 83l128 183l73 101l-15 -6q-11 0 -17 7q-4 7 -1 18q0 6 13 15q3 3 18 12h-6q-16 0 -26 -1q-16 0 -24 -2q-11 0 -16 1
q-6 0 -10 9q-2 7 -4 19q0 13 14 19q10 3 37 5h24l82 1q20 20 46 49l40 45q11 12 39 32q26 15 39 15q12 0 18 -10q6 -9 3 -22z" />
    <glyph glyph-name="afii10100" unicode="&#x453;" horiz-adv-x="334" 
d="M370 112q0 -13 -65 -48l-73 -36q-86 -42 -142 -42q-20 0 -37.5 15.5t-17.5 30.5q0 23 40 78q36 50 87 104q16 18 51 51q53 51 53 59q0 10 -10 10q-9 0 -47 -20q-37 -20 -66 -42q-19 -14 -49 -52q-25 -33 -37.5 -48t-14.5 -14l-14 2q-5 2 -5 12q0 17 22 52q30 50 81 90
q88 68 148 68q19 0 31.5 -10.5t12.5 -27.5q0 -33 -66 -103l-70 -71q-32 -33 -53 -60q-35 -44 -35 -62q0 -14 12 -14q53 3 162 56q83 40 86 40q12 0 14 -3t2 -15zM446 696q-2 -13 -53 -56q-29 -24 -47 -46q-25 -27 -42 -56q-18 -30 -38 -60l-2 -3l-3.5 -10t-5.5 -14
q-6 -15 -17 -13q-19 3 -22 24q-5 24 24 71q21 37 62 87q28 34 65 68t49 34t21 -7.5t9 -18.5z" />
    <glyph glyph-name="afii10101" unicode="&#x454;" horiz-adv-x="354" 
d="M345 345q2 -16 -5 -25.5t-19 -6.5q-3 0 -18.5 8.5t-22.5 8.5q-11 0 -37 -25l-26 -24q-25 -24 -39 -43q24 1 37 4t73 28q9 3 17.5 -5.5t8.5 -18.5q0 -11 -35 -28q-31 -15 -69 -23l-104 -22l-35 -51q-26 -43 -26 -62q1 -19 19 -19q32 0 90 27q19 8 42 23q27 18 40 37
q2 4 1 15.5t0 13.5q11 19 29 14q19 -1 19 -36q0 -23 -32 -55q-25 -25 -63 -43l-61 -26q-41 -16 -68 -16q-36 0 -51 19q-11 14 -11 39q0 29 19 66q14 28 35 59q-19 2 -19 16q0 28 60 28l75 72l47 49q40 40 73 40q11 0 33 -13q23 -14 23 -25z" />
    <glyph glyph-name="afii10104" unicode="&#x457;" horiz-adv-x="264" 
d="M306 447q1 -16 -9 -55q-11 -39 -22 -39q-18 0 -18 16v13q1 6 -5 19.5t-6 22.5q1 15 14 31t23 16q23 0 23 -24zM168 461q2 -15 -9 -53q-10 -37 -22 -37q-18 0 -18 16v13q1 6 -5 19.5t-6 22.5q1 15 14 31t23 16q23 0 23 -28zM320 104q-2 -11 -56 -38l-57 -27
q-105 -50 -149 -50q-31 0 -45 10.5t-14 39.5q0 36 40 104q17 29 48 75q21 31 58 71q35 38 42 37q24 -4 24 -28l-60 -75q-45 -57 -67 -94q-30 -45 -36 -84q0 -10 16 -10q35 0 128 40q4 1 12 5t25 11.5l32 14.5q39 17 45 17q6 1 10 -5t4 -14z" />
    <glyph glyph-name="afii10106" unicode="&#x459;" horiz-adv-x="561" 
d="M460 93q-5 5 -6 5q-6 -1 -35 -16q-13 -6 -26 -16l-22 -16q5 -12 10 -12q19 0 42 16q35 26 37 39zM345 -3l-3 -1q-22 -2 -49 11q-29 14 -29 29v20q-4 -2 -38 -16l-36 -14q-68 -26 -122 -26q-81 0 -81 57q1 5 1 11q5 36 59 85q55 49 75 45q26 -6 26 -28q0 -13 -17 -38
q-19 -27 -59 -66q1 0 6.5 -9t9.5 -9q20 0 50 9l52 17q49 16 98 46l50 63q36 46 73 86q36 37 73 62t58 25q20 0 20 -28q0 -17 -23.5 -50.5t-58.5 -67.5q-38 -38 -78 -69q-44 -37 -68 -47q-10 -17 -10 -38l1 -3q6 10 13 17q5 5 36 29q14 11 39 23l21 10q19 8 35 8
q14 0 25 -12.5t11 -27.5q0 -22 -45 -64t-76 -42h-12q-16 0 -27 3z" />
    <glyph glyph-name="afii10107" unicode="&#x45a;" horiz-adv-x="456" 
d="M415 105q-5 5 -6 5q-6 -1 -35 -16q-13 -6 -26 -16l-22 -16q4 -12 10 -12q19 0 42 16q35 26 37 39zM283 20h-7q-44 0 -44 52q0 16 10 62q-49 -14 -118 -24q-5 -1 -13 -1q-3 1 -15 1q-22 -42 -54 -88l-30 -49q-16 -27 -28 -27q-15 0 -24.5 8t-9.5 22q0 9 35 70q35 62 57 78
l-20 21q-10 10 -10 25q0 11 11.5 24t22.5 10q5 -2 17 -10t13 -8l23 40l33 54q4 5 25 46q25 48 41 48q13 0 21 -9t5 -21q-2 -9 -44 -78l-24 -42q-25 -45 -32 -56l24 -2q36 0 71 12l55 24l60 80q28 34 40 44q22 18 42 18q11 0 21.5 -10.5t10.5 -23.5q0 -20 -38 -66
q-39 -47 -82 -66q-46 -48 -46 -88q0 -7 6 -13q1 2 3 4t5 4.5t5 4.5q4 4 28 21q14 11 39 23l21 10q19 8 35 8q14 0 25 -12.5t11 -27.5q0 -22 -45 -64t-76 -42q-48 0 -56 14z" />
    <glyph glyph-name="afii10108" unicode="&#x45b;" horiz-adv-x="421" 
d="M237 485l82 1q10 10 86 94q12 14 39 32q26 16 39 15q12 0 18 -10t3 -22q-3 -13 -34 -44l-34 -34l-37 -33q31 0 52 -6t20 -14q0 -21 -23 -29q-10 -2 -49 -2h-59l-105 -143q-58 -79 -89 -130q40 31 108 68q48 30 102 58q7 4 14.5 7.5l13 6t7.5 3.5q27 11 34 11
q11 0 19 -11.5t5 -18.5q-1 -13 -66 -90l-85 -104q-19 -20 -26 -47l2 -6q8 0 45 15l38 15q33 13 64 28q38 19 41 19q7 3 13.5 -4.5t6.5 -17.5q-1 -6 -40 -28q-37 -21 -73 -37q-77 -33 -116 -37q-14 -3 -24.5 12.5t-7.5 29.5q6 33 36 75q30 43 75 95l36 41q-47 -21 -116 -64
q-52 -34 -74 -50q-55 -40 -103 -88q-23 -23 -34 -39q-43 -55 -61 -56q-5 -2 -10 0q-13 6 -13 18q1 11 33 58l59 83l128 183l73 101l-15 -6q-12 0 -17 7.5t-1 17.5q2 6 13 15l18 12h-6q-2 0 -50 -3q-15 0 -22.5 5.5t-7.5 23.5q0 24 51 24h24z" />
    <glyph glyph-name="afii10109" unicode="&#x45c;" horiz-adv-x="459" 
d="M537 152q0 -22 -101 -57q-26 -9 -101 -33q-46 -15 -78 -23q-42 -11 -58 -11q-38 0 -56 31l-24 59l-62 -74l-35 -47q-19 -25 -31 -25t-21 12t-9 26q0 10 13 30q5 10 29 40l28 34l48 50l33 36q26 29 28 33q4 7 12 29t9 24q17 42 34 42q20 0 36 -13l20 -19q55 18 90 18
q23 0 34.5 -12.5t11.5 -32.5q0 -21 -20 -38t-36 -17q-13 1 -13 18q0 5 8.5 14t8.5 10q3 9 -10 12q-13 2 -53 -13.5t-47 -24.5l-4 -24q-1 -10 -27 -48q-11 -17 -11 -24q0 -33 6 -45.5t20 -12.5q9 0 68 15l55 15q53 14 143 46q42 14 45 14q13 0 15 -1.5t2 -12.5zM496 617
q-2 -13 -53 -56q-29 -24 -47 -46q-25 -27 -42 -56q-18 -30 -38 -60l-2 -3l-3.5 -10t-5.5 -14q-6 -15 -17 -13q-19 3 -22 24q-5 24 24 71q21 37 62 87q28 34 65 68t49 34t21 -7.5t9 -18.5z" />
    <glyph glyph-name="afii10110" unicode="&#x45e;" horiz-adv-x="449" 
d="M534 146q-1 -7 -100 -59l-80 -43q-7 -4 -87 -47q-117 -62 -137 -77q-41 -58 -100 -152q-56 -86 -114 -86q-28 0 -45 17t-17 40q0 27 29 61t79 66q69 41 122 78q9 8 40 47l40 49q-31 -16 -88 -16q-22 0 -41 13q-29 20 -29 51q0 25 26 72q43 74 128 143q36 28 48 25l21 -7
q9 -6 9 -17q0 -19 -19 -39q-17 -19 -51 -47q-24 -19 -42 -31q-35 -24 -46 -33q-24 -27 -24 -58q0 -12 10.5 -20t25.5 -8q38 0 93 28q45 22 77 50q73 73 120 114l86 76q27 21 34 22q11 2 20.5 -7t9.5 -21q0 -18 -40 -52l-42 -36q-23 -22 -43 -38q-35 -31 -79 -64
q-14 -12 -43 -39q-32 -29 -39 -37l-27 -27q-3 -3 -19 -25l86 45q40 20 60 31l104 54q62 32 68 32q8 0 13 -9.5t3 -18.5zM42 -134q-63 -34 -86 -52q-56 -43 -56 -66q0 -8 11 -16q5 -4 11 -4q15 0 37 20q30 30 62 78q18 27 21 40zM216 537q0 17 27 21q11 2 32 -21
q12 -14 26 -24l33 -26q20 -15 28 -15q30 0 77 38q35 29 50 64q10 30 22 30q26 0 26 -36q0 -10 -21 -40q-22 -32 -51 -56q-65 -52 -96 -52q-23 0 -65 26.5t-65 49.5q-23 25 -23 41z" />
    <glyph glyph-name="afii10193" unicode="&#x45f;" horiz-adv-x="462" 
d="M548 148q0 -8 -39 -34q-37 -26 -78 -45l-71 -29q-31 -10 -56 -10q-37 0 -55 18q-11 15 -20 39l-105 -69q-54 -27 -97 -27q-41 0 -41 49q0 32 40 84q33 44 86 97q35 35 74 68q39 35 51 36q14 0 19 -8q6 -6 6 -19q0 -9 -51 -51l-55 -46q-24 -24 -71 -78q-44 -53 -47 -71
q-3 -13 10 -14q26 0 93 44q62 40 129 97l106 92l47 45q43 40 51 41q11 0 19.5 -13t8.5 -26q0 -9 -16 -24l-92 -73l-65 -56q-43 -40 -43 -65q0 -19 17 -25q22 0 44 7l51 18q33 11 62 29l69 40q19 0 19 -21zM225 -48q-3 -14 -18 -59q-5 -12 -13 -36q-9 -24 -26 -55l-39 -69
l-19 -31q-30 -48 -48 -45q-13 3 -13 21q0 11 24 56q41 73 51 95l19 46l12 39l2 9v6v12v11q5 27 35 31q16 0 25 -8t8 -23z" />
    <glyph glyph-name="afii10194" unicode="&#x463;" horiz-adv-x="405" 
d="M395 356q0 -6 -3.5 -16.5t-10 -25t-13 -27.5l-16 -32t-14.5 -30l-18.5 -37t-18.5 -38q19 6 35 6q25 0 37 -15t12 -39q0 -17 -16.5 -41t-43.5 -42q-53 -35 -91 -35q-14 0 -29.5 11t-14.5 26q5 28 21 56l39 71l53 97q46 84 44 95q0 2 -4 2q-10 0 -47 -33q-19 -17 -60 -61
q-34 -36 -71 -83q-43 -78 -77 -120q-6 -7 -14.5 -18.5l-14 -19t-12.5 -13.5t-13 -7q-10 0 -23 10.5t-15 18.5q0 11 4.5 20.5t15.5 23.5t15 20q9 13 18 24.5t21.5 25.5t19.5 23l16.5 19.5l19.5 23.5q27 44 39 74q24 59 24 84q0 2 -1 6.5t0 9.5q2 6 8 12t13 6q24 0 26 -32
q2 -29 -8 -62q4 6 13.5 14l22 18.5l19.5 16.5q58 52 82 51q12 -1 21.5 -13.5t9.5 -24.5zM350 101q0 6 -6.5 11.5t-11.5 5.5q-37 0 -55 -18q-9 -11 -22.5 -38t-13.5 -35q0 -2 5 -2q23 -1 59 27q45 33 45 49z" />
    <glyph glyph-name="afii10195" unicode="&#x473;" horiz-adv-x="319" 
d="M341 291l-2 -23q-1 -15 -17 -45l-36 -63l-4 -7l22 10q9 0 14 -4t2 -11q-1 -10 -30 -25q-16 -8 -42 -13q-31 -36 -73 -70q-57 -46 -108 -62q-41 -14 -54 -12q-21 0 -29 10.5t-8 35.5q0 24 18 58q9 18 38 58q16 22 50 59l53 55l1 8q4 7 31 29q44 32 54 38q48 27 73 24
q47 0 47 -50zM301 277l-3 15q-6 9 -19 10q-21 0 -52 -22q-23 -17 -37 -32q10 -3 10 -15q0 -6 -21 -30l10 -7l20 -17l14 -13l10 -10q23 26 41 56q24 39 27 65zM209 129l-17 15l-27 22l-15 7h-4l-16 -14q-25 -19 -50 -48q-16 -17 -36 -44q-27 -34 -27 -46q0 -15 9 -15
q16 0 42 14q3 3 44 27l47 35l26 22q12 10 24 25z" />
    <glyph glyph-name="afii10196" unicode="&#x475;" horiz-adv-x="466" 
d="M508 306q-1 -8 -9.5 -15.5t-16.5 -8.5l-20 18q-20 18 -44 18q-23 0 -52 -24l-50 -45l-114 -105l-95 -92l-34 -37l-18 -21q-9 -9 -22 -9q-23 -4 -23 35l2 32l5 31q1 11 9 39q15 57 35 101l16 36q15 32 34 58l28 37q16 19 30 19q9 0 13 -7l4 -20l-6 -9q-29 -40 -50 -75
l-19 -42l-29 -76l-8 -27l-6 -29l-1 -14l114 110l65 60l68 59q36 29 62 46q29 17 50 17q20 0 42 -13q43 -24 40 -47z" />
    <glyph glyph-name="afii10098" unicode="&#x491;" horiz-adv-x="334" 
d="M370 112q0 -14 -65 -48l-73 -36q-86 -42 -142 -42q-18 0 -38 15q-15 14 -17 31q0 23 40 78q31 43 87 104q15 18 51 51q52 50 53 59q0 9 -10 10q-10 0 -47 -20t-66 -42q-21 -16 -49 -52q-47 -62 -52 -62q-8 0 -14 2q-3 1 -9 7.5t-7 11.5q-3 28 9 74t35 87q16 29 28 47.5
t28.5 36t28.5 15.5q10 -1 8 -18q0 -5 -11.5 -22l-27.5 -41.5t-24 -42.5q-20 -46 -25 -66q24 32 65 65q38 29 79 49q39 17 69 19q19 0 31 -11q11 -9 13 -27q0 -33 -66 -103q-55 -55 -70 -71l-53 -60q-33 -42 -35 -62q0 -12 12 -14q17 0 41 8q29 8 55 19q35 13 66 29
q84 39 86 40q11 0 14 -3z" />
    <glyph glyph-name="perthousand" unicode="&#x2030;" horiz-adv-x="918" 
d="M880 223q0 -49 -69 -112q-68 -62 -121 -62q-39 0 -54 27q-10 17 -10 51q0 11 11 47q12 35 27 35q20 0 25 -4.5t5 -19.5q0 -11 -3 -26q-7 -32 -7 -40q0 -12 16 -12q28 0 75 41t47 67q0 8 -8 8q-9 0 -28 -10q-48 -23 -52 -22q-6 1 -11 8t-2 12q11 22 45 44q34 24 59 24
q23 0 39 -15t16 -41zM472 576q1 -47 -82.5 -113.5t-141.5 -62.5q-22 0 -40 15.5t-18 36.5q0 18 29 65q28 47 51 67q14 13 44 20q17 14 49 26q33 12 55 12q24 0 39 -19t15 -47zM616 238q0 -49 -69 -112q-68 -62 -121 -62q-39 0 -54 27q-10 17 -10 51q0 11 11 47q12 35 27 35
q20 0 25 -4.5t5 -19.5q0 -11 -3 -26q-7 -32 -7 -40q0 -12 16 -12q28 0 75 41t47 67q0 8 -8 8q-9 0 -28 -10q-48 -23 -52 -22q-6 1 -11 8t-2 12q11 22 45 44q34 24 59 24q23 0 39 -15t16 -41zM690 660q0 -11 -28 -29q-40 -25 -46 -33q-17 -18 -71 -86l-92 -119l-107 -137
l-222 -276q-17 -20 -61 -81q-24 -33 -33 -33q-14 0 -23 10t-9 24q0 12 39 58l39 48q38 50 138 168l100 124l153 200q85 112 111 138q56 56 84 56q8 0 15 -7q13 -13 13 -25zM414 566q-2 19 -12 20q-16 3 -33 -6q-8 -5 -31 -22q1 -10 -16 -24q-2 -2 -17 -7t-17 -7
q-11 -11 -20.5 -28t-9.5 -26q0 -8 14 -10q14 -3 42 11q44 23 81 67q19 22 19 32z" />
    <glyph glyph-name="Euro" unicode="&#x20ac;" horiz-adv-x="567" 
d="M537 579q0 -109 -57 -177q-32 -39 -60 -39q-20 0 -18 24q2 6 12 12q28 15 33 21q45 62 45 144q0 45 -23.5 70.5t-60.5 25.5q-24 0 -62 -23q-37 -22 -62 -50q-44 -55 -78 -126l-10 -22q94 0 125 -6q16 -3 24 -7.5t7 -10.5q0 -27 -20 -32q-18 -2 -49 -2h-12h-11
q-50 0 -75 1h-11l-14 -47q86 0 132.5 -5.5t45.5 -19.5q0 -27 -20 -32q-6 -2 -54 -2h-13h-12h-11q-48 0 -72 1h-10q-20 -103 -20 -172q0 -31 12 -48.5t30 -17.5q36 0 85 24q52 27 77 56q7 22 16 30q16 18 27 24q16 10 37 10q7 0 7 -12q0 -25 -23 -48q-34 -43 -105 -87
q-79 -49 -133 -49q-34 0 -56.5 35.5t-22.5 87.5q0 81 16 168h-9q-5 0 -56 -3q-32 -6 -33 32q0 27 57 27h26h27l15 49h-22q-5 0 -56 -3q-32 -6 -33 32q0 26 59 26q6 0 17 -0.5t16 -0.5l40 1q47 104 99 163q40 46 82 73q51 33 94 33q44 0 82 -37q39 -36 39 -91z" />
    <glyph glyph-name="afii61352" unicode="&#x2116;" horiz-adv-x="858" 
d="M824 353q0 -45 -63 -102q-62 -56 -110 -56q-37 0 -50 24q-10 16 -10 48q0 14 10 44q11 32 26 32q18 0 23.5 -5.5t5.5 -20.5q1 -9 -4 -33q-5 -22 -5 -24q0 -9 13 -9q24 0 65 36q42 36 42 59q-3 5 -5 5q-6 0 -36 -15q-28 -15 -36 -13q-8 1 -12 8t-1 13q11 18 41 40
q31 22 54 22q22 0 37 -13.5t15 -39.5zM782 133q0 -30 -33 -30q-3 0 -54 3q-45 4 -77 4q-2 0 -50 -3q-20 0 -25 7t-5 22q0 24 51 24h24q55 0 91 -2q78 -6 78 -25zM585 410q2 -10 2 -13q0 -20 -13 -41.5t-24 -24.5q-4 -1 -7 2.5t-6.5 10.5l-4.5 9l-95 -112q-19 -23 -53 -61
q-23 -26 -39 -47l-28 -43q-19 -30 -35 -30q-22 0 -31 10t-9 32q1 6 1 14q5 41 23 115q-20 -13 -53 -46l-36 -36q-31 -29 -72 -76q-75 -83 -79 -84q-9 -2 -21 11.5t-12 27.5q0 4 53 57l97 96q17 18 51 48q50 45 75 84l22 38q17 23 35 18q23 -6 23 -31q0 -12 -6 -31l-22 -69
q-2 -7 -5 -33.5t-4 -34.5q6 6 67 78l50 57l82 90q45 48 51 48q11 0 16 -11q1 -4 3.5 -11.5z" />
    <glyph glyph-name="u1D11E" unicode="&#x1d11e;" horiz-adv-x="597" 
d="M578 249q0 -62 -25 -108q-39 -71 -140 -110q-5 -2 -35 -13q-4 -19 -9 -53q-6 -42 -8 -52q-23 -97 -30 -123q-30 -97 -103 -142q-28 -18 -62 -18q-47 0 -71.5 29.5t-24.5 76.5q0 14 13 27t29 13q17 0 30.5 -11.5t13.5 -26.5q0 -18 -12 -18l-12 6q-4 1 -6.5 -2t-3.5 -8
q-4 -13 13 -29q17 -15 33 -15q25 0 51 23l27 29q26 28 42 90q11 37 18 68l9 43l11 78q-32 -7 -74 -7q-40 0 -79 7q-70 13 -114 68q-39 48 -39 101q0 73 37 131q29 47 113 123q31 28 84 68l122 96l16 66q14 58 22 86q17 57 33 82q22 34 53 34q36 0 55 -34q17 -29 17 -66
q0 -58 -80 -133l-66 -59q-5 -21 -14 -126q60 0 94 -24q72 -51 72 -167zM530 756q0 18 -9.5 36.5t-18.5 19.5q-9 0 -22 -22t-22 -50q-5 -15 -14 -59q-6 -33 -6 -47q92 62 92 122zM533 234q0 83 -26.5 121t-84.5 38q-11 0 -14 -1q-3 -20 -8 -82q-7 -87 -8 -102q-8 -90 -8 -138
q18 0 50 17t53 39q46 46 46 108zM372 532q-62 -44 -80 -58q-62 -46 -96 -78q-65 -61 -93 -103q-35 -55 -35 -113q0 -41 24.5 -74t64.5 -48q43 -16 93 -16q42 0 84 14q3 31 7 92q3 49 3 74q0 57 16 158q-26 -4 -51.5 -24.5t-34.5 -43.5q0 -2 -1 -8.5t-2 -8.5t-2.5 -5.5t-5 -4
t-9.5 0.5q-14 1 -14 30q0 34 42 69q35 29 80 43q2 10 10 104z" />
  </font>
</defs>
</svg>
